<?xml version="1.0" encoding="UTF-8" standalone="no"?>
<!-- Created with Inkscape (http://www.inkscape.org/) -->

<svg
   width="71.343369mm"
   height="60.779964mm"
   viewBox="0 0 71.343369 60.779965"
   version="1.1"
   id="svg1"
   inkscape:version="1.4 (e7c3feb1, 2024-10-09)"
   sodipodi:docname="one_over_x_plot.svg"
   xmlns:inkscape="http://www.inkscape.org/namespaces/inkscape"
   xmlns:sodipodi="http://sodipodi.sourceforge.net/DTD/sodipodi-0.dtd"
   xmlns="http://www.w3.org/2000/svg"
   xmlns:svg="http://www.w3.org/2000/svg">
  <sodipodi:namedview
     id="namedview1"
     pagecolor="#ffffff"
     bordercolor="#000000"
     borderopacity="0.25"
     inkscape:showpageshadow="2"
     inkscape:pageopacity="0.0"
     inkscape:pagecheckerboard="0"
     inkscape:deskcolor="#d1d1d1"
     inkscape:document-units="mm"
     inkscape:zoom="2.180859"
     inkscape:cx="58.004667"
     inkscape:cy="122.19955"
     inkscape:window-width="1512"
     inkscape:window-height="916"
     inkscape:window-x="0"
     inkscape:window-y="38"
     inkscape:window-maximized="0"
     inkscape:current-layer="layer1" />
  <defs
     id="defs1">
    <clipPath
       clipPathUnits="userSpaceOnUse"
       id="clipPath14">
      <path
         d="M 0,0 H 194.27368 V 161.3918 H 0 Z"
         id="path14" />
    </clipPath>
  </defs>
  <g
     inkscape:label="Layer 1"
     inkscape:groupmode="layer"
     id="layer1"
     transform="translate(-44.02053,-64.758844)">
    <path
       id="path3"
       d="M 44.830817,124.74297 H 112.66334"
       style="fill:none;stroke:#000000;stroke-width:0.140582;stroke-linecap:butt;stroke-linejoin:miter;stroke-miterlimit:10;stroke-dasharray:none;stroke-opacity:1" />
    <path
       id="path4"
       d="m 113.36625,124.74297 -1.12466,-0.56233 0.42175,0.56233 -0.42175,0.56234"
       style="fill:#000000;fill-opacity:1;fill-rule:nonzero;stroke:none;stroke-width:0.352777" />
    <path
       id="path5"
       d="M 44.830817,124.74297 V 68.510453"
       style="fill:none;stroke:#000000;stroke-width:0.140582;stroke-linecap:butt;stroke-linejoin:miter;stroke-miterlimit:10;stroke-dasharray:none;stroke-opacity:1" />
    <path
       id="path6"
       d="m 44.830817,67.807534 -0.56233,1.124666 0.56233,-0.421749 0.562332,0.421749"
       style="fill:#000000;fill-opacity:1;fill-rule:nonzero;stroke:none;stroke-width:0.352777" />
    <path
       id="path13"
       d="M 0.64972,386.0492 1.29947,193.02458 1.94922,128.68414 2.59897,96.51227 3.24872,77.21307 3.89845,64.34044 4.5482,55.14758 5.19794,48.25612 5.84769,42.8947 6.49744,38.60493 7.14717,35.093 7.79692,32.17053 8.44666,29.69608 9.0964,27.57474 l 0.64975,-1.83826 0.64974,-1.6084 0.64975,-1.41898 0.64973,-1.2621 0.64975,-1.12809 0.64975,-1.01648 0.64975,-0.91925 0.64975,-0.83603 0.64973,-0.76273 0.64974,-0.69885 0.64975,-0.64363 0.64975,-0.59389 0.64975,-0.55005 0.64974,-0.51066 0.64975,-0.47544 0.64974,-0.44352 0.64974,-0.41539 0.64975,-0.38895 0.64975,-0.36542 0.64974,-0.34442 0.64974,-0.32467 0.64976,-0.30635 0.64974,-0.28953 0.64974,-0.27438 0.64973,-0.2605 L 25.98975,9.65123 26.6395,9.41562 27.28925,9.19154 27.939,8.9779 28.58875,8.7739 29.2385,8.57895 29.88823,8.39238 30.53796,8.21384 31.18771,8.04243 31.83746,7.87848 32.48721,7.7213 33.13695,7.56956 33.7867,7.42401 34.43645,7.28395 35.08618,7.149 35.73593,7.0189 36.38567,6.89401 37.03542,6.77264 37.68517,6.65576 38.33492,6.54314 38.98466,6.43404 39.63441,6.32849 40.28413,6.22649 40.93387,6.12804 41.58362,6.03183 42.23337,5.9392 42.88312,5.84915 43.53287,5.76198 44.1826,5.67741 44.83235,5.59511 45.48209,5.51472 46.13184,5.4376 46.78159,5.3614 47.43134,5.28816 48.08107,5.2168 48.73082,5.1474 49.38057,5.0793 50.0303,5.01349 50.68005,4.94955 51.32979,4.88696 51.97954,4.82559 52.62929,4.76617 53.27904,4.70811 53.92879,4.65097 54.57852,4.59576 55.22826,4.54153 55.878,4.48894 56.52776,4.43727 57.17749,4.38693 57.82724,4.33754 58.47699,4.28947 59.12672,4.24199 59.77647,4.19618 60.42621,4.15097 61.07596,4.10674 61.72571,4.06384 62.37544,4.02153 63.02519,3.97992 63.67494,3.93924 64.32469,3.8992 64.97443,3.86047 65.6242,3.8224 66.2739,3.78464 66.92368,3.74814 67.57336,3.71198 68.22316,3.67651 68.87294,3.64165 69.52263,3.60776 70.1724,3.57416 70.82208,3.5419 71.47188,3.50931 72.12166,3.47763 72.77135,3.44664 73.42113,3.41602 74.07082,3.38597 74.7206,3.3569 75.37038,3.3279 76.02007,3.29948 76.66985,3.27141 77.31953,3.24428 77.96931,3.21704 78.6191,3.19049 79.26878,3.16429 79.91856,3.13858 80.56825,3.11325 81.21803,3.08838 81.86781,3.06386 82.5175,3.03972 83.16728,3.01599 83.81697,2.9926 84.46677,2.96959 85.11653,2.94688 85.76622,2.92462 86.41602,2.9026 87.06569,2.88094 87.71548,2.8596 88.36528,2.83862 89.01495,2.81789 89.66475,2.7974 90.31442,2.7773 90.9642,2.75745 91.614,2.7379 l 0.64969,-0.01926 0.64978,-0.01901 0.64969,-0.01877 0.64978,-0.01848 0.64976,-0.0182 0.64969,-0.01804 0.6498,-0.01771 0.64968,-0.01755 0.64978,-0.01724 0.64978,-0.01704 0.64969,-0.01685 0.6498,-0.01653 0.64966,-0.0164 0.64979,-0.0162 0.64978,-0.01602 0.64969,-0.01577 0.64978,-0.01556 0.64969,-0.01531 0.64979,-0.01516 0.64979,-0.01499 0.64967,-0.01481 0.64978,-0.01465 0.64969,-0.01442 0.64978,-0.01424 0.64979,-0.01413 0.6497,-0.0139 0.64977,-0.01378 0.64969,-0.01359 0.64977,-0.0134 0.64978,-0.01329 0.64969,-0.01315 0.64979,-0.01302 0.64969,-0.0128 0.64978,-0.01267 0.64978,-0.01251 0.64967,-0.0124 0.6498,-0.01227 0.64967,-0.01212 0.6498,-0.01196 0.6498,-0.01187 0.64967,-0.01172 0.64979,-0.01163 0.64969,-0.01141 0.64977,-0.01134 0.6498,-0.01123 0.64968,-0.01108 0.64978,-0.01098 0.64969,-0.0109 0.64978,-0.01068 0.6498,-0.0107 0.64969,-0.01048 0.64976,-0.01048 0.64969,-0.0103 0.64978,-0.0102 0.64978,-0.0101 0.64969,-0.00999 0.64979,-0.00991 0.64969,-0.0098 0.64977,-0.00965 0.64978,-0.00965 0.64969,-0.00951 0.64979,-0.0094 0.64967,-0.00931 0.6498,-0.00926 0.64978,-0.00911 0.64969,-0.00907 0.64977,-0.00895 0.64968,-0.00889 0.6498,-0.00881 0.64978,-0.00872 0.64969,-0.00865 0.64978,-0.00852 0.64969,-0.00848 0.64978,-0.00837 0.64978,-0.00832 0.64968,-0.00823 0.64979,-0.00817 0.64969,-0.00803 0.64978,-0.00809 0.64979,-0.00791 0.64968,-0.00783 0.64977,-0.00785 0.6497,-0.00773 0.64977,-0.00763 0.6498,-0.00758 0.64967,-0.00754 0.6498,-0.00744 0.64969,-0.00742 0.64978,-0.00736 0.64978,-0.00723 0.64969,-0.00725 0.64978,-0.00708 0.64969,-0.00711 0.64979,-0.00703 0.64978,-0.00695 0.64969,-0.00689 0.64978,-0.00686 0.64967,-0.00674 0.64978,-0.00674 0.6498,-0.0067 0.64969,-0.00659 0.64978,-0.00657 0.64969,-0.00654 0.64978,-0.00646 0.64978,-0.00641 0.64967,-0.00634 0.6498,-0.00632 0.64969,-0.00624 0.64978,-0.00621 0.64978,-0.00615 0.64969,-0.00612 0.64978,-0.00604 0.64967,-0.00603 0.64979,-0.00589 0.64979,-0.00598 0.64968,-0.00585 0.64978,-0.00581 0.64969,-0.00577 0.6498,-0.0057 0.64978,-0.00572 0.64967,-0.00567 0.64978,-0.00561 0.64969,-0.00552 0.64978,-0.00551 0.6498,-0.00553 0.64969,-0.00541 0.64978,-0.00541 0.64968,-0.00532 0.64977,-0.00532 0.64979,-0.00527 0.64969,-0.00522 0.64978,-0.00523 0.64969,-0.00518 0.6498,-0.0051 0.64978,-0.00509 0.64967,-0.00506 0.64978,-0.00499 0.64969,-0.00501 0.6498,-0.00493 0.64978,-0.00492 0.64968,-0.00484 0.64979,-0.00487 0.64968,-0.00478 0.64978,-0.00477 0.64978,-0.00473 0.64969,-0.00473 0.64978,-0.00463 0.6497,-0.00463 0.64977,-0.00464 0.6498,-0.00457 0.64969,-0.00453 0.64976,-0.00453 0.64969,-0.00449 0.64978,-0.00442 0.6498,-0.00444 0.64967,-0.00438 0.6498,-0.00439 0.64968,-0.00434"
       style="fill:none;stroke:#8cbbba;stroke-width:1.64692922;stroke-linecap:butt;stroke-linejoin:miter;stroke-miterlimit:10;stroke-dasharray:none;stroke-opacity:1"
       transform="matrix(0.35277776,0,0,-0.35277776,44.830817,124.74297)"
       clip-path="url(#clipPath14)" />
    <path
       id="path15"
       d="m 114.68591,124.43909 c 0.0207,-0.091 0.10335,-0.41342 0.34726,-0.41342 0.0165,0 0.10336,0 0.17777,0.0455 -0.0992,0.0165 -0.1695,0.10749 -0.1695,0.19017 0,0.0579 0.0372,0.12402 0.13229,0.12402 0.0785,0 0.19017,-0.0661 0.19017,-0.2067 0,-0.1819 -0.2067,-0.23151 -0.32659,-0.23151 -0.20257,0 -0.3266,0.18603 -0.36794,0.26871 -0.0909,-0.23151 -0.27699,-0.26871 -0.38034,-0.26871 -0.36793,0 -0.56637,0.45476 -0.56637,0.54157 0,0.0372 0.0372,0.0372 0.0413,0.0372 0.0289,0 0.0413,-0.008 0.0455,-0.0413 0.11988,-0.37207 0.35139,-0.45889 0.47129,-0.45889 0.0661,0 0.19016,0.0331 0.19016,0.23566 0,0.10749 -0.0579,0.34313 -0.19016,0.83508 -0.0538,0.21911 -0.17777,0.36795 -0.33487,0.36795 -0.0207,0 -0.0992,0 -0.17363,-0.0455 0.0868,-0.0207 0.16536,-0.0951 0.16536,-0.19016 0,-0.0951 -0.0785,-0.12402 -0.13229,-0.12402 -0.10335,0 -0.19017,0.091 -0.19017,0.20256 0,0.16123 0.17363,0.23151 0.33073,0.23151 0.23151,0 0.35553,-0.24391 0.36794,-0.26458 0.0413,0.12816 0.1695,0.26458 0.38034,0.26458 0.35966,0 0.56224,-0.45062 0.56224,-0.54156 0,-0.0331 -0.0331,-0.0331 -0.0455,-0.0331 -0.0289,0 -0.0372,0.0124 -0.0455,0.0372 -0.11576,0.37621 -0.35141,0.46303 -0.46716,0.46303 -0.13643,0 -0.19017,-0.11575 -0.19017,-0.23151 0,-0.0785 0.0207,-0.1571 0.0579,-0.31006 z m 0,0"
       style="fill:#000000;fill-opacity:1;fill-rule:nonzero;stroke:none;stroke-width:0.352777"
       aria-label="x" />
    <path
       id="path16"
       d="m 45.624566,64.973815 c 0.01654,-0.04961 0.01654,-0.05374 0.01654,-0.07855 0,-0.06615 -0.04961,-0.09508 -0.103354,-0.09508 -0.03721,0 -0.09095,0.02067 -0.124024,0.07028 -0.0083,0.02067 -0.03307,0.128157 -0.04961,0.190169 -0.02479,0.09095 -0.04961,0.186035 -0.07028,0.28112 l -0.157096,0.632519 c -0.01241,0.05374 -0.165365,0.301791 -0.396875,0.301791 -0.177768,0 -0.21911,-0.157097 -0.21911,-0.285254 0,-0.161231 0.06201,-0.380339 0.181902,-0.690397 0.05374,-0.144694 0.07028,-0.181901 0.07028,-0.252181 0,-0.157097 -0.115755,-0.289388 -0.289388,-0.289388 -0.334865,0 -0.463021,0.51263 -0.463021,0.541569 0,0.03721 0.03307,0.03721 0.04134,0.03721 0.03307,0 0.03721,-0.0083 0.05374,-0.06615 0.09509,-0.330729 0.235646,-0.434082 0.355534,-0.434082 0.02894,0 0.09095,0 0.09095,0.111621 0,0.08682 -0.03721,0.181901 -0.06201,0.248047 -0.14056,0.37207 -0.202573,0.570507 -0.202573,0.735872 0,0.314193 0.21911,0.417546 0.429948,0.417546 0.136427,0 0.256315,-0.05788 0.351401,-0.157097 -0.04548,0.181901 -0.08682,0.355534 -0.227377,0.541569 -0.09095,0.11989 -0.223243,0.223242 -0.384472,0.223242 -0.04961,0 -0.210841,-0.0124 -0.268718,-0.148828 0.05788,0 0.103354,0 0.152963,-0.04134 0.03307,-0.03307 0.07028,-0.07855 0.07028,-0.144694 0,-0.111621 -0.09508,-0.124023 -0.132292,-0.124023 -0.07855,0 -0.194302,0.05788 -0.194302,0.227376 0,0.177767 0.152961,0.305925 0.37207,0.305925 0.359667,0 0.723469,-0.318327 0.822688,-0.715202 z m 0,0"
       style="fill:#000000;fill-opacity:1;fill-rule:nonzero;stroke:none;stroke-width:0.352777"
       aria-label="y" />
  </g>
</svg>
