<?xml version="1.0" encoding="UTF-8" standalone="no"?>
<!-- Created with Inkscape (http://www.inkscape.org/) -->

<svg
   width="38.264587mm"
   height="43.300011mm"
   viewBox="0 0 38.264587 43.300011"
   version="1.1"
   id="svg1"
   inkscape:version="1.4 (e7c3feb1, 2024-10-09)"
   sodipodi:docname="partition_1.svg"
   xmlns:inkscape="http://www.inkscape.org/namespaces/inkscape"
   xmlns:sodipodi="http://sodipodi.sourceforge.net/DTD/sodipodi-0.dtd"
   xmlns="http://www.w3.org/2000/svg"
   xmlns:svg="http://www.w3.org/2000/svg">
  <sodipodi:namedview
     id="namedview1"
     pagecolor="#ffffff"
     bordercolor="#000000"
     borderopacity="0.25"
     inkscape:showpageshadow="2"
     inkscape:pageopacity="0.0"
     inkscape:pagecheckerboard="0"
     inkscape:deskcolor="#d1d1d1"
     inkscape:document-units="mm"
     showgrid="true"
     inkscape:zoom="1.4984041"
     inkscape:cx="-19.687612"
     inkscape:cy="83.088398"
     inkscape:window-width="1512"
     inkscape:window-height="916"
     inkscape:window-x="0"
     inkscape:window-y="38"
     inkscape:window-maximized="0"
     inkscape:current-layer="layer1">
    <inkscape:grid
       id="grid1"
       units="mm"
       originx="-58.867714"
       originy="-84.522974"
       spacingx="0.99999998"
       spacingy="1"
       empcolor="#0099e5"
       empopacity="0.30196078"
       color="#0099e5"
       opacity="0.14901961"
       empspacing="5"
       enabled="true"
       visible="true" />
  </sodipodi:namedview>
  <defs
     id="defs1">
    <defs
       id="id-a1b6d60d-ab31-47c7-aa76-79dd672f59b6">
      <g
         id="id-8fe27c38-5945-481a-aa57-a000d7a6105a">
        <g
           id="id-86e930ab-4d60-4f41-b722-7c837481a931">
          <path
             d="M 1.78125,-1.140625 C 1.390625,-0.484375 1,-0.34375 0.5625,-0.3125 0.4375,-0.296875 0.34375,-0.296875 0.34375,-0.109375 0.34375,-0.046875 0.40625,0 0.484375,0 0.75,0 1.0625,-0.03125 1.328125,-0.03125 c 0.34375,0 0.6875,0.03125 1,0.03125 0.0625,0 0.1875,0 0.1875,-0.1875 0,-0.109375 -0.078125,-0.125 -0.15625,-0.125 -0.21875,-0.015625 -0.46875,-0.09375 -0.46875,-0.34375 0,-0.125 0.0625,-0.234375 0.140625,-0.375 l 0.765625,-1.265625 h 2.5 c 0.015625,0.203125 0.15625,1.5625 0.15625,1.65625 0,0.296875 -0.515625,0.328125 -0.71875,0.328125 C 4.59375,-0.3125 4.5,-0.3125 4.5,-0.109375 4.5,0 4.609375,0 4.640625,0 5.046875,0 5.46875,-0.03125 5.875,-0.03125 6.125,-0.03125 6.765625,0 7.015625,0 7.0625,0 7.1875,0 7.1875,-0.203125 7.1875,-0.3125 7.09375,-0.3125 6.953125,-0.3125 6.34375,-0.3125 6.34375,-0.375 6.3125,-0.671875 l -0.609375,-6.21875 c -0.015625,-0.203125 -0.015625,-0.25 -0.1875,-0.25 -0.15625,0 -0.203125,0.078125 -0.265625,0.171875 z M 2.984375,-2.609375 4.9375,-5.90625 5.265625,-2.609375 Z m 0,0"
             id="id-2c8a7207-1a33-41b2-8967-f24b20b91ace" />
        </g>
        <g
           id="id-f8f306b3-48ea-476e-ba35-a041763d0193">
          <path
             d="m 3.046875,-2.671875 c -0.25,0.046875 -0.34375,0.234375 -0.34375,0.390625 0,0.1875 0.140625,0.265625 0.265625,0.265625 0.15625,0 0.390625,-0.109375 0.390625,-0.453125 0,-0.46875 -0.53125,-0.609375 -0.90625,-0.609375 -1.046875,0 -2.015625,0.96875 -2.015625,1.9375 0,0.59375 0.40625,1.203125 1.28125,1.203125 1.1875,0 1.734375,-0.6875 1.734375,-0.78125 0,-0.046875 -0.0625,-0.125 -0.125,-0.125 -0.03125,0 -0.046875,0.015625 -0.109375,0.078125 C 2.671875,-0.125 1.859375,-0.125 1.734375,-0.125 c -0.5,0 -0.71875,-0.34375 -0.71875,-0.78125 0,-0.1875 0.09375,-0.953125 0.453125,-1.4375 0.265625,-0.34375 0.625,-0.53125 0.984375,-0.53125 0.09375,0 0.421875,0.015625 0.59375,0.203125 z m 0,0"
             id="id-9133bab6-6650-499f-b0cc-d3202c315a0c" />
        </g>
        <g
           id="id-3f1ca7c6-33fa-4adc-8ab0-3022b9a06433">
          <path
             d="M 6.75,-1.609375 H 6.5 c -0.046875,0.25 -0.09375,0.484375 -0.1875,0.71875 -0.046875,0.15625 -0.078125,0.25 -0.65625,0.25 H 4.859375 C 5,-1.203125 5.296875,-1.6875 5.75,-2.34375 c 0.46875,-0.703125 0.875,-1.390625 0.875,-2.1875 0,-1.375 -1.34375,-2.5 -3.03125,-2.5 -1.703125,0 -3.03125,1.140625 -3.03125,2.5 0,0.796875 0.40625,1.484375 0.875,2.1875 0.4375,0.65625 0.75,1.140625 0.890625,1.703125 H 1.53125 C 0.953125,-0.640625 0.921875,-0.734375 0.875,-0.875 0.78125,-1.109375 0.734375,-1.359375 0.6875,-1.609375 h -0.25 L 0.765625,0 h 1.59375 c 0.21875,0 0.25,0 0.25,-0.203125 0,-0.703125 -0.3125,-1.578125 -0.53125,-2.21875 -0.21875,-0.578125 -0.5,-1.359375 -0.5,-2.109375 0,-1.59375 1.109375,-2.28125 2.015625,-2.28125 0.953125,0 2.015625,0.71875 2.015625,2.28125 0,0.75 -0.28125,1.5 -0.5625,2.3125 -0.15625,0.421875 -0.46875,1.328125 -0.46875,2.015625 C 4.578125,0 4.609375,0 4.828125,0 h 1.59375 z m 0,0"
             id="id-37a69ef4-4017-40ab-b9c8-7473b9369945" />
        </g>
      </g>
    </defs>
  </defs>
  <g
     inkscape:label="Layer 1"
     inkscape:groupmode="layer"
     id="layer1"
     transform="translate(-58.867711,-84.522971)">
    <path
       style="fill:none;stroke:#010101;stroke-width:0.264583;stroke-dasharray:none;stroke-opacity:1"
       d="m 85.000001,84.999996 c -3.678658,-0.596964 -6.273221,5 -10.000001,5 -3.72678,0 -6.829811,-6.959284 -9.999999,-5 -2.835503,1.752437 1.275612,6.920402 0,10.000001 -0.901994,2.177605 -5,2.642977 -5,5 0,4.714043 7.243649,6.175773 10.000001,10.000003 2.179085,3.02332 1.556906,8.57381 4.999998,9.99999 4.869272,2.01692 11.018408,-1.54678 15.000001,-4.99999 2.815412,-2.44179 5.000001,-6.27322 5.000001,-10 0,-3.72678 -4.143762,-6.372917 -5.000001,-10.000003 -0.382922,-1.622082 0.637806,-3.460201 0,-5.000001 -0.901994,-2.177605 -2.673413,-4.622447 -5,-5 z"
       id="path1"
       sodipodi:nodetypes="aaaaaaaaaaaa" />
    <path
       style="fill:none;stroke:#010101;stroke-width:0.264583;stroke-dasharray:none;stroke-opacity:1"
       d="M 87.000002,85.999996 71,111.99999"
       id="path2" />
    <g
       fill="#000000"
       fill-opacity="1"
       id="id-152ec628-2342-4276-a575-a00e9bdd8aff"
       transform="matrix(0.54371345,0,0,0.54371345,-11.720677,25.07794)">
      <g
         transform="translate(148.712,134.765)"
         id="g2">
        <path
           d="M 1.78125,-1.140625 C 1.390625,-0.484375 1,-0.34375 0.5625,-0.3125 0.4375,-0.296875 0.34375,-0.296875 0.34375,-0.109375 0.34375,-0.046875 0.40625,0 0.484375,0 0.75,0 1.0625,-0.03125 1.328125,-0.03125 c 0.34375,0 0.6875,0.03125 1,0.03125 0.0625,0 0.1875,0 0.1875,-0.1875 0,-0.109375 -0.078125,-0.125 -0.15625,-0.125 -0.21875,-0.015625 -0.46875,-0.09375 -0.46875,-0.34375 0,-0.125 0.0625,-0.234375 0.140625,-0.375 l 0.765625,-1.265625 h 2.5 c 0.015625,0.203125 0.15625,1.5625 0.15625,1.65625 0,0.296875 -0.515625,0.328125 -0.71875,0.328125 C 4.59375,-0.3125 4.5,-0.3125 4.5,-0.109375 4.5,0 4.609375,0 4.640625,0 5.046875,0 5.46875,-0.03125 5.875,-0.03125 6.125,-0.03125 6.765625,0 7.015625,0 7.0625,0 7.1875,0 7.1875,-0.203125 7.1875,-0.3125 7.09375,-0.3125 6.953125,-0.3125 6.34375,-0.3125 6.34375,-0.375 6.3125,-0.671875 l -0.609375,-6.21875 c -0.015625,-0.203125 -0.015625,-0.25 -0.1875,-0.25 -0.15625,0 -0.203125,0.078125 -0.265625,0.171875 z M 2.984375,-2.609375 4.9375,-5.90625 5.265625,-2.609375 Z m 0,0"
           id="id-9363d013-c9be-4905-87ef-e74166c104ce" />
      </g>
    </g>
    <g
       fill="#000000"
       fill-opacity="1"
       id="id-d3e4609d-186b-4741-9eeb-b116de1d090a"
       transform="matrix(0.54371345,0,0,0.54371345,-36.47031,13.173448)">
      <g
         transform="translate(206.94052,210.86389)"
         id="g5">
        <path
           d="M 6.75,-1.609375 H 6.5 c -0.046875,0.25 -0.09375,0.484375 -0.1875,0.71875 -0.046875,0.15625 -0.078125,0.25 -0.65625,0.25 H 4.859375 C 5,-1.203125 5.296875,-1.6875 5.75,-2.34375 c 0.46875,-0.703125 0.875,-1.390625 0.875,-2.1875 0,-1.375 -1.34375,-2.5 -3.03125,-2.5 -1.703125,0 -3.03125,1.140625 -3.03125,2.5 0,0.796875 0.40625,1.484375 0.875,2.1875 0.4375,0.65625 0.75,1.140625 0.890625,1.703125 H 1.53125 C 0.953125,-0.640625 0.921875,-0.734375 0.875,-0.875 0.78125,-1.109375 0.734375,-1.359375 0.6875,-1.609375 h -0.25 L 0.765625,0 h 1.59375 c 0.21875,0 0.25,0 0.25,-0.203125 0,-0.703125 -0.3125,-1.578125 -0.53125,-2.21875 -0.21875,-0.578125 -0.5,-1.359375 -0.5,-2.109375 0,-1.59375 1.109375,-2.28125 2.015625,-2.28125 0.953125,0 2.015625,0.71875 2.015625,2.28125 0,0.75 -0.28125,1.5 -0.5625,2.3125 -0.15625,0.421875 -0.46875,1.328125 -0.46875,2.015625 C 4.578125,0 4.609375,0 4.828125,0 h 1.59375 z m 0,0"
           id="id-3744902c-3592-4a94-a420-761ddc61b4b7" />
      </g>
      <path
         style="fill:none;stroke:#010101;stroke-width:0.486623;stroke-dasharray:none;stroke-opacity:1"
         d="m 175.58939,199.23463 v 1.83921 h 69.88976 v -1.83921"
         id="path6" />
    </g>
    <path
       style="fill:#cbcbcb;fill-opacity:1;stroke:#010101;stroke-width:0.348842;stroke-dasharray:none;stroke-opacity:1"
       d="m 290.17729,454.73157 c -7.66123,-1.408 -11.44112,-4.10388 -14.41832,-10.28339 -1.47741,-3.06652 -1.93573,-4.49713 -5.06211,-15.80115 l -1.46917,-5.31205 0.77626,-1.31594 c 2.17438,-3.68608 58.74688,-95.55366 59.02615,-95.85205 0.43402,-0.46372 4.52487,3.82349 6.49087,6.80242 0.82305,1.2471 2.15078,3.60179 2.95051,5.23262 1.81802,3.70735 1.99399,5.76637 1.11802,13.08156 -0.59837,4.99699 -0.5991,5.35592 -0.0163,7.9705 0.81258,3.64525 3.61754,9.10868 7.37015,14.35537 9.63073,13.46519 11.31706,17.00891 11.31706,23.78216 0,12.17397 -7.41395,26.93694 -18.31419,36.46797 -3.91464,3.4229 -10.2178,8.12815 -14.12809,10.54646 -11.16777,6.90668 -20.48592,10.22274 -29.47712,10.49004 -2.49422,0.0741 -5.2679,1.2e-4 -6.16374,-0.16452 z"
       id="path7"
       transform="scale(0.26458333)" />
    <g
       id="g6"
       transform="translate(31.867491,19.801848)">
      <g
         fill="#000000"
         fill-opacity="1"
         id="id-c3d7346f-edf4-4ea8-9182-b227874515ad"
         transform="matrix(0.54371345,0,0,0.54371345,-36.47031,13.173448)">
        <g
           transform="translate(159.501,134.765)"
           id="g3">
          <path
             d="M 1.78125,-1.140625 C 1.390625,-0.484375 1,-0.34375 0.5625,-0.3125 0.4375,-0.296875 0.34375,-0.296875 0.34375,-0.109375 0.34375,-0.046875 0.40625,0 0.484375,0 0.75,0 1.0625,-0.03125 1.328125,-0.03125 c 0.34375,0 0.6875,0.03125 1,0.03125 0.0625,0 0.1875,0 0.1875,-0.1875 0,-0.109375 -0.078125,-0.125 -0.15625,-0.125 -0.21875,-0.015625 -0.46875,-0.09375 -0.46875,-0.34375 0,-0.125 0.0625,-0.234375 0.140625,-0.375 l 0.765625,-1.265625 h 2.5 c 0.015625,0.203125 0.15625,1.5625 0.15625,1.65625 0,0.296875 -0.515625,0.328125 -0.71875,0.328125 C 4.59375,-0.3125 4.5,-0.3125 4.5,-0.109375 4.5,0 4.609375,0 4.640625,0 5.046875,0 5.46875,-0.03125 5.875,-0.03125 6.125,-0.03125 6.765625,0 7.015625,0 7.0625,0 7.1875,0 7.1875,-0.203125 7.1875,-0.3125 7.09375,-0.3125 6.953125,-0.3125 6.34375,-0.3125 6.34375,-0.375 6.3125,-0.671875 l -0.609375,-6.21875 c -0.015625,-0.203125 -0.015625,-0.25 -0.1875,-0.25 -0.15625,0 -0.203125,0.078125 -0.265625,0.171875 z M 2.984375,-2.609375 4.9375,-5.90625 5.265625,-2.609375 Z m 0,0"
             id="id-9da811fd-8738-439c-bbe7-64f1264ccd54" />
        </g>
      </g>
      <g
         fill="#000000"
         fill-opacity="1"
         id="id-805fa53a-143a-4f75-809e-31f3a0beeba4"
         transform="matrix(0.54371345,0,0,0.54371345,-36.47031,13.173448)">
        <g
           transform="translate(166.977,131.149)"
           id="g4">
          <path
             d="m 3.046875,-2.671875 c -0.25,0.046875 -0.34375,0.234375 -0.34375,0.390625 0,0.1875 0.140625,0.265625 0.265625,0.265625 0.15625,0 0.390625,-0.109375 0.390625,-0.453125 0,-0.46875 -0.53125,-0.609375 -0.90625,-0.609375 -1.046875,0 -2.015625,0.96875 -2.015625,1.9375 0,0.59375 0.40625,1.203125 1.28125,1.203125 1.1875,0 1.734375,-0.6875 1.734375,-0.78125 0,-0.046875 -0.0625,-0.125 -0.125,-0.125 -0.03125,0 -0.046875,0.015625 -0.109375,0.078125 C 2.671875,-0.125 1.859375,-0.125 1.734375,-0.125 c -0.5,0 -0.71875,-0.34375 -0.71875,-0.78125 0,-0.1875 0.09375,-0.953125 0.453125,-1.4375 0.265625,-0.34375 0.625,-0.53125 0.984375,-0.53125 0.09375,0 0.421875,0.015625 0.59375,0.203125 z m 0,0"
             id="id-e0ce05e8-5288-4d7e-8aab-68a37ed87c2d" />
        </g>
      </g>
    </g>
  </g>
</svg>
