<?xml version="1.0" encoding="UTF-8" standalone="no"?>
<!-- Created with Inkscape (http://www.inkscape.org/) -->

<svg
   width="164.78346mm"
   height="29.853487mm"
   viewBox="0 0 164.78346 29.853487"
   version="1.1"
   id="svg1"
   inkscape:version="1.4 (e7c3feb1, 2024-10-09)"
   sodipodi:docname="real_line_approaching.svg"
   xmlns:inkscape="http://www.inkscape.org/namespaces/inkscape"
   xmlns:sodipodi="http://sodipodi.sourceforge.net/DTD/sodipodi-0.dtd"
   xmlns="http://www.w3.org/2000/svg"
   xmlns:svg="http://www.w3.org/2000/svg">
  <sodipodi:namedview
     id="namedview1"
     pagecolor="#ffffff"
     bordercolor="#000000"
     borderopacity="0.25"
     inkscape:showpageshadow="2"
     inkscape:pageopacity="0.0"
     inkscape:pagecheckerboard="0"
     inkscape:deskcolor="#d1d1d1"
     inkscape:document-units="mm"
     showgrid="true"
     inkscape:zoom="1.4094762"
     inkscape:cx="263.57308"
     inkscape:cy="30.153044"
     inkscape:window-width="1512"
     inkscape:window-height="916"
     inkscape:window-x="0"
     inkscape:window-y="38"
     inkscape:window-maximized="0"
     inkscape:current-layer="layer1">
    <inkscape:grid
       id="grid1"
       units="mm"
       originx="-20.579012"
       originy="-116.32643"
       spacingx="0.99999998"
       spacingy="1"
       empcolor="#0099e5"
       empopacity="0.30196078"
       color="#0099e5"
       opacity="0.14901961"
       empspacing="5"
       enabled="true"
       visible="true" />
  </sodipodi:namedview>
  <defs
     id="defs1">
    <marker
       style="overflow:visible"
       id="marker61"
       refX="0"
       refY="0"
       orient="auto-start-reverse"
       inkscape:stockid="Wide arrow"
       markerWidth="1"
       markerHeight="1"
       viewBox="0 0 1 1"
       inkscape:isstock="true"
       inkscape:collect="always"
       preserveAspectRatio="xMidYMid">
      <path
         style="fill:none;stroke:context-stroke;stroke-width:1;stroke-linecap:butt"
         d="M 3,-3 0,0 3,3"
         transform="rotate(180,0.125,0)"
         sodipodi:nodetypes="ccc"
         id="path61" />
    </marker>
    <marker
       style="overflow:visible"
       id="marker2"
       refX="0"
       refY="0"
       orient="auto-start-reverse"
       inkscape:stockid="Rounded arrow"
       markerWidth="1"
       markerHeight="1"
       viewBox="0 0 1 1"
       inkscape:isstock="true"
       inkscape:collect="always"
       preserveAspectRatio="xMidYMid">
      <path
         transform="scale(0.7)"
         d="m -0.21114562,-4.1055728 6.42229122,3.21114561 a 1,1 90 0 1 0,1.78885438 L -0.21114562,4.1055728 A 1.236068,1.236068 31.717474 0 1 -2,3 v -6 a 1.236068,1.236068 148.28253 0 1 1.78885438,-1.1055728 z"
         style="fill:context-stroke;fill-rule:evenodd;stroke:none"
         id="path2" />
    </marker>
    <marker
       style="overflow:visible"
       id="RoundedArrow"
       refX="0"
       refY="0"
       orient="auto-start-reverse"
       inkscape:stockid="Rounded arrow"
       markerWidth="1"
       markerHeight="1"
       viewBox="0 0 1 1"
       inkscape:isstock="true"
       inkscape:collect="always"
       preserveAspectRatio="xMidYMid">
      <path
         transform="scale(0.7)"
         d="m -0.21114562,-4.1055728 6.42229122,3.21114561 a 1,1 90 0 1 0,1.78885438 L -0.21114562,4.1055728 A 1.236068,1.236068 31.717474 0 1 -2,3 v -6 a 1.236068,1.236068 148.28253 0 1 1.78885438,-1.1055728 z"
         style="fill:context-stroke;fill-rule:evenodd;stroke:none"
         id="path8" />
    </marker>
    <defs
       id="id-b2fe213d-581d-4b7f-9862-6f0e4e994791">
      <g
         id="id-42381513-a38a-497d-8aaa-8d875b71ddca">
        <g
           id="id-752c3cd4-8a96-462b-8a0f-68b9c79b76f0">
          <path
             d="m 4.078125,-2.296875 h 2.78125 C 7,-2.296875 7.1875,-2.296875 7.1875,-2.5 7.1875,-2.6875 7,-2.6875 6.859375,-2.6875 h -2.78125 v -2.796875 c 0,-0.140625 0,-0.328125 -0.203125,-0.328125 -0.203125,0 -0.203125,0.1875 -0.203125,0.328125 V -2.6875 h -2.78125 c -0.140625,0 -0.328125,0 -0.328125,0.1875 0,0.203125 0.1875,0.203125 0.328125,0.203125 h 2.78125 V 0.5 c 0,0.140625 0,0.328125 0.203125,0.328125 0.203125,0 0.203125,-0.1875 0.203125,-0.328125 z m 0,0"
             id="id-b01831b2-49b8-4b7f-8c03-c97458559996" />
        </g>
        <g
           id="id-0b6e783a-684d-49d3-8253-23258359fdb7">
          <path
             d="m 3.3125,-0.75 c 0.046875,0.390625 0.3125,0.8125 0.78125,0.8125 0.21875,0 0.828125,-0.140625 0.828125,-0.953125 v -0.5625 h -0.25 v 0.5625 c 0,0.578125 -0.25,0.640625 -0.359375,0.640625 -0.328125,0 -0.375,-0.453125 -0.375,-0.5 v -1.984375 c 0,-0.421875 0,-0.8125 -0.359375,-1.1875 C 3.1875,-4.3125 2.6875,-4.46875 2.21875,-4.46875 c -0.828125,0 -1.515625,0.46875 -1.515625,1.125 0,0.296875 0.203125,0.46875 0.46875,0.46875 0.28125,0 0.453125,-0.203125 0.453125,-0.453125 0,-0.125 -0.046875,-0.453125 -0.515625,-0.453125 C 1.390625,-4.140625 1.875,-4.25 2.1875,-4.25 c 0.5,0 1.0625,0.390625 1.0625,1.28125 v 0.359375 c -0.515625,0.03125 -1.203125,0.0625 -1.828125,0.359375 -0.75,0.34375 -1,0.859375 -1,1.296875 0,0.8125 0.96875,1.0625 1.59375,1.0625 0.65625,0 1.109375,-0.40625 1.296875,-0.859375 z M 3.25,-2.390625 v 1 c 0,0.9375 -0.71875,1.28125 -1.171875,1.28125 -0.484375,0 -0.890625,-0.34375 -0.890625,-0.84375 0,-0.546875 0.421875,-1.375 2.0625,-1.4375 z m 0,0"
             id="id-171dee27-33fa-4324-bc03-00dcd01dbf92" />
        </g>
        <g
           id="id-698ec246-b031-4557-b171-ed3064395bfa">
          <path
             d="m 1.71875,-3.75 v -0.65625 l -1.4375,0.109375 v 0.3125 c 0.703125,0 0.78125,0.0625 0.78125,0.5 v 4.65625 C 1.0625,1.625 0.953125,1.625 0.28125,1.625 V 1.9375 C 0.625,1.921875 1.140625,1.90625 1.390625,1.90625 c 0.28125,0 0.78125,0.015625 1.125,0.03125 V 1.625 C 1.859375,1.625 1.75,1.625 1.75,1.171875 V -0.59375 c 0.046875,0.171875 0.46875,0.703125 1.21875,0.703125 1.1875,0 2.21875,-0.984375 2.21875,-2.265625 0,-1.265625 -0.953125,-2.25 -2.078125,-2.25 -0.78125,0 -1.203125,0.4375 -1.390625,0.65625 z M 1.75,-1.140625 v -2.21875 C 2.03125,-3.875 2.515625,-4.15625 3.03125,-4.15625 c 0.734375,0 1.328125,0.875 1.328125,2 0,1.203125 -0.6875,2.046875 -1.421875,2.046875 -0.40625,0 -0.78125,-0.203125 -1.046875,-0.609375 C 1.75,-0.921875 1.75,-0.9375 1.75,-1.140625 Z m 0,0"
             id="id-2028bfe2-40d1-4dd9-be9f-59d444c8f9eb" />
        </g>
        <g
           id="id-00b22046-a336-4f1c-96f1-da3961a7340f">
          <path
             d="M 1.671875,-3.3125 V -4.40625 L 0.28125,-4.296875 v 0.3125 c 0.703125,0 0.78125,0.0625 0.78125,0.5625 V -0.75 c 0,0.4375 -0.109375,0.4375 -0.78125,0.4375 V 0 c 0.390625,-0.015625 0.859375,-0.03125 1.140625,-0.03125 0.390625,0 0.859375,0 1.265625,0.03125 V -0.3125 H 2.46875 c -0.734375,0 -0.75,-0.109375 -0.75,-0.46875 V -2.3125 c 0,-0.984375 0.421875,-1.875 1.171875,-1.875 0.0625,0 0.09375,0 0.109375,0.015625 -0.03125,0 -0.234375,0.125 -0.234375,0.390625 0,0.265625 0.21875,0.421875 0.4375,0.421875 0.171875,0 0.421875,-0.125 0.421875,-0.4375 0,-0.3125 -0.3125,-0.609375 -0.734375,-0.609375 -0.734375,0 -1.09375,0.671875 -1.21875,1.09375 z m 0,0"
             id="id-93c4a142-8973-432e-a419-be7fe6147872" />
        </g>
        <g
           id="id-00ab02b1-4425-4fcf-9799-010d107853ed">
          <path
             d="M 4.6875,-2.140625 C 4.6875,-3.40625 3.703125,-4.46875 2.5,-4.46875 c -1.25,0 -2.21875,1.09375 -2.21875,2.328125 0,1.296875 1.03125,2.25 2.203125,2.25 1.203125,0 2.203125,-0.984375 2.203125,-2.25 z m -2.1875,2 c -0.4375,0 -0.875,-0.203125 -1.140625,-0.671875 -0.25,-0.4375 -0.25,-1.046875 -0.25,-1.40625 0,-0.390625 0,-0.921875 0.234375,-1.359375 C 1.609375,-4.03125 2.078125,-4.25 2.484375,-4.25 c 0.4375,0 0.859375,0.21875 1.125,0.65625 0.265625,0.421875 0.265625,1 0.265625,1.375 0,0.359375 0,0.90625 -0.21875,1.34375 C 3.421875,-0.421875 2.984375,-0.140625 2.5,-0.140625 Z m 0,0"
             id="id-660ff85f-86a7-42b4-a7d3-a5a1f47b3408" />
        </g>
        <g
           id="id-b589d1d4-12d9-4579-a01c-6ca1c8d03b72">
          <path
             d="m 1.171875,-2.171875 c 0,-1.625 0.8125,-2.046875 1.34375,-2.046875 0.09375,0 0.71875,0.015625 1.0625,0.375 -0.40625,0.03125 -0.46875,0.328125 -0.46875,0.453125 0,0.265625 0.1875,0.453125 0.453125,0.453125 0.265625,0 0.46875,-0.15625 0.46875,-0.46875 0,-0.671875 -0.765625,-1.0625 -1.53125,-1.0625 -1.25,0 -2.15625,1.078125 -2.15625,2.3125 0,1.28125 0.984375,2.265625 2.140625,2.265625 1.328125,0 1.65625,-1.203125 1.65625,-1.296875 0,-0.09375 -0.109375,-0.09375 -0.140625,-0.09375 -0.078125,0 -0.109375,0.03125 -0.125,0.09375 -0.28125,0.921875 -0.9375,1.046875 -1.296875,1.046875 -0.53125,0 -1.40625,-0.421875 -1.40625,-2.03125 z m 0,0"
             id="id-611aa9bd-e75a-46a9-9595-509ab75f32b4" />
        </g>
        <g
           id="id-bf85e890-72b6-4ed4-8dbc-768b62abfbbf">
          <path
             d="m 1.09375,-0.75 c 0,0.4375 -0.109375,0.4375 -0.78125,0.4375 V 0 c 0.359375,-0.015625 0.859375,-0.03125 1.140625,-0.03125 0.25,0 0.765625,0.015625 1.109375,0.03125 v -0.3125 c -0.671875,0 -0.78125,0 -0.78125,-0.4375 V -2.59375 C 1.78125,-3.625 2.5,-4.1875 3.125,-4.1875 c 0.640625,0 0.75,0.53125 0.75,1.109375 V -0.75 c 0,0.4375 -0.109375,0.4375 -0.78125,0.4375 V 0 c 0.34375,-0.015625 0.859375,-0.03125 1.125,-0.03125 0.25,0 0.78125,0.015625 1.109375,0.03125 v -0.3125 c -0.515625,0 -0.765625,0 -0.765625,-0.296875 v -1.90625 c 0,-0.859375 0,-1.15625 -0.3125,-1.515625 -0.140625,-0.171875 -0.46875,-0.375 -1.046875,-0.375 -0.84375,0 -1.28125,0.59375 -1.453125,0.984375 v -3.5 L 0.3125,-6.8125 V -6.5 c 0.703125,0 0.78125,0.0625 0.78125,0.5625 z m 0,0"
             id="id-408b2a31-3500-4b44-9706-8530cfbb5f26" />
        </g>
        <g
           id="id-4ae17121-7445-45f4-8ddf-bb97deb0966e">
          <path
             d="M 1.765625,-4.40625 0.375,-4.296875 v 0.3125 c 0.640625,0 0.734375,0.0625 0.734375,0.546875 V -0.75 c 0,0.4375 -0.109375,0.4375 -0.78125,0.4375 V 0 C 0.640625,-0.015625 1.1875,-0.03125 1.421875,-0.03125 1.78125,-0.03125 2.125,-0.015625 2.46875,0 v -0.3125 c -0.671875,0 -0.703125,-0.046875 -0.703125,-0.4375 z m 0.03125,-1.734375 c 0,-0.3125 -0.234375,-0.53125 -0.515625,-0.53125 -0.3125,0 -0.53125,0.265625 -0.53125,0.53125 0,0.265625 0.21875,0.53125 0.53125,0.53125 0.28125,0 0.515625,-0.21875 0.515625,-0.53125 z m 0,0"
             id="id-ac431770-3c7b-4336-a6f5-84c816a68b23" />
        </g>
        <g
           id="id-d938a67d-f8ce-4de3-9504-bac602371cac">
          <path
             d="M 1.09375,-3.421875 V -0.75 c 0,0.4375 -0.109375,0.4375 -0.78125,0.4375 V 0 c 0.359375,-0.015625 0.859375,-0.03125 1.140625,-0.03125 0.25,0 0.765625,0.015625 1.109375,0.03125 v -0.3125 c -0.671875,0 -0.78125,0 -0.78125,-0.4375 V -2.59375 C 1.78125,-3.625 2.5,-4.1875 3.125,-4.1875 c 0.640625,0 0.75,0.53125 0.75,1.109375 V -0.75 c 0,0.4375 -0.109375,0.4375 -0.78125,0.4375 V 0 c 0.34375,-0.015625 0.859375,-0.03125 1.125,-0.03125 0.25,0 0.78125,0.015625 1.109375,0.03125 v -0.3125 c -0.515625,0 -0.765625,0 -0.765625,-0.296875 v -1.90625 c 0,-0.859375 0,-1.15625 -0.3125,-1.515625 -0.140625,-0.171875 -0.46875,-0.375 -1.046875,-0.375 C 2.46875,-4.40625 2,-3.984375 1.71875,-3.359375 V -4.40625 L 0.3125,-4.296875 v 0.3125 c 0.703125,0 0.78125,0.0625 0.78125,0.5625 z m 0,0"
             id="id-6b2f4676-525d-41bf-9bc1-31b0f6a74065" />
        </g>
        <g
           id="id-fad943ee-c78c-4588-bc4f-f0dd10bdec6d">
          <path
             d="m 2.21875,-1.71875 c -0.875,0 -0.875,-1 -0.875,-1.21875 0,-0.265625 0.015625,-0.59375 0.15625,-0.84375 0.078125,-0.109375 0.3125,-0.390625 0.71875,-0.390625 0.859375,0 0.859375,0.984375 0.859375,1.21875 0,0.265625 0,0.59375 -0.15625,0.84375 C 2.84375,-2 2.609375,-1.71875 2.21875,-1.71875 Z M 1.0625,-1.328125 c 0,-0.03125 0,-0.265625 0.15625,-0.46875 0.390625,0.28125 0.8125,0.3125 1,0.3125 0.921875,0 1.609375,-0.6875 1.609375,-1.453125 0,-0.375 -0.15625,-0.734375 -0.40625,-0.96875 C 3.78125,-4.25 4.140625,-4.296875 4.3125,-4.296875 c 0.03125,0 0.078125,0 0.109375,0.015625 C 4.3125,-4.25 4.25,-4.140625 4.25,-4.015625 c 0,0.171875 0.140625,0.28125 0.296875,0.28125 0.09375,0 0.28125,-0.0625 0.28125,-0.296875 0,-0.171875 -0.109375,-0.484375 -0.5,-0.484375 -0.203125,0 -0.640625,0.0625 -1.0625,0.46875 C 2.84375,-4.375 2.4375,-4.40625 2.21875,-4.40625 c -0.9375,0 -1.625,0.6875 -1.625,1.453125 0,0.4375 0.21875,0.8125 0.46875,1.03125 -0.125,0.140625 -0.3125,0.46875 -0.3125,0.828125 0,0.3125 0.140625,0.6875 0.453125,0.890625 -0.609375,0.15625 -0.921875,0.59375 -0.921875,0.984375 0,0.71875 0.984375,1.265625 2.203125,1.265625 1.171875,0 2.203125,-0.5 2.203125,-1.28125 0,-0.34375 -0.125,-0.859375 -0.640625,-1.140625 -0.53125,-0.265625 -1.109375,-0.265625 -1.71875,-0.265625 -0.25,0 -0.671875,0 -0.75,-0.015625 C 1.265625,-0.703125 1.0625,-1 1.0625,-1.328125 Z M 2.5,1.828125 c -1.015625,0 -1.703125,-0.515625 -1.703125,-1.046875 0,-0.453125 0.375,-0.828125 0.8125,-0.84375 h 0.59375 c 0.859375,0 1.96875,0 1.96875,0.84375 0,0.546875 -0.703125,1.046875 -1.671875,1.046875 z m 0,0"
             id="id-69ae95d9-051c-4f33-a3f7-f17e382743d0" />
        </g>
        <g
           id="id-7e93eec8-57fd-4c65-8d65-020cdebfb669">
          <path
             d="m 1.75,-4.296875 v -1.15625 c 0,-0.875 0.46875,-1.359375 0.90625,-1.359375 0.03125,0 0.1875,0 0.328125,0.078125 C 2.875,-6.703125 2.6875,-6.5625 2.6875,-6.3125 c 0,0.21875 0.15625,0.421875 0.4375,0.421875 0.28125,0 0.4375,-0.203125 0.4375,-0.4375 0,-0.375 -0.375,-0.703125 -0.90625,-0.703125 -0.6875,0 -1.546875,0.53125 -1.546875,1.59375 v 1.140625 h -0.78125 v 0.3125 h 0.78125 V -0.75 C 1.109375,-0.3125 1,-0.3125 0.34375,-0.3125 V 0 c 0.390625,-0.015625 0.859375,-0.03125 1.125,-0.03125 0.40625,0 0.875,0 1.265625,0.03125 V -0.3125 H 2.53125 c -0.734375,0 -0.75,-0.109375 -0.75,-0.46875 v -3.203125 h 1.125 v -0.3125 z m 0,0"
             id="id-bb62fa42-969d-498d-b0ee-4569b4c1962e" />
        </g>
        <g
           id="id-b9eb5e7b-feac-4baf-a079-04af3593f75f">
          <path
             d="M 1.09375,-3.421875 V -0.75 c 0,0.4375 -0.109375,0.4375 -0.78125,0.4375 V 0 c 0.359375,-0.015625 0.859375,-0.03125 1.140625,-0.03125 0.25,0 0.765625,0.015625 1.109375,0.03125 v -0.3125 c -0.671875,0 -0.78125,0 -0.78125,-0.4375 V -2.59375 C 1.78125,-3.625 2.5,-4.1875 3.125,-4.1875 c 0.640625,0 0.75,0.53125 0.75,1.109375 V -0.75 c 0,0.4375 -0.109375,0.4375 -0.78125,0.4375 V 0 c 0.34375,-0.015625 0.859375,-0.03125 1.125,-0.03125 0.25,0 0.78125,0.015625 1.109375,0.03125 v -0.3125 c -0.65625,0 -0.765625,0 -0.765625,-0.4375 v -1.84375 c 0,-1.03125 0.703125,-1.59375 1.34375,-1.59375 0.625,0 0.734375,0.53125 0.734375,1.109375 V -0.75 c 0,0.4375 -0.109375,0.4375 -0.78125,0.4375 V 0 c 0.34375,-0.015625 0.859375,-0.03125 1.125,-0.03125 0.265625,0 0.78125,0.015625 1.125,0.03125 v -0.3125 c -0.515625,0 -0.765625,0 -0.78125,-0.296875 v -1.90625 c 0,-0.859375 0,-1.15625 -0.3125,-1.515625 -0.140625,-0.171875 -0.46875,-0.375 -1.046875,-0.375 -0.828125,0 -1.28125,0.59375 -1.4375,0.984375 C 4.390625,-4.296875 3.65625,-4.40625 3.203125,-4.40625 2.46875,-4.40625 2,-3.984375 1.71875,-3.359375 V -4.40625 L 0.3125,-4.296875 v 0.3125 c 0.703125,0 0.78125,0.0625 0.78125,0.5625 z m 0,0"
             id="id-1302da43-5bd2-4cda-85c2-46080d302e2e" />
        </g>
        <g
           id="id-741c2514-6f56-4bf2-ab75-02feae6506b5">
          <path
             d="m 1.71875,-3.984375 h 1.4375 v -0.3125 H 1.71875 V -6.125 h -0.25 c 0,0.8125 -0.296875,1.875 -1.28125,1.921875 v 0.21875 h 0.84375 v 2.75 c 0,1.21875 0.9375,1.34375 1.296875,1.34375 0.703125,0 0.984375,-0.703125 0.984375,-1.34375 v -0.5625 h -0.25 V -1.25 c 0,0.734375 -0.296875,1.109375 -0.671875,1.109375 -0.671875,0 -0.671875,-0.90625 -0.671875,-1.078125 z m 0,0"
             id="id-f2876850-7bdb-41f1-ba31-3b42cbbdb8d9" />
        </g>
        <g
           id="id-3a3aad6f-34ba-4210-b7d7-d8e18fa96b3d">
          <path
             d="M 1.109375,-2.515625 C 1.171875,-4 2.015625,-4.25 2.359375,-4.25 c 1.015625,0 1.125,1.34375 1.125,1.734375 z m 0,0.21875 h 2.78125 c 0.21875,0 0.25,0 0.25,-0.21875 0,-0.984375 -0.546875,-1.953125 -1.78125,-1.953125 -1.15625,0 -2.078125,1.03125 -2.078125,2.28125 0,1.328125 1.046875,2.296875 2.1875,2.296875 C 3.6875,0.109375 4.140625,-1 4.140625,-1.1875 4.140625,-1.28125 4.0625,-1.3125 4,-1.3125 c -0.078125,0 -0.109375,0.0625 -0.125,0.140625 -0.34375,1.03125 -1.25,1.03125 -1.34375,1.03125 -0.5,0 -0.890625,-0.296875 -1.125,-0.671875 -0.296875,-0.46875 -0.296875,-1.125 -0.296875,-1.484375 z m 0,0"
             id="id-6ea4ee9e-c9cf-4eb8-95e3-8d6dec838083" />
        </g>
        <g
           id="id-e4fac8be-6959-4a04-84bf-3fa66ecfb78a">
          <path
             d="M 1.765625,-6.921875 0.328125,-6.8125 V -6.5 c 0.703125,0 0.78125,0.0625 0.78125,0.5625 V -0.75 c 0,0.4375 -0.109375,0.4375 -0.78125,0.4375 V 0 C 0.65625,-0.015625 1.1875,-0.03125 1.4375,-0.03125 c 0.25,0 0.734375,0.015625 1.109375,0.03125 v -0.3125 c -0.671875,0 -0.78125,0 -0.78125,-0.4375 z m 0,0"
             id="id-b57d2198-e94a-4a73-bd31-48ec67ac689b" />
        </g>
        <g
           id="id-632066ca-ab7f-4334-b4b4-b98ae4a42f19">
          <path
             d="M 5.0625,-2.703125 C 4.53125,-3.375 4.40625,-3.53125 4.09375,-3.78125 c -0.5625,-0.453125 -1.109375,-0.625 -1.625,-0.625 -1.15625,0 -1.921875,1.09375 -1.921875,2.265625 0,1.140625 0.734375,2.25 1.890625,2.25 1.140625,0 1.96875,-0.90625 2.453125,-1.703125 0.546875,0.671875 0.65625,0.828125 0.96875,1.078125 0.5625,0.453125 1.125,0.625 1.625,0.625 1.171875,0 1.921875,-1.09375 1.921875,-2.265625 0,-1.140625 -0.734375,-2.25 -1.875,-2.25 -1.15625,0 -1.984375,0.90625 -2.46875,1.703125 z m 0.265625,0.34375 c 0.40625,-0.71875 1.140625,-1.734375 2.265625,-1.734375 1.0625,0 1.59375,1.046875 1.59375,1.9375 0,0.984375 -0.671875,1.78125 -1.546875,1.78125 C 7.0625,-0.375 6.625,-0.78125 6.40625,-1 6.15625,-1.265625 5.9375,-1.578125 5.328125,-2.359375 Z m -0.6875,0.421875 c -0.40625,0.71875 -1.15625,1.734375 -2.28125,1.734375 -1.046875,0 -1.59375,-1.046875 -1.59375,-1.9375 0,-0.984375 0.671875,-1.78125 1.546875,-1.78125 0.578125,0 1.03125,0.40625 1.234375,0.625 0.25,0.265625 0.484375,0.578125 1.09375,1.359375 z m 0,0"
             id="id-18da7662-f0cc-4cd0-bb60-1fbf3f2b915d" />
        </g>
        <g
           id="id-bb12907a-9bb3-45d7-9836-cd7040124da4">
          <path
             d="m 6.5625,-2.296875 c 0.171875,0 0.359375,0 0.359375,-0.203125 0,-0.1875 -0.1875,-0.1875 -0.359375,-0.1875 H 1.171875 c -0.171875,0 -0.34375,0 -0.34375,0.1875 0,0.203125 0.171875,0.203125 0.34375,0.203125 z m 0,0"
             id="id-77bfedc2-8492-4f04-9444-6d91edba276d" />
        </g>
        <g
           id="id-def7eafc-fda1-4396-85c2-39687508ffba">
          <path
             d="m 3.953125,-3.78125 c -0.171875,0 -0.296875,0 -0.4375,0.125 -0.171875,0.15625 -0.1875,0.328125 -0.1875,0.390625 0,0.25 0.1875,0.359375 0.375,0.359375 0.28125,0 0.546875,-0.25 0.546875,-0.640625 0,-0.484375 -0.46875,-0.859375 -1.171875,-0.859375 -1.34375,0 -2.671875,1.421875 -2.671875,2.828125 0,0.90625 0.578125,1.6875 1.625,1.6875 1.421875,0 2.25,-1.0625 2.25,-1.171875 0,-0.0625 -0.046875,-0.140625 -0.109375,-0.140625 -0.0625,0 -0.078125,0.03125 -0.140625,0.109375 -0.78125,0.984375 -1.875,0.984375 -1.984375,0.984375 -0.625,0 -0.90625,-0.484375 -0.90625,-1.09375 0,-0.40625 0.203125,-1.375 0.546875,-1.984375 0.3125,-0.578125 0.859375,-1 1.40625,-1 0.328125,0 0.71875,0.125 0.859375,0.40625 z m 0,0"
             id="id-e362bf9b-b2fb-443b-8abd-17a093818ac1" />
        </g>
      </g>
    </defs>
    <marker
       style="overflow:visible"
       id="marker61-6"
       refX="0"
       refY="0"
       orient="auto-start-reverse"
       inkscape:stockid="Wide arrow"
       markerWidth="1"
       markerHeight="1"
       viewBox="0 0 1 1"
       inkscape:isstock="true"
       inkscape:collect="always"
       preserveAspectRatio="xMidYMid">
      <path
         style="fill:none;stroke:context-stroke;stroke-width:1;stroke-linecap:butt"
         d="M 3,-3 0,0 3,3"
         transform="rotate(180,0.125,0)"
         sodipodi:nodetypes="ccc"
         id="path61-0" />
    </marker>
    <marker
       style="overflow:visible"
       id="marker61-8"
       refX="0"
       refY="0"
       orient="auto-start-reverse"
       inkscape:stockid="Wide arrow"
       markerWidth="1"
       markerHeight="1"
       viewBox="0 0 1 1"
       inkscape:isstock="true"
       inkscape:collect="always"
       preserveAspectRatio="xMidYMid">
      <path
         style="fill:none;stroke:context-stroke;stroke-width:1;stroke-linecap:butt"
         d="M 3,-3 0,0 3,3"
         transform="rotate(180,0.125,0)"
         sodipodi:nodetypes="ccc"
         id="path61-5" />
    </marker>
    <marker
       style="overflow:visible"
       id="marker61-5"
       refX="0"
       refY="0"
       orient="auto-start-reverse"
       inkscape:stockid="Wide arrow"
       markerWidth="1"
       markerHeight="1"
       viewBox="0 0 1 1"
       inkscape:isstock="true"
       inkscape:collect="always"
       preserveAspectRatio="xMidYMid">
      <path
         style="fill:none;stroke:context-stroke;stroke-width:1;stroke-linecap:butt"
         d="M 3,-3 0,0 3,3"
         transform="rotate(180,0.125,0)"
         sodipodi:nodetypes="ccc"
         id="path61-6" />
    </marker>
    <marker
       style="overflow:visible"
       id="marker61-5-0"
       refX="0"
       refY="0"
       orient="auto-start-reverse"
       inkscape:stockid="Wide arrow"
       markerWidth="1"
       markerHeight="1"
       viewBox="0 0 1 1"
       inkscape:isstock="true"
       inkscape:collect="always"
       preserveAspectRatio="xMidYMid">
      <path
         style="fill:none;stroke:context-stroke;stroke-width:1;stroke-linecap:butt"
         d="M 3,-3 0,0 3,3"
         transform="rotate(180,0.125,0)"
         sodipodi:nodetypes="ccc"
         id="path61-6-4" />
    </marker>
    <marker
       style="overflow:visible"
       id="marker61-5-8"
       refX="0"
       refY="0"
       orient="auto-start-reverse"
       inkscape:stockid="Wide arrow"
       markerWidth="1"
       markerHeight="1"
       viewBox="0 0 1 1"
       inkscape:isstock="true"
       inkscape:collect="always"
       preserveAspectRatio="xMidYMid">
      <path
         style="fill:none;stroke:context-stroke;stroke-width:1;stroke-linecap:butt"
         d="M 3,-3 0,0 3,3"
         transform="rotate(180,0.125,0)"
         sodipodi:nodetypes="ccc"
         id="path61-6-40" />
    </marker>
  </defs>
  <g
     inkscape:label="Layer 1"
     inkscape:groupmode="layer"
     id="layer1"
     transform="translate(-20.579009,-116.32642)">
    <path
       style="fill:none;stroke:#787878;stroke-width:0.581001;stroke-opacity:1;marker-start:url(#RoundedArrow);marker-end:url(#marker2)"
       d="M 44.999999,135 H 150"
       id="path1" />
    <path
       style="fill:none;stroke:#787878;stroke-width:0.581001;stroke-opacity:1"
       d="m 97.499999,130 v 9.99999"
       id="path3" />
    <g
       id="g56"
       transform="translate(128.82825,0.04861679)">
      <g
         transform="matrix(0.66544423,0,0,0.66544423,28.304632,136.60979)"
         id="g3"
         style="fill:#000000;fill-opacity:1">
        <path
           d="m 4.078125,-2.296875 h 2.78125 C 7,-2.296875 7.1875,-2.296875 7.1875,-2.5 7.1875,-2.6875 7,-2.6875 6.859375,-2.6875 h -2.78125 v -2.796875 c 0,-0.140625 0,-0.328125 -0.203125,-0.328125 -0.203125,0 -0.203125,0.1875 -0.203125,0.328125 V -2.6875 h -2.78125 c -0.140625,0 -0.328125,0 -0.328125,0.1875 0,0.203125 0.1875,0.203125 0.328125,0.203125 h 2.78125 V 0.5 c 0,0.140625 0,0.328125 0.203125,0.328125 0.203125,0 0.203125,-0.1875 0.203125,-0.328125 z m 0,0"
           id="id-2f013b55-4094-4ea4-9bf6-68215982c6bf" />
      </g>
      <g
         transform="matrix(0.66544423,0,0,0.66544423,33.46116,136.60979)"
         id="g4"
         style="fill:#000000;fill-opacity:1">
        <path
           d="M 5.0625,-2.703125 C 4.53125,-3.375 4.40625,-3.53125 4.09375,-3.78125 c -0.5625,-0.453125 -1.109375,-0.625 -1.625,-0.625 -1.15625,0 -1.921875,1.09375 -1.921875,2.265625 0,1.140625 0.734375,2.25 1.890625,2.25 1.140625,0 1.96875,-0.90625 2.453125,-1.703125 0.546875,0.671875 0.65625,0.828125 0.96875,1.078125 0.5625,0.453125 1.125,0.625 1.625,0.625 1.171875,0 1.921875,-1.09375 1.921875,-2.265625 0,-1.140625 -0.734375,-2.25 -1.875,-2.25 -1.15625,0 -1.984375,0.90625 -2.46875,1.703125 z m 0.265625,0.34375 c 0.40625,-0.71875 1.140625,-1.734375 2.265625,-1.734375 1.0625,0 1.59375,1.046875 1.59375,1.9375 0,0.984375 -0.671875,1.78125 -1.546875,1.78125 C 7.0625,-0.375 6.625,-0.78125 6.40625,-1 6.15625,-1.265625 5.9375,-1.578125 5.328125,-2.359375 Z m -0.6875,0.421875 c -0.40625,0.71875 -1.15625,1.734375 -2.28125,1.734375 -1.046875,0 -1.59375,-1.046875 -1.59375,-1.9375 0,-0.984375 0.671875,-1.78125 1.546875,-1.78125 0.578125,0 1.03125,0.40625 1.234375,0.625 0.25,0.265625 0.484375,0.578125 1.09375,1.359375 z m 0,0"
           id="id-3f6e8dbb-f1da-4613-aa30-ae4518a5f2c8" />
      </g>
    </g>
    <g
       fill="#000000"
       fill-opacity="1"
       id="id-c9a4a842-d183-4498-94ee-36e9df72b425"
       transform="matrix(0.66544424,0,0,0.66544424,-52.361834,67.176228)">
      <g
         id="g55"
         transform="translate(-49.838488,-30.154953)">
        <g
           transform="translate(169.741,134.765)"
           id="g5">
          <path
             d="m 6.5625,-2.296875 c 0.171875,0 0.359375,0 0.359375,-0.203125 0,-0.1875 -0.1875,-0.1875 -0.359375,-0.1875 H 1.171875 c -0.171875,0 -0.34375,0 -0.34375,0.1875 0,0.203125 0.171875,0.203125 0.34375,0.203125 z m 0,0"
             id="id-7a16b09e-6d22-44eb-8421-ce20f3bfe400" />
        </g>
        <g
           transform="translate(177.49,134.765)"
           id="g6">
          <path
             d="M 5.0625,-2.703125 C 4.53125,-3.375 4.40625,-3.53125 4.09375,-3.78125 c -0.5625,-0.453125 -1.109375,-0.625 -1.625,-0.625 -1.15625,0 -1.921875,1.09375 -1.921875,2.265625 0,1.140625 0.734375,2.25 1.890625,2.25 1.140625,0 1.96875,-0.90625 2.453125,-1.703125 0.546875,0.671875 0.65625,0.828125 0.96875,1.078125 0.5625,0.453125 1.125,0.625 1.625,0.625 1.171875,0 1.921875,-1.09375 1.921875,-2.265625 0,-1.140625 -0.734375,-2.25 -1.875,-2.25 -1.15625,0 -1.984375,0.90625 -2.46875,1.703125 z m 0.265625,0.34375 c 0.40625,-0.71875 1.140625,-1.734375 2.265625,-1.734375 1.0625,0 1.59375,1.046875 1.59375,1.9375 0,0.984375 -0.671875,1.78125 -1.546875,1.78125 C 7.0625,-0.375 6.625,-0.78125 6.40625,-1 6.15625,-1.265625 5.9375,-1.578125 5.328125,-2.359375 Z m -0.6875,0.421875 c -0.40625,0.71875 -1.15625,1.734375 -2.28125,1.734375 -1.046875,0 -1.59375,-1.046875 -1.59375,-1.9375 0,-0.984375 0.671875,-1.78125 1.546875,-1.78125 0.578125,0 1.03125,0.40625 1.234375,0.625 0.25,0.265625 0.484375,0.578125 1.09375,1.359375 z m 0,0"
             id="id-0488335e-650b-4e76-87ed-f0378dc15549" />
        </g>
      </g>
    </g>
    <g
       fill="#000000"
       fill-opacity="1"
       id="id-60fe0f12-db14-499b-a9cb-bbb103f59d33"
       transform="matrix(0.66544424,0,0,0.66544424,-52.361834,67.176228)">
      <g
         transform="translate(190.777,134.765)"
         id="g7" />
    </g>
    <path
       d="m 98.570947,143.59089 c -0.11437,0 -0.19755,0 -0.29113,0.0832 -0.11437,0.10398 -0.12477,0.21835 -0.12477,0.25994 0,0.16636 0.12477,0.23915 0.24954,0.23915 0.18716,0 0.36392,-0.16637 0.36392,-0.4263 0,-0.32233 -0.31193,-0.57187 -0.779822,-0.57187 -0.894191,0 -1.777984,0.94618 -1.777984,1.88196 0,0.60306 0.38471,1.12294 1.081347,1.12294 0.946179,0 1.497249,-0.70704 1.497249,-0.77982 0,-0.0416 -0.0312,-0.0936 -0.0728,-0.0936 -0.0416,0 -0.052,0.0208 -0.0936,0.0728 -0.51988,0.65505 -1.247709,0.65505 -1.320491,0.65505 -0.415903,0 -0.603059,-0.32232 -0.603059,-0.72783 0,-0.27034 0.135168,-0.91499 0.363914,-1.32049 0.207952,-0.38471 0.571867,-0.66544 0.935786,-0.66544 0.21834,0 0.47828,0.0832 0.57186,0.27033 z m 0,0"
       id="id-f2c51c2d-2a2d-4279-a2e5-25478ee5fa88"
       style="stroke-width:0.665444" />
    <g
       id="g58"
       transform="translate(-59.370017,-35.8495)">
      <path
         d="m 81.872576,156.35574 c 0.03119,0.25994 0.207951,0.54067 0.519878,0.54067 0.145566,0 0.551071,-0.0936 0.551071,-0.63425 v -0.37431 h -0.166361 v 0.37431 c 0,0.38471 -0.166361,0.4263 -0.239144,0.4263 -0.218349,0 -0.249541,-0.30153 -0.249541,-0.33272 v -1.32049 c 0,-0.28074 0,-0.54068 -0.239144,-0.79022 -0.259939,-0.25994 -0.592662,-0.36391 -0.904589,-0.36391 -0.551071,0 -1.008564,0.31192 -1.008564,0.74862 0,0.19755 0.135169,0.31193 0.311927,0.31193 0.187157,0 0.30153,-0.13517 0.30153,-0.30153 0,-0.0832 -0.03119,-0.30153 -0.34312,-0.30153 0.187156,-0.23915 0.509481,-0.31193 0.717432,-0.31193 0.332722,0 0.707035,0.25994 0.707035,0.8526 v 0.23915 c -0.34312,0.0208 -0.800613,0.0416 -1.216515,0.23914 -0.499084,0.22875 -0.665445,0.57187 -0.665445,0.863 0,0.54067 0.644649,0.70703 1.060552,0.70703 0.436698,0 0.738227,-0.27033 0.862998,-0.57186 z m -0.04159,-1.09175 v 0.66545 c 0,0.62385 -0.478288,0.8526 -0.779818,0.8526 -0.322324,0 -0.592661,-0.22875 -0.592661,-0.56147 0,-0.36392 0.280734,-0.91499 1.372479,-0.95658 z m 0,0"
         id="id-5ee098f7-1ff7-4c67-ace1-736846fb98b5"
         style="fill:#000000;fill-opacity:1;stroke-width:0.665444" />
      <path
         d="m 84.126602,154.3594 v -0.43669 l -0.956576,0.0728 v 0.20795 c 0.467891,0 0.519879,0.0416 0.519879,0.33272 v 3.09848 c 0,0.30153 -0.07278,0.30153 -0.519879,0.30153 v 0.20795 c 0.228747,-0.0104 0.571866,-0.0208 0.738227,-0.0208 0.187157,0 0.519879,0.0104 0.748625,0.0208 v -0.20795 c -0.436698,0 -0.509481,0 -0.509481,-0.30153 v -1.17493 c 0.03119,0.11438 0.311927,0.46789 0.811011,0.46789 0.790215,0 1.476454,-0.65504 1.476454,-1.50764 0,-0.84221 -0.634252,-1.49725 -1.382876,-1.49725 -0.519879,0 -0.800613,0.29113 -0.925384,0.43669 z m 0.02079,1.7364 v -1.47646 c 0.187157,-0.34312 0.509481,-0.53027 0.852601,-0.53027 0.488685,0 0.883793,0.58226 0.883793,1.33089 0,0.80061 -0.457493,1.36208 -0.946179,1.36208 -0.270336,0 -0.519878,-0.13517 -0.696636,-0.40551 -0.09358,-0.13517 -0.09358,-0.14556 -0.09358,-0.28073 z m 0,0"
         id="id-eb3e1da5-7400-4e15-ab68-85859c94f8a8"
         style="fill:#000000;fill-opacity:1;stroke-width:0.665444" />
      <path
         d="m 87.810501,154.3594 v -0.43669 l -0.956576,0.0728 v 0.20795 c 0.467891,0 0.519879,0.0416 0.519879,0.33272 v 3.09848 c 0,0.30153 -0.07278,0.30153 -0.519879,0.30153 v 0.20795 c 0.228747,-0.0104 0.571866,-0.0208 0.738227,-0.0208 0.187157,0 0.519879,0.0104 0.748625,0.0208 v -0.20795 c -0.436698,0 -0.509481,0 -0.509481,-0.30153 v -1.17493 c 0.03119,0.11438 0.311927,0.46789 0.811011,0.46789 0.790215,0 1.476454,-0.65504 1.476454,-1.50764 0,-0.84221 -0.634252,-1.49725 -1.382876,-1.49725 -0.519879,0 -0.800613,0.29113 -0.925384,0.43669 z m 0.02079,1.7364 v -1.47646 c 0.187157,-0.34312 0.509481,-0.53027 0.852601,-0.53027 0.488685,0 0.883793,0.58226 0.883793,1.33089 0,0.80061 -0.457493,1.36208 -0.946179,1.36208 -0.270336,0 -0.519878,-0.13517 -0.696636,-0.40551 -0.09358,-0.13517 -0.09358,-0.14556 -0.09358,-0.28073 z m 0,0"
         id="id-0794e3b9-de33-4d32-a211-665d1c07b7f4"
         style="fill:#000000;fill-opacity:1;stroke-width:0.665444" />
      <path
         d="m 91.462543,154.65054 v -0.72783 l -0.925384,0.0728 v 0.20795 c 0.467891,0 0.519879,0.0416 0.519879,0.37431 v 1.77799 c 0,0.29113 -0.07278,0.29113 -0.519879,0.29113 v 0.20795 c 0.259939,-0.0104 0.571866,-0.0208 0.759023,-0.0208 0.259939,0 0.571866,0 0.842202,0.0208 v -0.20795 h -0.145566 c -0.488685,0 -0.499083,-0.0728 -0.499083,-0.31193 V 155.316 c 0,-0.65505 0.280735,-1.24771 0.779818,-1.24771 0.04159,0 0.06238,0 0.07278,0.0104 -0.02079,0 -0.155964,0.0832 -0.155964,0.25994 0,0.17676 0.145566,0.28073 0.291132,0.28073 0.114373,0 0.280734,-0.0832 0.280734,-0.29113 0,-0.20795 -0.207951,-0.4055 -0.488685,-0.4055 -0.488686,0 -0.72783,0.44709 -0.81101,0.72783 z m 0,0"
         id="id-cbe57e7b-b563-4ce2-8906-1d0051dc71e1"
         style="fill:#000000;fill-opacity:1;stroke-width:0.665444" />
      <path
         d="m 96.065837,155.43035 c 0,-0.8422 -0.655047,-1.54923 -1.455659,-1.54923 -0.831806,0 -1.476455,0.72783 -1.476455,1.54923 0,0.863 0.68624,1.49725 1.466057,1.49725 0.800613,0 1.466057,-0.65504 1.466057,-1.49725 z m -1.455659,1.33089 c -0.291132,0 -0.582264,-0.13517 -0.759023,-0.44709 -0.166361,-0.29114 -0.166361,-0.69664 -0.166361,-0.93578 0,-0.25994 0,-0.61346 0.155964,-0.90459 0.176758,-0.30153 0.488685,-0.4471 0.759022,-0.4471 0.291132,0 0.571866,0.14557 0.748625,0.4367 0.176758,0.28073 0.176758,0.66544 0.176758,0.91499 0,0.23914 0,0.60305 -0.145565,0.89419 -0.155964,0.30153 -0.447096,0.48868 -0.76942,0.48868 z m 0,0"
         id="id-49e8b196-cae3-410e-93d4-8764f95f6bee"
         style="fill:#000000;fill-opacity:1;stroke-width:0.665444" />
      <path
         d="m 98.465428,156.35574 c 0.03119,0.25994 0.207951,0.54067 0.519878,0.54067 0.145566,0 0.551071,-0.0936 0.551071,-0.63425 v -0.37431 h -0.166361 v 0.37431 c 0,0.38471 -0.166361,0.4263 -0.239144,0.4263 -0.218349,0 -0.249541,-0.30153 -0.249541,-0.33272 v -1.32049 c 0,-0.28074 0,-0.54068 -0.239144,-0.79022 -0.259939,-0.25994 -0.592662,-0.36391 -0.904589,-0.36391 -0.551071,0 -1.008564,0.31192 -1.008564,0.74862 0,0.19755 0.135169,0.31193 0.311927,0.31193 0.187157,0 0.30153,-0.13517 0.30153,-0.30153 0,-0.0832 -0.03119,-0.30153 -0.34312,-0.30153 0.187156,-0.23915 0.509481,-0.31193 0.717432,-0.31193 0.332722,0 0.707035,0.25994 0.707035,0.8526 v 0.23915 c -0.34312,0.0208 -0.800613,0.0416 -1.216515,0.23914 -0.499084,0.22875 -0.665445,0.57187 -0.665445,0.863 0,0.54067 0.644649,0.70703 1.060552,0.70703 0.436698,0 0.738227,-0.27033 0.862998,-0.57186 z m -0.04159,-1.09175 v 0.66545 c 0,0.62385 -0.478288,0.8526 -0.779818,0.8526 -0.322324,0 -0.592661,-0.22875 -0.592661,-0.56147 0,-0.36392 0.280734,-0.91499 1.372479,-0.95658 z m 0,0"
         id="id-28b4cdf8-7005-4a83-9f04-3c56c768cd1e"
         style="fill:#000000;fill-opacity:1;stroke-width:0.665444" />
      <path
         d="m 100.35621,155.40956 c 0,-1.08135 0.54067,-1.36208 0.89419,-1.36208 0.0624,0 0.47828,0.0104 0.70703,0.24954 -0.27034,0.0208 -0.31193,0.21835 -0.31193,0.30153 0,0.17676 0.12477,0.30153 0.30153,0.30153 0.17676,0 0.31193,-0.10398 0.31193,-0.31193 0,-0.44709 -0.50948,-0.70703 -1.01896,-0.70703 -0.83181,0 -1.434866,0.71743 -1.434866,1.53884 0,0.8526 0.655046,1.50764 1.424466,1.50764 0.88379,0 1.10214,-0.80061 1.10214,-0.863 0,-0.0624 -0.0728,-0.0624 -0.0936,-0.0624 -0.052,0 -0.0728,0.0208 -0.0832,0.0624 -0.18715,0.61346 -0.62385,0.69664 -0.86299,0.69664 -0.35352,0 -0.93578,-0.28073 -0.93578,-1.35168 z m 0,0"
         id="id-c78b27d5-cdb9-4a62-8b87-c7d5ecaba70b"
         style="fill:#000000;fill-opacity:1;stroke-width:0.665444" />
      <path
         d="m 103.06448,156.35574 c 0,0.29113 -0.0728,0.29113 -0.51988,0.29113 v 0.20795 c 0.23915,-0.0104 0.57187,-0.0208 0.75902,-0.0208 0.16636,0 0.50948,0.0104 0.73823,0.0208 v -0.20795 c -0.44709,0 -0.51988,0 -0.51988,-0.29113 v -1.22692 c 0,-0.68624 0.47829,-1.06055 0.89419,-1.06055 0.4263,0 0.49909,0.35352 0.49909,0.73823 v 1.54924 c 0,0.29113 -0.0728,0.29113 -0.51988,0.29113 v 0.20795 c 0.22874,-0.0104 0.57186,-0.0208 0.74862,-0.0208 0.16636,0 0.51988,0.0104 0.73823,0.0208 v -0.20795 c -0.34312,0 -0.50948,0 -0.50948,-0.19756 v -1.2685 c 0,-0.57186 0,-0.76942 -0.20795,-1.00856 -0.0936,-0.11438 -0.31193,-0.24954 -0.69664,-0.24954 -0.56147,0 -0.8526,0.3951 -0.96697,0.65504 v -2.32905 l -0.95658,0.0728 v 0.20795 c 0.46789,0 0.51988,0.0416 0.51988,0.37431 z m 0,0"
         id="id-7d8ecdb1-4f74-47e0-b020-3f7144282946"
         style="fill:#000000;fill-opacity:1;stroke-width:0.665444" />
      <path
         d="m 107.1948,153.92271 -0.92538,0.0728 v 0.20795 c 0.4263,0 0.48869,0.0416 0.48869,0.36392 v 1.78838 c 0,0.29113 -0.0728,0.29113 -0.51988,0.29113 v 0.20795 c 0.20795,-0.0104 0.57187,-0.0208 0.72783,-0.0208 0.23914,0 0.46789,0.0104 0.69664,0.0208 v -0.20795 c -0.4471,0 -0.4679,-0.0312 -0.4679,-0.29113 z m 0.0208,-1.15413 c 0,-0.20795 -0.15596,-0.35352 -0.34312,-0.35352 -0.20795,0 -0.35352,0.17676 -0.35352,0.35352 0,0.17676 0.14557,0.35351 0.35352,0.35351 0.18716,0 0.34312,-0.14556 0.34312,-0.35351 z m 0,0"
         id="id-5b5909a9-882c-4277-ac7f-b37ef21060b9"
         style="fill:#000000;fill-opacity:1;stroke-width:0.665444" />
      <path
         d="m 108.58966,154.57775 v 1.77799 c 0,0.29113 -0.0728,0.29113 -0.51988,0.29113 v 0.20795 c 0.23915,-0.0104 0.57187,-0.0208 0.75902,-0.0208 0.16636,0 0.50948,0.0104 0.73823,0.0208 v -0.20795 c -0.44709,0 -0.51988,0 -0.51988,-0.29113 v -1.22692 c 0,-0.68624 0.47829,-1.06055 0.89419,-1.06055 0.4263,0 0.49909,0.35352 0.49909,0.73823 v 1.54924 c 0,0.29113 -0.0728,0.29113 -0.51988,0.29113 v 0.20795 c 0.22874,-0.0104 0.57186,-0.0208 0.74862,-0.0208 0.16636,0 0.51988,0.0104 0.73823,0.0208 v -0.20795 c -0.34312,0 -0.50948,0 -0.50948,-0.19756 v -1.2685 c 0,-0.57186 0,-0.76942 -0.20795,-1.00856 -0.0936,-0.11438 -0.31193,-0.24954 -0.69664,-0.24954 -0.48868,0 -0.80061,0.28073 -0.98777,0.69663 v -0.69663 l -0.93578,0.0728 v 0.20795 c 0.46789,0 0.51988,0.0416 0.51988,0.37431 z m 0,0"
         id="id-71df359c-ace1-4c63-b3d5-785e4627f8fd"
         style="fill:#000000;fill-opacity:1;stroke-width:0.665444" />
      <path
         d="m 113.02152,155.71109 c -0.58226,0 -0.58226,-0.66545 -0.58226,-0.81101 0,-0.17676 0.0104,-0.39511 0.10398,-0.56147 0.052,-0.0728 0.20795,-0.25994 0.47828,-0.25994 0.57187,0 0.57187,0.65505 0.57187,0.81101 0,0.17676 0,0.39511 -0.10398,0.56147 -0.052,0.0728 -0.20795,0.25994 -0.46789,0.25994 z m -0.76942,0.25994 c 0,-0.0208 0,-0.17676 0.10398,-0.31193 0.25994,0.18716 0.54067,0.20795 0.66544,0.20795 0.61346,0 1.07095,-0.45749 1.07095,-0.96697 0,-0.24954 -0.10397,-0.48869 -0.27033,-0.64465 0.23914,-0.22875 0.47829,-0.25994 0.59266,-0.25994 0.0208,0 0.052,0 0.0728,0.0104 -0.0728,0.0208 -0.11437,0.0936 -0.11437,0.17676 0,0.11437 0.0936,0.18715 0.19755,0.18715 0.0624,0 0.18716,-0.0416 0.18716,-0.19755 0,-0.11438 -0.0728,-0.32233 -0.33272,-0.32233 -0.13517,0 -0.4263,0.0416 -0.70704,0.31193 -0.28073,-0.21835 -0.55107,-0.23914 -0.69664,-0.23914 -0.62385,0 -1.08134,0.45749 -1.08134,0.96697 0,0.29113 0.14556,0.54067 0.31192,0.68624 -0.0832,0.0936 -0.20795,0.31193 -0.20795,0.55107 0,0.20795 0.0936,0.45749 0.30153,0.59266 -0.4055,0.10398 -0.61345,0.39511 -0.61345,0.65505 0,0.47829 0.65504,0.8422 1.46605,0.8422 0.77982,0 1.46606,-0.33272 1.46606,-0.8526 0,-0.22875 -0.0832,-0.57187 -0.4263,-0.75902 -0.35352,-0.17676 -0.73823,-0.17676 -1.14373,-0.17676 -0.16636,0 -0.4471,0 -0.49909,-0.0104 -0.20795,-0.0312 -0.34312,-0.22874 -0.34312,-0.44709 z m 0.95658,2.10031 c -0.67584,0 -1.13333,-0.34312 -1.13333,-0.69664 0,-0.30153 0.24954,-0.55107 0.54067,-0.56147 h 0.39511 c 0.57186,0 1.31009,0 1.31009,0.56147 0,0.36391 -0.46789,0.69664 -1.11254,0.69664 z m 0,0"
         id="id-8900f75b-2ece-45b8-a0a9-ffc29af79f0f"
         style="fill:#000000;fill-opacity:1;stroke-width:0.665444" />
      <path
         d="m 118.23212,153.99549 v -0.76942 c 0,-0.58226 0.31192,-0.90459 0.60306,-0.90459 0.0208,0 0.12477,0 0.21835,0.052 -0.0728,0.0208 -0.19756,0.11437 -0.19756,0.28073 0,0.14557 0.10398,0.28074 0.29113,0.28074 0.18716,0 0.29114,-0.13517 0.29114,-0.29113 0,-0.24955 -0.24955,-0.46789 -0.60306,-0.46789 -0.4575,0 -1.02936,0.35351 -1.02936,1.06055 v 0.75902 h -0.51988 v 0.20795 h 0.51988 v 2.1523 c 0,0.29113 -0.0728,0.29113 -0.50948,0.29113 v 0.20795 c 0.25994,-0.0104 0.57186,-0.0208 0.74862,-0.0208 0.27034,0 0.58226,0 0.8422,0.0208 v -0.20795 H 118.752 c -0.48869,0 -0.49909,-0.0728 -0.49909,-0.31193 v -2.1315 h 0.74863 v -0.20795 z m 0,0"
         id="id-88ea3dfd-912a-4da9-8bd3-43b170191eb7"
         style="fill:#000000;fill-opacity:1;stroke-width:0.665444" />
      <path
         d="m 120.20641,154.65054 v -0.72783 l -0.92538,0.0728 v 0.20795 c 0.46789,0 0.51987,0.0416 0.51987,0.37431 v 1.77799 c 0,0.29113 -0.0728,0.29113 -0.51987,0.29113 v 0.20795 c 0.25994,-0.0104 0.57186,-0.0208 0.75902,-0.0208 0.25994,0 0.57186,0 0.8422,0.0208 v -0.20795 h -0.14556 c -0.48869,0 -0.49909,-0.0728 -0.49909,-0.31193 V 155.316 c 0,-0.65505 0.28074,-1.24771 0.77982,-1.24771 0.0416,0 0.0624,0 0.0728,0.0104 -0.0208,0 -0.15596,0.0832 -0.15596,0.25994 0,0.17676 0.14557,0.28073 0.29113,0.28073 0.11437,0 0.28074,-0.0832 0.28074,-0.29113 0,-0.20795 -0.20796,-0.4055 -0.48869,-0.4055 -0.48869,0 -0.72783,0.44709 -0.81101,0.72783 z m 0,0"
         id="id-0e56bbc6-b727-47c3-a5a1-316ab4ef8468"
         style="fill:#000000;fill-opacity:1;stroke-width:0.665444" />
      <path
         d="m 124.8097,155.43035 c 0,-0.8422 -0.65505,-1.54923 -1.45566,-1.54923 -0.8318,0 -1.47645,0.72783 -1.47645,1.54923 0,0.863 0.68624,1.49725 1.46605,1.49725 0.80062,0 1.46606,-0.65504 1.46606,-1.49725 z m -1.45566,1.33089 c -0.29113,0 -0.58226,-0.13517 -0.75902,-0.44709 -0.16636,-0.29114 -0.16636,-0.69664 -0.16636,-0.93578 0,-0.25994 0,-0.61346 0.15596,-0.90459 0.17676,-0.30153 0.48869,-0.4471 0.75902,-0.4471 0.29113,0 0.57187,0.14557 0.74863,0.4367 0.17676,0.28073 0.17676,0.66544 0.17676,0.91499 0,0.23914 0,0.60305 -0.14557,0.89419 -0.15596,0.30153 -0.44709,0.48868 -0.76942,0.48868 z m 0,0"
         id="id-468a6e78-fc79-4e94-96ad-b6bd88f7e0cb"
         style="fill:#000000;fill-opacity:1;stroke-width:0.665444" />
      <path
         d="m 125.73284,154.57775 v 1.77799 c 0,0.29113 -0.0728,0.29113 -0.51988,0.29113 v 0.20795 c 0.23915,-0.0104 0.57187,-0.0208 0.75902,-0.0208 0.16636,0 0.50948,0.0104 0.73823,0.0208 v -0.20795 c -0.44709,0 -0.51988,0 -0.51988,-0.29113 v -1.22692 c 0,-0.68624 0.47829,-1.06055 0.89419,-1.06055 0.4263,0 0.49909,0.35352 0.49909,0.73823 v 1.54924 c 0,0.29113 -0.0728,0.29113 -0.51988,0.29113 v 0.20795 c 0.22874,-0.0104 0.57186,-0.0208 0.74862,-0.0208 0.16636,0 0.51988,0.0104 0.73823,0.0208 v -0.20795 c -0.4367,0 -0.50948,0 -0.50948,-0.29113 v -1.22692 c 0,-0.68624 0.46789,-1.06055 0.89419,-1.06055 0.4159,0 0.48869,0.35352 0.48869,0.73823 v 1.54924 c 0,0.29113 -0.0728,0.29113 -0.51988,0.29113 v 0.20795 c 0.22874,-0.0104 0.57186,-0.0208 0.74862,-0.0208 0.17676,0 0.51988,0.0104 0.74863,0.0208 v -0.20795 c -0.34312,0 -0.50948,0 -0.51988,-0.19756 v -1.2685 c 0,-0.57186 0,-0.76942 -0.20795,-1.00856 -0.0936,-0.11438 -0.31193,-0.24954 -0.69664,-0.24954 -0.55107,0 -0.8526,0.3951 -0.95658,0.65504 -0.0936,-0.58226 -0.58226,-0.65504 -0.88379,-0.65504 -0.48868,0 -0.80061,0.28073 -0.98777,0.69663 v -0.69663 l -0.93578,0.0728 v 0.20795 c 0.46789,0 0.51988,0.0416 0.51988,0.37431 z m 0,0"
         id="id-0b9809c9-25f6-4a92-9f88-7e35a69ecfe1"
         style="fill:#000000;fill-opacity:1;stroke-width:0.665444" />
      <path
         d="m 133.88785,154.20344 h 0.95658 v -0.20795 h -0.95658 v -1.21652 h -0.16636 c 0,0.54068 -0.19755,1.24771 -0.8526,1.2789 v 0.14557 h 0.56147 v 1.82997 c 0,0.81101 0.62385,0.89419 0.863,0.89419 0.46789,0 0.65504,-0.46789 0.65504,-0.89419 v -0.37431 h -0.16636 v 0.36391 c 0,0.48869 -0.19755,0.73823 -0.44709,0.73823 -0.4471,0 -0.4471,-0.60306 -0.4471,-0.71743 z m 0,0"
         id="id-3801b3b6-15ff-4a0f-b4c9-cf1d19861b3f"
         style="fill:#000000;fill-opacity:1;stroke-width:0.665444" />
      <path
         d="m 136.04989,156.35574 c 0,0.29113 -0.0728,0.29113 -0.51988,0.29113 v 0.20795 c 0.23915,-0.0104 0.57187,-0.0208 0.75902,-0.0208 0.16636,0 0.50948,0.0104 0.73823,0.0208 v -0.20795 c -0.44709,0 -0.51988,0 -0.51988,-0.29113 v -1.22692 c 0,-0.68624 0.47829,-1.06055 0.89419,-1.06055 0.4263,0 0.49909,0.35352 0.49909,0.73823 v 1.54924 c 0,0.29113 -0.0728,0.29113 -0.51988,0.29113 v 0.20795 c 0.22874,-0.0104 0.57186,-0.0208 0.74862,-0.0208 0.16636,0 0.51988,0.0104 0.73823,0.0208 v -0.20795 c -0.34312,0 -0.50948,0 -0.50948,-0.19756 v -1.2685 c 0,-0.57186 0,-0.76942 -0.20795,-1.00856 -0.0936,-0.11438 -0.31193,-0.24954 -0.69664,-0.24954 -0.56147,0 -0.8526,0.3951 -0.96697,0.65504 v -2.32905 l -0.95658,0.0728 v 0.20795 c 0.46789,0 0.51988,0.0416 0.51988,0.37431 z m 0,0"
         id="id-8068ae3c-8fd6-4976-9881-d3effa75bd49"
         style="fill:#000000;fill-opacity:1;stroke-width:0.665444" />
      <path
         d="m 139.74352,155.18081 c 0.0416,-0.98777 0.60306,-1.15413 0.8318,-1.15413 0.67584,0 0.74863,0.89419 0.74863,1.15413 z m 0,0.14557 h 1.85076 c 0.14557,0 0.16637,0 0.16637,-0.14557 0,-0.65504 -0.36392,-1.29969 -1.18533,-1.29969 -0.76942,0 -1.38287,0.68624 -1.38287,1.51804 0,0.88379 0.69663,1.52844 1.45566,1.52844 0.81101,0 1.11254,-0.73822 1.11254,-0.863 0,-0.0624 -0.052,-0.0832 -0.0936,-0.0832 -0.052,0 -0.0728,0.0416 -0.0832,0.0936 -0.22875,0.68624 -0.83181,0.68624 -0.89419,0.68624 -0.33273,0 -0.59267,-0.19755 -0.74863,-0.44709 -0.19755,-0.31193 -0.19755,-0.74863 -0.19755,-0.98777 z m 0,0"
         id="id-5ff97fd6-fb62-46bd-9463-039350af00d3"
         style="fill:#000000;fill-opacity:1;stroke-width:0.665444" />
      <path
         d="m 145.33408,152.2487 -0.95657,0.0728 v 0.20795 c 0.46789,0 0.51988,0.0416 0.51988,0.37431 v 3.452 c 0,0.29113 -0.0728,0.29113 -0.51988,0.29113 v 0.20795 c 0.21835,-0.0104 0.57187,-0.0208 0.73823,-0.0208 0.16636,0 0.48868,0.0104 0.73822,0.0208 v -0.20795 c -0.44709,0 -0.51988,0 -0.51988,-0.29113 z m 0,0"
         id="id-9558f8c5-2413-47ca-9903-9078a4cc2e7c"
         style="fill:#000000;fill-opacity:1;stroke-width:0.665444" />
      <path
         d="m 146.73933,155.18081 c 0.0416,-0.98777 0.60306,-1.15413 0.8318,-1.15413 0.67584,0 0.74863,0.89419 0.74863,1.15413 z m 0,0.14557 h 1.85076 c 0.14557,0 0.16637,0 0.16637,-0.14557 0,-0.65504 -0.36392,-1.29969 -1.18533,-1.29969 -0.76942,0 -1.38287,0.68624 -1.38287,1.51804 0,0.88379 0.69663,1.52844 1.45566,1.52844 0.81101,0 1.11254,-0.73822 1.11254,-0.863 0,-0.0624 -0.052,-0.0832 -0.0936,-0.0832 -0.052,0 -0.0728,0.0416 -0.0832,0.0936 -0.22875,0.68624 -0.83181,0.68624 -0.89419,0.68624 -0.33273,0 -0.59267,-0.19755 -0.74863,-0.44709 -0.19755,-0.31193 -0.19755,-0.74863 -0.19755,-0.98777 z m 0,0"
         id="id-804cade0-fcb1-4bc3-b071-3ccea23ed7b7"
         style="fill:#000000;fill-opacity:1;stroke-width:0.665444" />
      <path
         d="m 150.11156,153.99549 v -0.76942 c 0,-0.58226 0.31192,-0.90459 0.60306,-0.90459 0.0208,0 0.12477,0 0.21835,0.052 -0.0728,0.0208 -0.19756,0.11437 -0.19756,0.28073 0,0.14557 0.10398,0.28074 0.29113,0.28074 0.18716,0 0.29114,-0.13517 0.29114,-0.29113 0,-0.24955 -0.24955,-0.46789 -0.60306,-0.46789 -0.4575,0 -1.02936,0.35351 -1.02936,1.06055 v 0.75902 h -0.51988 v 0.20795 h 0.51988 v 2.1523 c 0,0.29113 -0.0728,0.29113 -0.50948,0.29113 v 0.20795 c 0.25994,-0.0104 0.57186,-0.0208 0.74862,-0.0208 0.27034,0 0.58226,0 0.8422,0.0208 v -0.20795 h -0.13516 c -0.48869,0 -0.49909,-0.0728 -0.49909,-0.31193 v -2.1315 h 0.74863 v -0.20795 z m 0,0"
         id="id-3554393f-283d-4e7d-bcb4-e55cfc8f1e4c"
         style="fill:#000000;fill-opacity:1;stroke-width:0.665444" />
      <path
         d="m 152.11703,154.20344 h 0.95658 v -0.20795 h -0.95658 v -1.21652 h -0.16636 c 0,0.54068 -0.19755,1.24771 -0.8526,1.2789 v 0.14557 h 0.56147 v 1.82997 c 0,0.81101 0.62385,0.89419 0.863,0.89419 0.46789,0 0.65504,-0.46789 0.65504,-0.89419 v -0.37431 h -0.16636 v 0.36391 c 0,0.48869 -0.19755,0.73823 -0.44709,0.73823 -0.4471,0 -0.4471,-0.60306 -0.4471,-0.71743 z m 0,0"
         id="id-5ea629ee-9154-45d4-98a1-8328186df0ea"
         style="fill:#000000;fill-opacity:1;stroke-width:0.665444" />
    </g>
    <g
       id="g59"
       transform="translate(-48.34918,-35.849494)">
      <g
         fill="#000000"
         fill-opacity="1"
         id="id-f71291fb-037e-4a1c-9c24-9b680c63c6fa"
         transform="matrix(0.66544424,0,0,0.66544424,-52.361834,67.176228)">
        <g
           transform="translate(312.755,134.765)"
           id="g30">
          <path
             d="m 3.3125,-0.75 c 0.046875,0.390625 0.3125,0.8125 0.78125,0.8125 0.21875,0 0.828125,-0.140625 0.828125,-0.953125 v -0.5625 h -0.25 v 0.5625 c 0,0.578125 -0.25,0.640625 -0.359375,0.640625 -0.328125,0 -0.375,-0.453125 -0.375,-0.5 v -1.984375 c 0,-0.421875 0,-0.8125 -0.359375,-1.1875 C 3.1875,-4.3125 2.6875,-4.46875 2.21875,-4.46875 c -0.828125,0 -1.515625,0.46875 -1.515625,1.125 0,0.296875 0.203125,0.46875 0.46875,0.46875 0.28125,0 0.453125,-0.203125 0.453125,-0.453125 0,-0.125 -0.046875,-0.453125 -0.515625,-0.453125 C 1.390625,-4.140625 1.875,-4.25 2.1875,-4.25 c 0.5,0 1.0625,0.390625 1.0625,1.28125 v 0.359375 c -0.515625,0.03125 -1.203125,0.0625 -1.828125,0.359375 -0.75,0.34375 -1,0.859375 -1,1.296875 0,0.8125 0.96875,1.0625 1.59375,1.0625 0.65625,0 1.109375,-0.40625 1.296875,-0.859375 z M 3.25,-2.390625 v 1 c 0,0.9375 -0.71875,1.28125 -1.171875,1.28125 -0.484375,0 -0.890625,-0.34375 -0.890625,-0.84375 0,-0.546875 0.421875,-1.375 2.0625,-1.4375 z m 0,0"
             id="id-6484e013-777c-4fe7-bf04-196245d1b716" />
        </g>
        <g
           transform="translate(317.736,134.765)"
           id="g31">
          <path
             d="m 1.71875,-3.75 v -0.65625 l -1.4375,0.109375 v 0.3125 c 0.703125,0 0.78125,0.0625 0.78125,0.5 v 4.65625 C 1.0625,1.625 0.953125,1.625 0.28125,1.625 V 1.9375 C 0.625,1.921875 1.140625,1.90625 1.390625,1.90625 c 0.28125,0 0.78125,0.015625 1.125,0.03125 V 1.625 C 1.859375,1.625 1.75,1.625 1.75,1.171875 V -0.59375 c 0.046875,0.171875 0.46875,0.703125 1.21875,0.703125 1.1875,0 2.21875,-0.984375 2.21875,-2.265625 0,-1.265625 -0.953125,-2.25 -2.078125,-2.25 -0.78125,0 -1.203125,0.4375 -1.390625,0.65625 z M 1.75,-1.140625 v -2.21875 C 2.03125,-3.875 2.515625,-4.15625 3.03125,-4.15625 c 0.734375,0 1.328125,0.875 1.328125,2 0,1.203125 -0.6875,2.046875 -1.421875,2.046875 -0.40625,0 -0.78125,-0.203125 -1.046875,-0.609375 C 1.75,-0.921875 1.75,-0.9375 1.75,-1.140625 Z m 0,0"
             id="id-83841d05-a387-4c4f-a0b6-2fb31d7835b6" />
        </g>
        <g
           transform="translate(323.271,134.765)"
           id="g32">
          <path
             d="m 1.71875,-3.75 v -0.65625 l -1.4375,0.109375 v 0.3125 c 0.703125,0 0.78125,0.0625 0.78125,0.5 v 4.65625 C 1.0625,1.625 0.953125,1.625 0.28125,1.625 V 1.9375 C 0.625,1.921875 1.140625,1.90625 1.390625,1.90625 c 0.28125,0 0.78125,0.015625 1.125,0.03125 V 1.625 C 1.859375,1.625 1.75,1.625 1.75,1.171875 V -0.59375 c 0.046875,0.171875 0.46875,0.703125 1.21875,0.703125 1.1875,0 2.21875,-0.984375 2.21875,-2.265625 0,-1.265625 -0.953125,-2.25 -2.078125,-2.25 -0.78125,0 -1.203125,0.4375 -1.390625,0.65625 z M 1.75,-1.140625 v -2.21875 C 2.03125,-3.875 2.515625,-4.15625 3.03125,-4.15625 c 0.734375,0 1.328125,0.875 1.328125,2 0,1.203125 -0.6875,2.046875 -1.421875,2.046875 -0.40625,0 -0.78125,-0.203125 -1.046875,-0.609375 C 1.75,-0.921875 1.75,-0.9375 1.75,-1.140625 Z m 0,0"
             id="id-5e1c1b0d-b8cb-4ab2-8f5d-df22acd39dc6" />
        </g>
        <g
           transform="translate(328.806,134.765)"
           id="g33">
          <path
             d="M 1.671875,-3.3125 V -4.40625 L 0.28125,-4.296875 v 0.3125 c 0.703125,0 0.78125,0.0625 0.78125,0.5625 V -0.75 c 0,0.4375 -0.109375,0.4375 -0.78125,0.4375 V 0 c 0.390625,-0.015625 0.859375,-0.03125 1.140625,-0.03125 0.390625,0 0.859375,0 1.265625,0.03125 V -0.3125 H 2.46875 c -0.734375,0 -0.75,-0.109375 -0.75,-0.46875 V -2.3125 c 0,-0.984375 0.421875,-1.875 1.171875,-1.875 0.0625,0 0.09375,0 0.109375,0.015625 -0.03125,0 -0.234375,0.125 -0.234375,0.390625 0,0.265625 0.21875,0.421875 0.4375,0.421875 0.171875,0 0.421875,-0.125 0.421875,-0.4375 0,-0.3125 -0.3125,-0.609375 -0.734375,-0.609375 -0.734375,0 -1.09375,0.671875 -1.21875,1.09375 z m 0,0"
             id="id-c892d54d-9770-4d9a-87cb-2cf62f22c72b" />
        </g>
        <g
           transform="translate(332.709,134.765)"
           id="g34">
          <path
             d="M 4.6875,-2.140625 C 4.6875,-3.40625 3.703125,-4.46875 2.5,-4.46875 c -1.25,0 -2.21875,1.09375 -2.21875,2.328125 0,1.296875 1.03125,2.25 2.203125,2.25 1.203125,0 2.203125,-0.984375 2.203125,-2.25 z m -2.1875,2 c -0.4375,0 -0.875,-0.203125 -1.140625,-0.671875 -0.25,-0.4375 -0.25,-1.046875 -0.25,-1.40625 0,-0.390625 0,-0.921875 0.234375,-1.359375 C 1.609375,-4.03125 2.078125,-4.25 2.484375,-4.25 c 0.4375,0 0.859375,0.21875 1.125,0.65625 0.265625,0.421875 0.265625,1 0.265625,1.375 0,0.359375 0,0.90625 -0.21875,1.34375 C 3.421875,-0.421875 2.984375,-0.140625 2.5,-0.140625 Z m 0,0"
             id="id-1aa06ccb-98df-4e25-b3d1-30bdb595f16f" />
        </g>
        <g
           transform="translate(337.69,134.765)"
           id="g35">
          <path
             d="m 3.3125,-0.75 c 0.046875,0.390625 0.3125,0.8125 0.78125,0.8125 0.21875,0 0.828125,-0.140625 0.828125,-0.953125 v -0.5625 h -0.25 v 0.5625 c 0,0.578125 -0.25,0.640625 -0.359375,0.640625 -0.328125,0 -0.375,-0.453125 -0.375,-0.5 v -1.984375 c 0,-0.421875 0,-0.8125 -0.359375,-1.1875 C 3.1875,-4.3125 2.6875,-4.46875 2.21875,-4.46875 c -0.828125,0 -1.515625,0.46875 -1.515625,1.125 0,0.296875 0.203125,0.46875 0.46875,0.46875 0.28125,0 0.453125,-0.203125 0.453125,-0.453125 0,-0.125 -0.046875,-0.453125 -0.515625,-0.453125 C 1.390625,-4.140625 1.875,-4.25 2.1875,-4.25 c 0.5,0 1.0625,0.390625 1.0625,1.28125 v 0.359375 c -0.515625,0.03125 -1.203125,0.0625 -1.828125,0.359375 -0.75,0.34375 -1,0.859375 -1,1.296875 0,0.8125 0.96875,1.0625 1.59375,1.0625 0.65625,0 1.109375,-0.40625 1.296875,-0.859375 z M 3.25,-2.390625 v 1 c 0,0.9375 -0.71875,1.28125 -1.171875,1.28125 -0.484375,0 -0.890625,-0.34375 -0.890625,-0.84375 0,-0.546875 0.421875,-1.375 2.0625,-1.4375 z m 0,0"
             id="id-6314e5f4-95bf-4b92-9b5c-e7d3cf5c2d26" />
        </g>
        <g
           transform="translate(342.671,134.765)"
           id="g36">
          <path
             d="m 1.171875,-2.171875 c 0,-1.625 0.8125,-2.046875 1.34375,-2.046875 0.09375,0 0.71875,0.015625 1.0625,0.375 -0.40625,0.03125 -0.46875,0.328125 -0.46875,0.453125 0,0.265625 0.1875,0.453125 0.453125,0.453125 0.265625,0 0.46875,-0.15625 0.46875,-0.46875 0,-0.671875 -0.765625,-1.0625 -1.53125,-1.0625 -1.25,0 -2.15625,1.078125 -2.15625,2.3125 0,1.28125 0.984375,2.265625 2.140625,2.265625 1.328125,0 1.65625,-1.203125 1.65625,-1.296875 0,-0.09375 -0.109375,-0.09375 -0.140625,-0.09375 -0.078125,0 -0.109375,0.03125 -0.125,0.09375 -0.28125,0.921875 -0.9375,1.046875 -1.296875,1.046875 -0.53125,0 -1.40625,-0.421875 -1.40625,-2.03125 z m 0,0"
             id="id-bbcb4ea4-138e-41e2-a219-bc988c1d441e" />
        </g>
      </g>
      <g
         fill="#000000"
         fill-opacity="1"
         id="id-9f5a7e0d-26f8-4a4f-a658-511499cdb510"
         transform="matrix(0.66544424,0,0,0.66544424,-52.361834,67.176228)">
        <g
           transform="translate(346.83,134.765)"
           id="g37">
          <path
             d="m 1.09375,-0.75 c 0,0.4375 -0.109375,0.4375 -0.78125,0.4375 V 0 c 0.359375,-0.015625 0.859375,-0.03125 1.140625,-0.03125 0.25,0 0.765625,0.015625 1.109375,0.03125 v -0.3125 c -0.671875,0 -0.78125,0 -0.78125,-0.4375 V -2.59375 C 1.78125,-3.625 2.5,-4.1875 3.125,-4.1875 c 0.640625,0 0.75,0.53125 0.75,1.109375 V -0.75 c 0,0.4375 -0.109375,0.4375 -0.78125,0.4375 V 0 c 0.34375,-0.015625 0.859375,-0.03125 1.125,-0.03125 0.25,0 0.78125,0.015625 1.109375,0.03125 v -0.3125 c -0.515625,0 -0.765625,0 -0.765625,-0.296875 v -1.90625 c 0,-0.859375 0,-1.15625 -0.3125,-1.515625 -0.140625,-0.171875 -0.46875,-0.375 -1.046875,-0.375 -0.84375,0 -1.28125,0.59375 -1.453125,0.984375 v -3.5 L 0.3125,-6.8125 V -6.5 c 0.703125,0 0.78125,0.0625 0.78125,0.5625 z m 0,0"
             id="id-17fc404b-219a-40f8-82c1-928ba0cefb3e" />
        </g>
      </g>
      <g
         fill="#000000"
         fill-opacity="1"
         id="id-925dc911-fada-4d2a-917c-d9f9c2e0b744"
         transform="matrix(0.66544424,0,0,0.66544424,-52.361834,67.176228)">
        <g
           transform="translate(352.355,134.765)"
           id="g38">
          <path
             d="M 1.765625,-4.40625 0.375,-4.296875 v 0.3125 c 0.640625,0 0.734375,0.0625 0.734375,0.546875 V -0.75 c 0,0.4375 -0.109375,0.4375 -0.78125,0.4375 V 0 C 0.640625,-0.015625 1.1875,-0.03125 1.421875,-0.03125 1.78125,-0.03125 2.125,-0.015625 2.46875,0 v -0.3125 c -0.671875,0 -0.703125,-0.046875 -0.703125,-0.4375 z m 0.03125,-1.734375 c 0,-0.3125 -0.234375,-0.53125 -0.515625,-0.53125 -0.3125,0 -0.53125,0.265625 -0.53125,0.53125 0,0.265625 0.21875,0.53125 0.53125,0.53125 0.28125,0 0.515625,-0.21875 0.515625,-0.53125 z m 0,0"
             id="id-9f9835e2-f282-4db6-85b3-e532e8285378" />
        </g>
        <g
           transform="translate(355.123,134.765)"
           id="g39">
          <path
             d="M 1.09375,-3.421875 V -0.75 c 0,0.4375 -0.109375,0.4375 -0.78125,0.4375 V 0 c 0.359375,-0.015625 0.859375,-0.03125 1.140625,-0.03125 0.25,0 0.765625,0.015625 1.109375,0.03125 v -0.3125 c -0.671875,0 -0.78125,0 -0.78125,-0.4375 V -2.59375 C 1.78125,-3.625 2.5,-4.1875 3.125,-4.1875 c 0.640625,0 0.75,0.53125 0.75,1.109375 V -0.75 c 0,0.4375 -0.109375,0.4375 -0.78125,0.4375 V 0 c 0.34375,-0.015625 0.859375,-0.03125 1.125,-0.03125 0.25,0 0.78125,0.015625 1.109375,0.03125 v -0.3125 c -0.515625,0 -0.765625,0 -0.765625,-0.296875 v -1.90625 c 0,-0.859375 0,-1.15625 -0.3125,-1.515625 -0.140625,-0.171875 -0.46875,-0.375 -1.046875,-0.375 C 2.46875,-4.40625 2,-3.984375 1.71875,-3.359375 V -4.40625 L 0.3125,-4.296875 v 0.3125 c 0.703125,0 0.78125,0.0625 0.78125,0.5625 z m 0,0"
             id="id-d65829e1-6958-4b8b-af4a-179d1dc64cd6" />
        </g>
        <g
           transform="translate(360.658,134.765)"
           id="g40">
          <path
             d="m 2.21875,-1.71875 c -0.875,0 -0.875,-1 -0.875,-1.21875 0,-0.265625 0.015625,-0.59375 0.15625,-0.84375 0.078125,-0.109375 0.3125,-0.390625 0.71875,-0.390625 0.859375,0 0.859375,0.984375 0.859375,1.21875 0,0.265625 0,0.59375 -0.15625,0.84375 C 2.84375,-2 2.609375,-1.71875 2.21875,-1.71875 Z M 1.0625,-1.328125 c 0,-0.03125 0,-0.265625 0.15625,-0.46875 0.390625,0.28125 0.8125,0.3125 1,0.3125 0.921875,0 1.609375,-0.6875 1.609375,-1.453125 0,-0.375 -0.15625,-0.734375 -0.40625,-0.96875 C 3.78125,-4.25 4.140625,-4.296875 4.3125,-4.296875 c 0.03125,0 0.078125,0 0.109375,0.015625 C 4.3125,-4.25 4.25,-4.140625 4.25,-4.015625 c 0,0.171875 0.140625,0.28125 0.296875,0.28125 0.09375,0 0.28125,-0.0625 0.28125,-0.296875 0,-0.171875 -0.109375,-0.484375 -0.5,-0.484375 -0.203125,0 -0.640625,0.0625 -1.0625,0.46875 C 2.84375,-4.375 2.4375,-4.40625 2.21875,-4.40625 c -0.9375,0 -1.625,0.6875 -1.625,1.453125 0,0.4375 0.21875,0.8125 0.46875,1.03125 -0.125,0.140625 -0.3125,0.46875 -0.3125,0.828125 0,0.3125 0.140625,0.6875 0.453125,0.890625 -0.609375,0.15625 -0.921875,0.59375 -0.921875,0.984375 0,0.71875 0.984375,1.265625 2.203125,1.265625 1.171875,0 2.203125,-0.5 2.203125,-1.28125 0,-0.34375 -0.125,-0.859375 -0.640625,-1.140625 -0.53125,-0.265625 -1.109375,-0.265625 -1.71875,-0.265625 -0.25,0 -0.671875,0 -0.75,-0.015625 C 1.265625,-0.703125 1.0625,-1 1.0625,-1.328125 Z M 2.5,1.828125 c -1.015625,0 -1.703125,-0.515625 -1.703125,-1.046875 0,-0.453125 0.375,-0.828125 0.8125,-0.84375 h 0.59375 c 0.859375,0 1.96875,0 1.96875,0.84375 0,0.546875 -0.703125,1.046875 -1.671875,1.046875 z m 0,0"
             id="id-120100c7-151e-42ed-92ef-79ebabf5ab08" />
        </g>
      </g>
      <g
         fill="#000000"
         fill-opacity="1"
         id="id-35a1694e-b00b-4a6b-a756-55e11b7e73d2"
         transform="matrix(0.66544424,0,0,0.66544424,-52.361834,67.176228)">
        <g
           transform="translate(368.967,134.765)"
           id="g41">
          <path
             d="m 1.75,-4.296875 v -1.15625 c 0,-0.875 0.46875,-1.359375 0.90625,-1.359375 0.03125,0 0.1875,0 0.328125,0.078125 C 2.875,-6.703125 2.6875,-6.5625 2.6875,-6.3125 c 0,0.21875 0.15625,0.421875 0.4375,0.421875 0.28125,0 0.4375,-0.203125 0.4375,-0.4375 0,-0.375 -0.375,-0.703125 -0.90625,-0.703125 -0.6875,0 -1.546875,0.53125 -1.546875,1.59375 v 1.140625 h -0.78125 v 0.3125 h 0.78125 V -0.75 C 1.109375,-0.3125 1,-0.3125 0.34375,-0.3125 V 0 c 0.390625,-0.015625 0.859375,-0.03125 1.125,-0.03125 0.40625,0 0.875,0 1.265625,0.03125 V -0.3125 H 2.53125 c -0.734375,0 -0.75,-0.109375 -0.75,-0.46875 v -3.203125 h 1.125 v -0.3125 z m 0,0"
             id="id-24ae3e91-1812-4201-ac3e-a3cfe1d9742c" />
        </g>
        <g
           transform="translate(372.011,134.765)"
           id="g42">
          <path
             d="M 1.671875,-3.3125 V -4.40625 L 0.28125,-4.296875 v 0.3125 c 0.703125,0 0.78125,0.0625 0.78125,0.5625 V -0.75 c 0,0.4375 -0.109375,0.4375 -0.78125,0.4375 V 0 c 0.390625,-0.015625 0.859375,-0.03125 1.140625,-0.03125 0.390625,0 0.859375,0 1.265625,0.03125 V -0.3125 H 2.46875 c -0.734375,0 -0.75,-0.109375 -0.75,-0.46875 V -2.3125 c 0,-0.984375 0.421875,-1.875 1.171875,-1.875 0.0625,0 0.09375,0 0.109375,0.015625 -0.03125,0 -0.234375,0.125 -0.234375,0.390625 0,0.265625 0.21875,0.421875 0.4375,0.421875 0.171875,0 0.421875,-0.125 0.421875,-0.4375 0,-0.3125 -0.3125,-0.609375 -0.734375,-0.609375 -0.734375,0 -1.09375,0.671875 -1.21875,1.09375 z m 0,0"
             id="id-6deda4e0-9d80-40fc-862c-ca3ed5dc865c" />
        </g>
        <g
           transform="translate(375.914,134.765)"
           id="g43">
          <path
             d="M 4.6875,-2.140625 C 4.6875,-3.40625 3.703125,-4.46875 2.5,-4.46875 c -1.25,0 -2.21875,1.09375 -2.21875,2.328125 0,1.296875 1.03125,2.25 2.203125,2.25 1.203125,0 2.203125,-0.984375 2.203125,-2.25 z m -2.1875,2 c -0.4375,0 -0.875,-0.203125 -1.140625,-0.671875 -0.25,-0.4375 -0.25,-1.046875 -0.25,-1.40625 0,-0.390625 0,-0.921875 0.234375,-1.359375 C 1.609375,-4.03125 2.078125,-4.25 2.484375,-4.25 c 0.4375,0 0.859375,0.21875 1.125,0.65625 0.265625,0.421875 0.265625,1 0.265625,1.375 0,0.359375 0,0.90625 -0.21875,1.34375 C 3.421875,-0.421875 2.984375,-0.140625 2.5,-0.140625 Z m 0,0"
             id="id-92b506e4-d43f-43ad-9e30-c0960c440e21" />
        </g>
        <g
           transform="translate(380.895,134.765)"
           id="g44">
          <path
             d="M 1.09375,-3.421875 V -0.75 c 0,0.4375 -0.109375,0.4375 -0.78125,0.4375 V 0 c 0.359375,-0.015625 0.859375,-0.03125 1.140625,-0.03125 0.25,0 0.765625,0.015625 1.109375,0.03125 v -0.3125 c -0.671875,0 -0.78125,0 -0.78125,-0.4375 V -2.59375 C 1.78125,-3.625 2.5,-4.1875 3.125,-4.1875 c 0.640625,0 0.75,0.53125 0.75,1.109375 V -0.75 c 0,0.4375 -0.109375,0.4375 -0.78125,0.4375 V 0 c 0.34375,-0.015625 0.859375,-0.03125 1.125,-0.03125 0.25,0 0.78125,0.015625 1.109375,0.03125 v -0.3125 c -0.65625,0 -0.765625,0 -0.765625,-0.4375 v -1.84375 c 0,-1.03125 0.703125,-1.59375 1.34375,-1.59375 0.625,0 0.734375,0.53125 0.734375,1.109375 V -0.75 c 0,0.4375 -0.109375,0.4375 -0.78125,0.4375 V 0 c 0.34375,-0.015625 0.859375,-0.03125 1.125,-0.03125 0.265625,0 0.78125,0.015625 1.125,0.03125 v -0.3125 c -0.515625,0 -0.765625,0 -0.78125,-0.296875 v -1.90625 c 0,-0.859375 0,-1.15625 -0.3125,-1.515625 -0.140625,-0.171875 -0.46875,-0.375 -1.046875,-0.375 -0.828125,0 -1.28125,0.59375 -1.4375,0.984375 C 4.390625,-4.296875 3.65625,-4.40625 3.203125,-4.40625 2.46875,-4.40625 2,-3.984375 1.71875,-3.359375 V -4.40625 L 0.3125,-4.296875 v 0.3125 c 0.703125,0 0.78125,0.0625 0.78125,0.5625 z m 0,0"
             id="id-3541a788-bc6f-4b7b-ad0d-be61abf9e2f3" />
        </g>
      </g>
      <g
         fill="#000000"
         fill-opacity="1"
         id="id-a3bc7ab7-6191-4199-bc50-a3f4df4ea37d"
         transform="matrix(0.66544424,0,0,0.66544424,-52.361834,67.176228)">
        <g
           transform="translate(392.514,134.765)"
           id="g45">
          <path
             d="m 1.71875,-3.984375 h 1.4375 v -0.3125 H 1.71875 V -6.125 h -0.25 c 0,0.8125 -0.296875,1.875 -1.28125,1.921875 v 0.21875 h 0.84375 v 2.75 c 0,1.21875 0.9375,1.34375 1.296875,1.34375 0.703125,0 0.984375,-0.703125 0.984375,-1.34375 v -0.5625 h -0.25 V -1.25 c 0,0.734375 -0.296875,1.109375 -0.671875,1.109375 -0.671875,0 -0.671875,-0.90625 -0.671875,-1.078125 z m 0,0"
             id="id-7e3498b2-30e5-42c4-b839-50ef9fc30d57" />
        </g>
        <g
           transform="translate(396.389,134.765)"
           id="g46">
          <path
             d="m 1.09375,-0.75 c 0,0.4375 -0.109375,0.4375 -0.78125,0.4375 V 0 c 0.359375,-0.015625 0.859375,-0.03125 1.140625,-0.03125 0.25,0 0.765625,0.015625 1.109375,0.03125 v -0.3125 c -0.671875,0 -0.78125,0 -0.78125,-0.4375 V -2.59375 C 1.78125,-3.625 2.5,-4.1875 3.125,-4.1875 c 0.640625,0 0.75,0.53125 0.75,1.109375 V -0.75 c 0,0.4375 -0.109375,0.4375 -0.78125,0.4375 V 0 c 0.34375,-0.015625 0.859375,-0.03125 1.125,-0.03125 0.25,0 0.78125,0.015625 1.109375,0.03125 v -0.3125 c -0.515625,0 -0.765625,0 -0.765625,-0.296875 v -1.90625 c 0,-0.859375 0,-1.15625 -0.3125,-1.515625 -0.140625,-0.171875 -0.46875,-0.375 -1.046875,-0.375 -0.84375,0 -1.28125,0.59375 -1.453125,0.984375 v -3.5 L 0.3125,-6.8125 V -6.5 c 0.703125,0 0.78125,0.0625 0.78125,0.5625 z m 0,0"
             id="id-cd1ac0f5-e9a3-49ad-91be-ef03bbb93ec1" />
        </g>
        <g
           transform="translate(401.924,134.765)"
           id="g47">
          <path
             d="M 1.109375,-2.515625 C 1.171875,-4 2.015625,-4.25 2.359375,-4.25 c 1.015625,0 1.125,1.34375 1.125,1.734375 z m 0,0.21875 h 2.78125 c 0.21875,0 0.25,0 0.25,-0.21875 0,-0.984375 -0.546875,-1.953125 -1.78125,-1.953125 -1.15625,0 -2.078125,1.03125 -2.078125,2.28125 0,1.328125 1.046875,2.296875 2.1875,2.296875 C 3.6875,0.109375 4.140625,-1 4.140625,-1.1875 4.140625,-1.28125 4.0625,-1.3125 4,-1.3125 c -0.078125,0 -0.109375,0.0625 -0.125,0.140625 -0.34375,1.03125 -1.25,1.03125 -1.34375,1.03125 -0.5,0 -0.890625,-0.296875 -1.125,-0.671875 -0.296875,-0.46875 -0.296875,-1.125 -0.296875,-1.484375 z m 0,0"
             id="id-14d906a3-dee7-45e1-b79a-d9f175509f68" />
        </g>
      </g>
      <g
         fill="#000000"
         fill-opacity="1"
         id="id-ea9d639f-de92-41a0-b0fb-85b1bbe438f6"
         transform="matrix(0.66544424,0,0,0.66544424,-52.361834,67.176228)">
        <g
           transform="translate(409.669,134.765)"
           id="g48">
          <path
             d="M 1.671875,-3.3125 V -4.40625 L 0.28125,-4.296875 v 0.3125 c 0.703125,0 0.78125,0.0625 0.78125,0.5625 V -0.75 c 0,0.4375 -0.109375,0.4375 -0.78125,0.4375 V 0 c 0.390625,-0.015625 0.859375,-0.03125 1.140625,-0.03125 0.390625,0 0.859375,0 1.265625,0.03125 V -0.3125 H 2.46875 c -0.734375,0 -0.75,-0.109375 -0.75,-0.46875 V -2.3125 c 0,-0.984375 0.421875,-1.875 1.171875,-1.875 0.0625,0 0.09375,0 0.109375,0.015625 -0.03125,0 -0.234375,0.125 -0.234375,0.390625 0,0.265625 0.21875,0.421875 0.4375,0.421875 0.171875,0 0.421875,-0.125 0.421875,-0.4375 0,-0.3125 -0.3125,-0.609375 -0.734375,-0.609375 -0.734375,0 -1.09375,0.671875 -1.21875,1.09375 z m 0,0"
             id="id-8bbd66d5-bd30-40f1-8da0-a2588099dadc" />
        </g>
        <g
           transform="translate(413.571,134.765)"
           id="g49">
          <path
             d="M 1.765625,-4.40625 0.375,-4.296875 v 0.3125 c 0.640625,0 0.734375,0.0625 0.734375,0.546875 V -0.75 c 0,0.4375 -0.109375,0.4375 -0.78125,0.4375 V 0 C 0.640625,-0.015625 1.1875,-0.03125 1.421875,-0.03125 1.78125,-0.03125 2.125,-0.015625 2.46875,0 v -0.3125 c -0.671875,0 -0.703125,-0.046875 -0.703125,-0.4375 z m 0.03125,-1.734375 c 0,-0.3125 -0.234375,-0.53125 -0.515625,-0.53125 -0.3125,0 -0.53125,0.265625 -0.53125,0.53125 0,0.265625 0.21875,0.53125 0.53125,0.53125 0.28125,0 0.515625,-0.21875 0.515625,-0.53125 z m 0,0"
             id="id-65805af7-9da9-4f99-b477-f225e14ff6aa" />
        </g>
        <g
           transform="translate(416.339,134.765)"
           id="g50">
          <path
             d="m 2.21875,-1.71875 c -0.875,0 -0.875,-1 -0.875,-1.21875 0,-0.265625 0.015625,-0.59375 0.15625,-0.84375 0.078125,-0.109375 0.3125,-0.390625 0.71875,-0.390625 0.859375,0 0.859375,0.984375 0.859375,1.21875 0,0.265625 0,0.59375 -0.15625,0.84375 C 2.84375,-2 2.609375,-1.71875 2.21875,-1.71875 Z M 1.0625,-1.328125 c 0,-0.03125 0,-0.265625 0.15625,-0.46875 0.390625,0.28125 0.8125,0.3125 1,0.3125 0.921875,0 1.609375,-0.6875 1.609375,-1.453125 0,-0.375 -0.15625,-0.734375 -0.40625,-0.96875 C 3.78125,-4.25 4.140625,-4.296875 4.3125,-4.296875 c 0.03125,0 0.078125,0 0.109375,0.015625 C 4.3125,-4.25 4.25,-4.140625 4.25,-4.015625 c 0,0.171875 0.140625,0.28125 0.296875,0.28125 0.09375,0 0.28125,-0.0625 0.28125,-0.296875 0,-0.171875 -0.109375,-0.484375 -0.5,-0.484375 -0.203125,0 -0.640625,0.0625 -1.0625,0.46875 C 2.84375,-4.375 2.4375,-4.40625 2.21875,-4.40625 c -0.9375,0 -1.625,0.6875 -1.625,1.453125 0,0.4375 0.21875,0.8125 0.46875,1.03125 -0.125,0.140625 -0.3125,0.46875 -0.3125,0.828125 0,0.3125 0.140625,0.6875 0.453125,0.890625 -0.609375,0.15625 -0.921875,0.59375 -0.921875,0.984375 0,0.71875 0.984375,1.265625 2.203125,1.265625 1.171875,0 2.203125,-0.5 2.203125,-1.28125 0,-0.34375 -0.125,-0.859375 -0.640625,-1.140625 -0.53125,-0.265625 -1.109375,-0.265625 -1.71875,-0.265625 -0.25,0 -0.671875,0 -0.75,-0.015625 C 1.265625,-0.703125 1.0625,-1 1.0625,-1.328125 Z M 2.5,1.828125 c -1.015625,0 -1.703125,-0.515625 -1.703125,-1.046875 0,-0.453125 0.375,-0.828125 0.8125,-0.84375 h 0.59375 c 0.859375,0 1.96875,0 1.96875,0.84375 0,0.546875 -0.703125,1.046875 -1.671875,1.046875 z m 0,0"
             id="id-23116f03-f9a6-48d0-80b8-5d7760e5603f" />
        </g>
        <g
           transform="translate(421.32,134.765)"
           id="g51">
          <path
             d="m 1.09375,-0.75 c 0,0.4375 -0.109375,0.4375 -0.78125,0.4375 V 0 c 0.359375,-0.015625 0.859375,-0.03125 1.140625,-0.03125 0.25,0 0.765625,0.015625 1.109375,0.03125 v -0.3125 c -0.671875,0 -0.78125,0 -0.78125,-0.4375 V -2.59375 C 1.78125,-3.625 2.5,-4.1875 3.125,-4.1875 c 0.640625,0 0.75,0.53125 0.75,1.109375 V -0.75 c 0,0.4375 -0.109375,0.4375 -0.78125,0.4375 V 0 c 0.34375,-0.015625 0.859375,-0.03125 1.125,-0.03125 0.25,0 0.78125,0.015625 1.109375,0.03125 v -0.3125 c -0.515625,0 -0.765625,0 -0.765625,-0.296875 v -1.90625 c 0,-0.859375 0,-1.15625 -0.3125,-1.515625 -0.140625,-0.171875 -0.46875,-0.375 -1.046875,-0.375 -0.84375,0 -1.28125,0.59375 -1.453125,0.984375 v -3.5 L 0.3125,-6.8125 V -6.5 c 0.703125,0 0.78125,0.0625 0.78125,0.5625 z m 0,0"
             id="id-95e54c75-5e50-43f8-b64a-d2e863b4e7db" />
        </g>
      </g>
      <g
         fill="#000000"
         fill-opacity="1"
         id="id-dc60aa96-5272-41e5-bb34-93204f9d90d5"
         transform="matrix(0.66544424,0,0,0.66544424,-52.361834,67.176228)">
        <g
           transform="translate(426.586,134.765)"
           id="g52">
          <path
             d="m 1.71875,-3.984375 h 1.4375 v -0.3125 H 1.71875 V -6.125 h -0.25 c 0,0.8125 -0.296875,1.875 -1.28125,1.921875 v 0.21875 h 0.84375 v 2.75 c 0,1.21875 0.9375,1.34375 1.296875,1.34375 0.703125,0 0.984375,-0.703125 0.984375,-1.34375 v -0.5625 h -0.25 V -1.25 c 0,0.734375 -0.296875,1.109375 -0.671875,1.109375 -0.671875,0 -0.671875,-0.90625 -0.671875,-1.078125 z m 0,0"
             id="id-0f12c287-03aa-42c3-8807-d1e205caee34" />
        </g>
      </g>
    </g>
    <g
       id="g61"
       transform="translate(1.479271,-2.6458334)">
      <path
         style="fill:none;stroke:#db6565;stroke-width:0.581001;stroke-opacity:1;marker-end:url(#marker61)"
         d="m 122.68097,140.29166 h -7"
         id="path59" />
      <path
         style="fill:none;stroke:#db6565;stroke-width:0.581001;stroke-opacity:1;marker-end:url(#marker61-6)"
         d="m 109.4961,140.29166 h -7"
         id="path59-9" />
      <path
         style="fill:none;stroke:#db6565;stroke-width:0.581001;stroke-opacity:1;marker-end:url(#marker61-8)"
         d="m 135.86584,140.29166 h -7"
         id="path59-4" />
      <path
         style="fill:none;stroke:#db6565;stroke-width:0.581001;stroke-opacity:1;marker-end:url(#marker61-5)"
         d="m 82.545357,140.29166 h 7"
         id="path59-6" />
      <path
         style="fill:none;stroke:#db6565;stroke-width:0.581001;stroke-opacity:1;marker-end:url(#marker61-5-0)"
         d="m 69.360487,140.29166 h 7"
         id="path59-6-4" />
      <path
         style="fill:none;stroke:#db6565;stroke-width:0.581001;stroke-opacity:1;marker-end:url(#marker61-5-8)"
         d="m 56.175616,140.29166 h 7"
         id="path59-6-9" />
    </g>
  </g>
</svg>
