<?xml version="1.0" encoding="UTF-8" standalone="no"?>
<!-- Created with Inkscape (http://www.inkscape.org/) -->

<svg
   version="1.1"
   id="svg1"
   width="269.03003"
   height="229.10658"
   viewBox="0 0 269.03003 229.10659"
   sodipodi:docname="tangent_line.svg"
   inkscape:version="1.4 (e7c3feb1, 2024-10-09)"
   xmlns:inkscape="http://www.inkscape.org/namespaces/inkscape"
   xmlns:sodipodi="http://sodipodi.sourceforge.net/DTD/sodipodi-0.dtd"
   xmlns="http://www.w3.org/2000/svg"
   xmlns:svg="http://www.w3.org/2000/svg"
   xmlns:ns13="http://www.iki.fi/pav/software/textext/">
  <sodipodi:namedview
     id="namedview1"
     pagecolor="#ffffff"
     bordercolor="#000000"
     borderopacity="0.25"
     inkscape:showpageshadow="2"
     inkscape:pageopacity="0.0"
     inkscape:pagecheckerboard="0"
     inkscape:deskcolor="#d1d1d1"
     inkscape:zoom="1.8175252"
     inkscape:cx="82.804904"
     inkscape:cy="135.07378"
     inkscape:window-width="1512"
     inkscape:window-height="916"
     inkscape:window-x="0"
     inkscape:window-y="38"
     inkscape:window-maximized="0"
     inkscape:current-layer="g1">
    <inkscape:page
       x="0"
       y="0"
       inkscape:label="1"
       id="page1"
       width="269.03003"
       height="229.10658"
       margin="0"
       bleed="0" />
  </sodipodi:namedview>
  <defs
     id="defs1">
    <clipPath
       clipPathUnits="userSpaceOnUse"
       id="clipPath12">
      <path
         d="M 0,193.67563 H 194.28128 V 355.07199 H 0 Z"
         id="path12" />
    </clipPath>
    <clipPath
       clipPathUnits="userSpaceOnUse"
       id="clipPath14">
      <path
         d="M 0,193.67563 H 194.28128 V 355.07199 H 0 Z"
         id="path14" />
    </clipPath>
    <clipPath
       clipPathUnits="userSpaceOnUse"
       id="clipPath16">
      <path
         d="M 0,193.67563 H 194.28128 V 355.07199 H 0 Z"
         id="path16" />
    </clipPath>
    <clipPath
       clipPathUnits="userSpaceOnUse"
       id="clipPath18">
      <path
         d="M 0,193.67563 H 194.28128 V 355.07199 H 0 Z"
         id="path18" />
    </clipPath>
    <clipPath
       clipPathUnits="userSpaceOnUse"
       id="clipPath20">
      <path
         d="M 0,193.67563 H 194.28128 V 355.07199 H 0 Z"
         id="path20" />
    </clipPath>
    <clipPath
       clipPathUnits="userSpaceOnUse"
       id="clipPath22">
      <path
         d="M 0,193.67563 H 194.28128 V 355.07199 H 0 Z"
         id="path22" />
    </clipPath>
    <defs
       id="id-9d4dcde6-12a0-4782-969f-83fbcb2bd22a">
      <g
         id="id-9d248d3b-72ea-4f96-aead-3c64df982a7e">
        <g
           id="id-91d348b2-2d43-4bf3-86de-d6763031e726">
          <path
             d="M 3.015625,-3.15625 H 4.71875 c 1.40625,0 2.796875,-1.03125 2.796875,-2.140625 0,-0.78125 -0.65625,-1.515625 -1.96875,-1.515625 h -3.21875 c -0.1875,0 -0.296875,0 -0.296875,0.1875 0,0.125 0.078125,0.125 0.28125,0.125 0.125,0 0.3125,0.015625 0.421875,0.015625 0.171875,0.03125 0.21875,0.046875 0.21875,0.171875 0,0.03125 0,0.0625 -0.03125,0.1875 l -1.34375,5.34375 c -0.09375,0.390625 -0.109375,0.46875 -0.90625,0.46875 -0.15625,0 -0.265625,0 -0.265625,0.1875 C 0.40625,0 0.515625,0 0.546875,0 0.828125,0 1.53125,-0.03125 1.8125,-0.03125 c 0.21875,0 0.4375,0.015625 0.640625,0.015625 0.21875,0 0.4375,0.015625 0.640625,0.015625 0.078125,0 0.203125,0 0.203125,-0.203125 0,-0.109375 -0.09375,-0.109375 -0.28125,-0.109375 -0.359375,0 -0.640625,0 -0.640625,-0.171875 0,-0.0625 0.015625,-0.109375 0.03125,-0.171875 z M 3.734375,-6.125 C 3.828125,-6.46875 3.84375,-6.5 4.28125,-6.5 h 0.953125 c 0.828125,0 1.359375,0.265625 1.359375,0.953125 0,0.390625 -0.203125,1.25 -0.59375,1.609375 -0.5,0.453125 -1.09375,0.53125 -1.53125,0.53125 H 3.0625 Z m 0,0"
             id="id-55220f1b-012e-40a3-a87c-0089fbcce5e2" />
        </g>
        <g
           id="id-a5dd8656-ce78-4380-8bb5-a7adb1891f13">
          <path
             d="m 2.03125,-0.015625 c 0,-0.65625 -0.25,-1.046875 -0.640625,-1.046875 -0.328125,0 -0.53125,0.25 -0.53125,0.53125 C 0.859375,-0.265625 1.0625,0 1.390625,0 1.5,0 1.640625,-0.046875 1.734375,-0.125 1.765625,-0.15625 1.78125,-0.15625 1.78125,-0.15625 c 0.015625,0 0.015625,0 0.015625,0.140625 0,0.75 -0.34375,1.34375 -0.671875,1.671875 -0.109375,0.109375 -0.109375,0.125 -0.109375,0.15625 0,0.078125 0.046875,0.109375 0.09375,0.109375 0.109375,0 0.921875,-0.765625 0.921875,-1.9375 z m 0,0"
             id="id-5c1a73e5-68aa-474d-911f-717fb28a171f" />
        </g>
        <g
           id="id-b95d52ed-ead6-4776-892a-5e28212c9513">
          <path
             d="M 4.359375,-0.0625 C 5.90625,-0.640625 7.375,-2.421875 7.375,-4.34375 c 0,-1.609375 -1.0625,-2.6875 -2.546875,-2.6875 -2.140625,0 -4.34375,2.265625 -4.34375,4.59375 0,1.65625 1.125,2.65625 2.5625,2.65625 0.25,0 0.578125,-0.046875 0.96875,-0.15625 -0.03125,0.625 -0.03125,0.640625 -0.03125,0.78125 0,0.3125 0,1.09375 0.828125,1.09375 1.171875,0 1.65625,-1.828125 1.65625,-1.9375 0,-0.0625 -0.0625,-0.09375 -0.109375,-0.09375 -0.078125,0 -0.09375,0.046875 -0.125,0.109375 C 6,0.71875 5.421875,0.96875 5.078125,0.96875 c -0.46875,0 -0.609375,-0.265625 -0.71875,-1.03125 z m -1.875,-0.078125 c -0.78125,-0.3125 -1.125,-1.078125 -1.125,-1.984375 0,-0.6875 0.265625,-2.109375 1.015625,-3.171875 C 3.109375,-6.3125 4.046875,-6.78125 4.78125,-6.78125 5.765625,-6.78125 6.5,-6 6.5,-4.671875 c 0,1 -0.515625,3.34375 -2.1875,4.265625 -0.046875,-0.34375 -0.140625,-1.0625 -0.875,-1.0625 -0.53125,0 -1.015625,0.484375 -1.015625,1.015625 0,0.1875 0.0625,0.296875 0.0625,0.3125 z M 3.09375,-0.03125 c -0.140625,0 -0.453125,0 -0.453125,-0.421875 0,-0.40625 0.375,-0.796875 0.796875,-0.796875 0.421875,0 0.609375,0.234375 0.609375,0.84375 0,0.140625 -0.015625,0.15625 -0.109375,0.203125 C 3.671875,-0.09375 3.375,-0.03125 3.09375,-0.03125 Z m 0,0"
             id="id-5c53d0ed-6fcd-4000-801f-61fa0698b655" />
        </g>
        <g
           id="id-e2e30147-989a-40fe-9ce7-ac9544c9cb38">
          <path
             d="M 3.328125,-3.015625 C 3.390625,-3.265625 3.625,-4.1875 4.3125,-4.1875 c 0.046875,0 0.296875,0 0.5,0.125 C 4.53125,-4 4.34375,-3.765625 4.34375,-3.515625 c 0,0.15625 0.109375,0.34375 0.375,0.34375 0.21875,0 0.53125,-0.171875 0.53125,-0.578125 0,-0.515625 -0.578125,-0.65625 -0.921875,-0.65625 -0.578125,0 -0.921875,0.53125 -1.046875,0.75 -0.25,-0.65625 -0.78125,-0.75 -1.078125,-0.75 -1.03125,0 -1.609375,1.28125 -1.609375,1.53125 0,0.109375 0.109375,0.109375 0.125,0.109375 0.078125,0 0.109375,-0.03125 0.125,-0.109375 0.34375,-1.0625 1,-1.3125 1.34375,-1.3125 0.1875,0 0.53125,0.09375 0.53125,0.671875 0,0.3125 -0.171875,0.96875 -0.53125,2.375 -0.15625,0.609375 -0.515625,1.03125 -0.953125,1.03125 -0.0625,0 -0.28125,0 -0.5,-0.125 0.25,-0.0625 0.46875,-0.265625 0.46875,-0.546875 0,-0.265625 -0.21875,-0.34375 -0.359375,-0.34375 -0.3125,0 -0.546875,0.25 -0.546875,0.578125 0,0.453125 0.484375,0.65625 0.921875,0.65625 0.671875,0 1.03125,-0.703125 1.046875,-0.75 0.125,0.359375 0.484375,0.75 1.078125,0.75 1.03125,0 1.59375,-1.28125 1.59375,-1.53125 0,-0.109375 -0.078125,-0.109375 -0.109375,-0.109375 -0.09375,0 -0.109375,0.046875 -0.140625,0.109375 -0.328125,1.078125 -1,1.3125 -1.3125,1.3125 -0.390625,0 -0.546875,-0.3125 -0.546875,-0.65625 0,-0.21875 0.046875,-0.4375 0.15625,-0.875 z m 0,0"
             id="id-e2c968d8-eb58-4df1-85e5-23bbcff2a76e" />
        </g>
        <g
           id="id-8607d7cf-f4aa-4977-a91c-8b7847ece46d">
          <path
             d="m 3.296875,2.390625 c 0,-0.03125 0,-0.046875 -0.171875,-0.21875 C 1.890625,0.921875 1.5625,-0.96875 1.5625,-2.5 c 0,-1.734375 0.375,-3.46875 1.609375,-4.703125 0.125,-0.125 0.125,-0.140625 0.125,-0.171875 0,-0.078125 -0.03125,-0.109375 -0.09375,-0.109375 -0.109375,0 -1,0.6875 -1.59375,1.953125 -0.5,1.09375 -0.625,2.203125 -0.625,3.03125 0,0.78125 0.109375,1.984375 0.65625,3.125 C 2.25,1.84375 3.09375,2.5 3.203125,2.5 c 0.0625,0 0.09375,-0.03125 0.09375,-0.109375 z m 0,0"
             id="id-e17fdba2-0c79-49c5-8104-6ba1c8ebe167" />
        </g>
        <g
           id="id-5520dc8f-57ce-4c5d-a977-aaa0935f1de5">
          <path
             d="m 2.9375,-6.375 c 0,-0.25 0,-0.265625 -0.234375,-0.265625 C 2.078125,-6 1.203125,-6 0.890625,-6 v 0.3125 c 0.203125,0 0.78125,0 1.296875,-0.265625 v 5.171875 c 0,0.359375 -0.03125,0.46875 -0.921875,0.46875 h -0.3125 V 0 c 0.34375,-0.03125 1.203125,-0.03125 1.609375,-0.03125 0.390625,0 1.265625,0 1.609375,0.03125 v -0.3125 h -0.3125 c -0.90625,0 -0.921875,-0.109375 -0.921875,-0.46875 z m 0,0"
             id="id-544cee1d-5529-431a-9232-34bec6ddce16" />
        </g>
        <g
           id="id-73e674f5-b663-471f-9074-158ffe1db8e4">
          <path
             d="m 2.875,-2.5 c 0,-0.765625 -0.109375,-1.96875 -0.65625,-3.109375 -0.59375,-1.21875 -1.453125,-1.875 -1.546875,-1.875 -0.0625,0 -0.109375,0.046875 -0.109375,0.109375 0,0.03125 0,0.046875 0.1875,0.234375 0.984375,0.984375 1.546875,2.5625 1.546875,4.640625 0,1.71875 -0.359375,3.46875 -1.59375,4.71875 C 0.5625,2.34375 0.5625,2.359375 0.5625,2.390625 0.5625,2.453125 0.609375,2.5 0.671875,2.5 0.765625,2.5 1.671875,1.8125 2.25,0.546875 2.765625,-0.546875 2.875,-1.65625 2.875,-2.5 Z m 0,0"
             id="id-f17df0c2-93ef-4c15-8d49-a35d8fa360bd" />
        </g>
        <g
           id="id-ee661ade-56ad-44b8-9516-33d2415d6f28">
          <path
             d="M 3.515625,-1.265625 H 3.28125 c -0.015625,0.15625 -0.09375,0.5625 -0.1875,0.625 C 3.046875,-0.59375 2.515625,-0.59375 2.40625,-0.59375 H 1.125 c 0.734375,-0.640625 0.984375,-0.84375 1.390625,-1.171875 0.515625,-0.40625 1,-0.84375 1,-1.5 0,-0.84375 -0.734375,-1.359375 -1.625,-1.359375 -0.859375,0 -1.453125,0.609375 -1.453125,1.25 0,0.34375 0.296875,0.390625 0.375,0.390625 0.15625,0 0.359375,-0.125 0.359375,-0.375 0,-0.125 -0.046875,-0.375 -0.40625,-0.375 C 0.984375,-4.21875 1.453125,-4.375 1.78125,-4.375 c 0.703125,0 1.0625,0.546875 1.0625,1.109375 0,0.609375 -0.4375,1.078125 -0.65625,1.328125 L 0.515625,-0.265625 C 0.4375,-0.203125 0.4375,-0.1875 0.4375,0 h 2.875 z m 0,0"
             id="id-bfcd136a-fac1-41ae-b852-db610d384ece" />
        </g>
      </g>
    </defs>
  </defs>
  <g
     id="g1"
     inkscape:groupmode="layer"
     inkscape:label="1"
     transform="translate(-10.2853, 7.35008)">
    <path
       id="path3"
       d="M 0,274.37381 H 194.28128"
       style="fill:none;stroke:#7f7f7f;stroke-width:0.3985;stroke-linecap:butt;stroke-linejoin:miter;stroke-miterlimit:10;stroke-dasharray:none;stroke-opacity:1"
       transform="matrix(1.3333333,0,0,-1.3333333,10.285333,479.99067)" />
    <path
       id="path4"
       d="M 97.14064,193.67563 V 355.07199"
       style="fill:none;stroke:#7f7f7f;stroke-width:0.3985;stroke-linecap:butt;stroke-linejoin:miter;stroke-miterlimit:10;stroke-dasharray:none;stroke-opacity:1"
       transform="matrix(1.3333333,0,0,-1.3333333,10.285333,479.99067)" />
    <path
       id="path11"
       d="m 0,677.86472 1.96222,-16.1362 1.96223,-15.80741 1.96225,-15.47766 1.96224,-15.14863 1.96225,-14.81914 1.96223,-14.4901 1.96224,-14.16061 1.96224,-13.83135 1.96223,-13.5023 1.96225,-13.17281 1.96223,-12.84353 1.96225,-12.51428 1.96224,-12.18502 1.96223,-11.85574 1.96225,-11.52648 1.96223,-11.19723 1.96225,-10.86769 1.96222,-10.5387 1.96225,-10.20943 1.96224,-9.88 1.96223,-9.55072 1.96225,-9.22162 1.96223,-8.89217 1.96225,-8.56288 1.96224,-8.23362 1.96223,-7.90444 1.96224,-7.57507 1.96223,-7.24578 1.96225,-6.91661 1.96224,-6.5872 1.96224,-6.25795 1.96224,-5.92877 1.96225,-5.59935 1.96224,-5.27013 1.96221,-4.94087 1.96226,-4.61156 1.96223,-4.28227 1.96225,-3.953 1.96223,-3.62377 1.96224,-3.29443 1.96225,-2.96516 1.96223,-2.63588 1.96224,-2.30661 1.96223,-1.97735 1.96225,-1.64804 1.96224,-1.31875 1.96223,-0.98951 1.96225,-0.6602 1.96223,-0.3309 1.96225,-0.002 1.96224,0.32764 1.96223,0.6569 1.96224,0.98621 1.96223,1.31547 1.96225,1.64478 1.96224,1.97403 1.96225,2.3033 1.96223,2.63261 1.96225,2.96187 1.96222,3.29117 1.96223,3.6204 1.96225,3.94979 1.96224,4.27896 1.96225,4.60826 1.96223,4.93753 1.96225,5.26691 1.96224,5.59608 1.96223,5.92537 1.96224,6.25475 1.96223,6.58393 1.96225,6.91321 1.96223,7.2426 1.96224,7.57177 1.96225,7.90104 1.96223,8.23033 1.96225,8.55973 1.96222,8.88888 1.96225,9.21817 1.96224,9.54757 1.96223,9.87672 1.96225,10.20604 1.96224,10.53549 1.96224,10.8645 1.96224,11.19375 1.96225,11.52305 1.96222,11.85254 1.96223,12.18182 1.96225,12.51083 1.96224,12.84058 1.96225,13.16938 1.96223,13.49885 1.96225,13.82838 1.96224,14.15715 1.96223,14.48667 1.96223,14.81593 1.96224,15.14543 1.96225,15.47446 1.96223,15.80373 1.96225,16.13322"
       style="fill:none;stroke:#c17272;stroke-width:0.62325002;stroke-linecap:butt;stroke-linejoin:miter;stroke-miterlimit:10;stroke-dasharray:none;stroke-opacity:1"
       transform="matrix(1.3333333,0,0,-1.3333333,10.285333,479.99067)"
       clip-path="url(#clipPath12)" />
    <path
       id="path13"
       d="m 0,96.83781 1.96222,3.26018 1.96223,3.26024 1.96225,3.26018 1.96224,3.26021 1.96225,3.26018 1.96223,3.26023 1.96224,3.2602 1.96224,3.26019 1.96223,3.26024 1.96225,3.26017 1.96223,3.2602 1.96225,3.26024 1.96224,3.26019 1.96223,3.26018 1.96225,3.26019 1.96223,3.26024 1.96225,3.26019 1.96222,3.26018 1.96225,3.26026 1.96224,3.26019 1.96223,3.26017 1.96225,3.26024 1.96223,3.2602 1.96225,3.26019 1.96224,3.26017 1.96223,3.26024 1.96224,3.2602 1.96223,3.26019 1.96225,3.26022 1.96224,3.26019 1.96224,3.2602 1.96224,3.26024 1.96225,3.26019 1.96224,3.26018 1.96221,3.26025 1.96226,3.26018 1.96223,3.26019 1.96225,3.26018 1.96223,3.26025 1.96224,3.26018 1.96225,3.26022 1.96223,3.26018 1.96224,3.26023 1.96223,3.26017 1.96225,3.26023 1.96224,3.2602 1.96223,3.2602 1.96225,3.26022 1.96223,3.26018 1.96225,3.26022 1.96224,3.26021 1.96223,3.2602 1.96224,3.2602 1.96223,3.2602 1.96225,3.2602 1.96224,3.26021 1.96225,3.26019 1.96223,3.26021 1.96225,3.26019 1.96222,3.26021 1.96223,3.26021 1.96225,3.26022 1.96224,3.2602 1.96225,3.26017 1.96223,3.26021 1.96225,3.26023 1.96224,3.26019 1.96223,3.26018 1.96224,3.26025 1.96223,3.26018 1.96225,3.26019 1.96223,3.26024 1.96224,3.26019 1.96225,3.26019 1.96223,3.26018 1.96225,3.26026 1.96222,3.26017 1.96225,3.2602 1.96224,3.26023 1.96223,3.2602 1.96225,3.26018 1.96224,3.26023 1.96224,3.2602 1.96224,3.26019 1.96225,3.26018 1.96222,3.26024 1.96223,3.2602 1.96225,3.26018 1.96224,3.26024 1.96225,3.26018 1.96223,3.26021 1.96225,3.26022 1.96224,3.26019 1.96223,3.26018 1.96223,3.26021 1.96224,3.26022 1.96225,3.2602 1.96223,3.26017 1.96225,3.26026"
       style="fill:none;stroke:#0000ff;stroke-width:0.3985;stroke-linecap:butt;stroke-linejoin:miter;stroke-miterlimit:10;stroke-dasharray:none;stroke-opacity:1"
       transform="matrix(1.3333333,0,0,-1.3333333,10.285333,479.99067)"
       clip-path="url(#clipPath14)" />
    <path
       id="path15"
       d="m 0,96.83781 1.96222,3.26018 1.96223,3.26024 1.96225,3.26018 1.96224,3.26021 1.96225,3.26018 1.96223,3.26023 1.96224,3.2602 1.96224,3.26019 1.96223,3.26024 1.96225,3.26017 1.96223,3.2602 1.96225,3.26024 1.96224,3.26019 1.96223,3.26018 1.96225,3.26019 1.96223,3.26024 1.96225,3.26019 1.96222,3.26018 1.96225,3.26026 1.96224,3.26019 1.96223,3.26017 1.96225,3.26024 1.96223,3.2602 1.96225,3.26019 1.96224,3.26017 1.96223,3.26024 1.96224,3.2602 1.96223,3.26019 1.96225,3.26022 1.96224,3.26019 1.96224,3.2602 1.96224,3.26024 1.96225,3.26019 1.96224,3.26018 1.96221,3.26025 1.96226,3.26018 1.96223,3.26019 1.96225,3.26018 1.96223,3.26025 1.96224,3.26018 1.96225,3.26022 1.96223,3.26018 1.96224,3.26023 1.96223,3.26017 1.96225,3.26023 1.96224,3.2602 1.96223,3.2602 1.96225,3.26022 1.96223,3.26018 1.96225,3.26022 1.96224,3.26021 1.96223,3.2602 1.96224,3.2602 1.96223,3.2602 1.96225,3.2602 1.96224,3.26021 1.96225,3.26019 1.96223,3.26021 1.96225,3.26019 1.96222,3.26021 1.96223,3.26021 1.96225,3.26022 1.96224,3.2602 1.96225,3.26017 1.96223,3.26021 1.96225,3.26023 1.96224,3.26019 1.96223,3.26018 1.96224,3.26025 1.96223,3.26018 1.96225,3.26019 1.96223,3.26024 1.96224,3.26019 1.96225,3.26019 1.96223,3.26018 1.96225,3.26026 1.96222,3.26017 1.96225,3.2602 1.96224,3.26023 1.96223,3.2602 1.96225,3.26018 1.96224,3.26023 1.96224,3.2602 1.96224,3.26019 1.96225,3.26018 1.96222,3.26024 1.96223,3.2602 1.96225,3.26018 1.96224,3.26024 1.96225,3.26018 1.96223,3.26021 1.96225,3.26022 1.96224,3.26019 1.96223,3.26018 1.96223,3.26021 1.96224,3.26022 1.96225,3.2602 1.96223,3.26017 1.96225,3.26026"
       style="fill:none;stroke:#2ca0bd;stroke-width:0.3985;stroke-linecap:butt;stroke-linejoin:miter;stroke-miterlimit:10;stroke-dasharray:none;stroke-opacity:1"
       transform="matrix(1.3333333,0,0,-1.3333333,10.285333,479.99067)"
       clip-path="url(#clipPath16)" />
    <path
       id="path17"
       d="m 0,0 1.96222,4.89027 1.96223,4.89035 1.96225,4.89028 1.96224,4.8903 1.96225,4.89028 1.96223,4.89035 1.96224,4.89029 1.96224,4.89028 1.96223,4.89036 1.96225,4.89029 1.96223,4.89027 1.96225,4.89035 1.96224,4.89029 1.96223,4.89029 1.96225,4.89027 1.96223,4.89035 1.96225,4.89031 1.96222,4.89027 1.96225,4.89035 1.96224,4.89029 1.96223,4.89029 1.96225,4.89035 1.96223,4.89029 1.96225,4.89028 1.96224,4.89028 1.96223,4.89035 1.96224,4.89029 1.96223,4.89029 1.96225,4.89035 1.96224,4.89029 1.96224,4.89028 1.96224,4.89035 1.96225,4.8903 1.96224,4.89028 1.96221,4.89034 1.96226,4.8903 1.96223,4.89028 1.96225,4.89028 1.96223,4.89035 1.96224,4.89029 1.96225,4.8903 1.96223,4.8903 1.96224,4.89033 1.96223,4.8903 1.96225,4.89027 1.96224,4.89033 1.96223,4.8903 1.96225,4.8903 1.96223,4.89032 1.96225,4.89031 1.96224,4.8903 1.96223,4.89031 1.96224,4.89032 1.96223,4.8903 1.96225,4.89029 1.96224,4.89031 1.96225,4.8903 1.96223,4.89031 1.96225,4.8903 1.96222,4.8903 1.96223,4.8903 1.96225,4.89034 1.96224,4.89029 1.96225,4.89027 1.96223,4.8903 1.96225,4.89036 1.96224,4.89028 1.96223,4.89027 1.96224,4.89038 1.96223,4.89028 1.96225,4.89027 1.96223,4.89036 1.96224,4.8903 1.96225,4.89027 1.96223,4.89027 1.96225,4.89037 1.96222,4.89029 1.96225,4.89027 1.96224,4.89037 1.96223,4.89027 1.96225,4.89029 1.96224,4.89037 1.96224,4.89027 1.96224,4.89027 1.96225,4.89031 1.96222,4.89035 1.96223,4.89027 1.96225,4.89028 1.96224,4.89038 1.96225,4.89027 1.96223,4.89028 1.96225,4.89036 1.96224,4.89029 1.96223,4.89027 1.96223,4.89029 1.96224,4.89035 1.96225,4.89029 1.96223,4.8903 1.96225,4.89034"
       style="fill:none;stroke:#47966c;stroke-width:0.3985;stroke-linecap:butt;stroke-linejoin:miter;stroke-miterlimit:10;stroke-dasharray:none;stroke-opacity:1"
       transform="matrix(1.3333333,0,0,-1.3333333,10.285333,479.99067)"
       clip-path="url(#clipPath18)" />
    <path
       id="path19"
       d="m 117.62537,290.51344 c 0,0.58354 -0.47306,1.05661 -1.05661,1.05661 -0.58355,0 -1.0566,-0.47307 -1.0566,-1.05661 0,-0.58354 0.47305,-1.05659 1.0566,-1.05659 0.58355,0 1.05661,0.47305 1.05661,1.05659 z"
       style="fill:#000000;fill-opacity:1;fill-rule:nonzero;stroke:none"
       transform="matrix(1.3333333,0,0,-1.3333333,10.285333,479.99067)"
       clip-path="url(#clipPath20)" />
    <path
       id="path21"
       d="m 137.05348,338.93236 c 0,0.58354 -0.47305,1.05659 -1.05659,1.05659 -0.58354,0 -1.0566,-0.47305 -1.0566,-1.05659 0,-0.58354 0.47306,-1.0566 1.0566,-1.0566 0.58354,0 1.05659,0.47306 1.05659,1.0566 z"
       style="fill:#000000;fill-opacity:1;fill-rule:nonzero;stroke:none"
       transform="matrix(1.3333333,0,0,-1.3333333,10.285333,479.99067)"
       clip-path="url(#clipPath22)" />
    <path
       id="path23"
       d="m 276.75287,112.74483 c 0.0781,-0.34375 0.39062,-1.5625 1.3125,-1.5625 0.0625,0 0.39062,0 0.67187,0.17187 -0.375,0.0625 -0.64062,0.40625 -0.64062,0.71875 0,0.21875 0.14062,0.46875 0.5,0.46875 0.29687,0 0.71875,-0.25 0.71875,-0.78125 0,-0.6875 -0.78125,-0.875 -1.23438,-0.875 -0.76562,0 -1.23437,0.70313 -1.39062,1.01563 -0.34375,-0.875 -1.04688,-1.01563 -1.4375,-1.01563 -1.39063,0 -2.14063,1.71875 -2.14063,2.04688 0,0.14062 0.14063,0.14062 0.15625,0.14062 0.10938,0 0.15625,-0.0312 0.17188,-0.15625 0.45312,-1.40625 1.32812,-1.73437 1.78125,-1.73437 0.25,0 0.71875,0.125 0.71875,0.89062 0,0.40625 -0.21875,1.29688 -0.71875,3.15625 -0.20313,0.82813 -0.67188,1.39063 -1.26563,1.39063 -0.0781,0 -0.375,0 -0.65625,-0.17188 0.32813,-0.0781 0.625,-0.35937 0.625,-0.71875 0,-0.35937 -0.29687,-0.46875 -0.5,-0.46875 -0.39062,0 -0.71875,0.34375 -0.71875,0.76563 0,0.60937 0.65625,0.875 1.25,0.875 0.875,0 1.34375,-0.92188 1.39063,-1 0.15625,0.48437 0.64062,1 1.4375,1 1.35937,0 2.125,-1.70313 2.125,-2.04688 0,-0.125 -0.125,-0.125 -0.17188,-0.125 -0.10937,0 -0.14062,0.0469 -0.17187,0.14063 -0.4375,1.42187 -1.32813,1.75 -1.76563,1.75 -0.51562,0 -0.71875,-0.4375 -0.71875,-0.875 0,-0.29688 0.0781,-0.59375 0.21875,-1.17188 z m 0,0"
       style="fill:#000000;fill-opacity:1;fill-rule:nonzero;stroke:none;stroke-width:1.33333"
       aria-label="x" />
    <path
       id="path24"
       d="m 142.54052,-6.5375816 c 0.0625,-0.1875 0.0625,-0.203125 0.0625,-0.296875 0,-0.25 -0.1875,-0.359375 -0.39062,-0.359375 -0.14063,0 -0.34375,0.07813 -0.46875,0.265625 -0.0312,0.07813 -0.125,0.484375 -0.1875,0.71875 -0.0937,0.34375 -0.1875,0.703125 -0.26563,1.0625003 l -0.59375,2.390625 c -0.0469,0.203125 -0.625,1.140625 -1.5,1.140625 -0.67187,0 -0.82812,-0.59375 -0.82812,-1.078125 0,-0.609375 0.23437,-1.4374999 0.6875,-2.609375 0.20312,-0.5468753 0.26562,-0.6875003 0.26562,-0.9531253 0,-0.59375 -0.4375,-1.09375 -1.09375,-1.09375 -1.26562,0 -1.75,1.9375004 -1.75,2.0468753 0,0.1406251 0.125,0.1406251 0.15625,0.1406251 0.125,0 0.14063,-0.031249 0.20313,-0.25 0.35937,-1.2500004 0.89062,-1.6406254 1.34375,-1.6406254 0.10937,0 0.34375,0 0.34375,0.421875 0,0.328125 -0.14063,0.6875 -0.23438,0.9375 -0.53125,1.4062504 -0.76562,2.1562504 -0.76562,2.7812503 0,1.1875 0.82812,1.578125 1.625,1.578125 0.51562,0 0.96875,-0.21875 1.32812,-0.59375 -0.17187,0.6875 -0.32812,1.34374993 -0.85937,2.04687503 -0.34375,0.4531249 -0.84375,0.84375 -1.45313,0.84375 -0.1875,0 -0.79687,-0.046875 -1.01562,-0.5625 0.21875,0 0.39062,0 0.57812,-0.15625 0.125,-0.125 0.26563,-0.2968751 0.26563,-0.5468751 0,-0.421875 -0.35938,-0.46875 -0.5,-0.46875 -0.29688,0 -0.73438,0.21875 -0.73438,0.8593751 0,0.6718749 0.57813,1.15624987 1.40625,1.15624987 1.35938,0 2.73438,-1.20312497 3.10938,-2.7031249 z m 0,0"
       style="fill:#000000;fill-opacity:1;fill-rule:nonzero;stroke:none;stroke-width:1.33333"
       aria-label="y" />
    <g
       id="g37"
       transform="matrix(0.80755898,0,0,0.80755898,36.209302,-35.057671)">
      <g
         fill="#000000"
         fill-opacity="1"
         id="id-7feeaf2b-c0aa-4487-ada9-302566798fe3"
         transform="matrix(1.33333,0,0,1.33333,-31.704683,-9.8353049)">
        <g
           transform="translate(148.712,134.765)"
           id="g24">
          <path
             d="M 3.015625,-3.15625 H 4.71875 c 1.40625,0 2.796875,-1.03125 2.796875,-2.140625 0,-0.78125 -0.65625,-1.515625 -1.96875,-1.515625 h -3.21875 c -0.1875,0 -0.296875,0 -0.296875,0.1875 0,0.125 0.078125,0.125 0.28125,0.125 0.125,0 0.3125,0.015625 0.421875,0.015625 0.171875,0.03125 0.21875,0.046875 0.21875,0.171875 0,0.03125 0,0.0625 -0.03125,0.1875 l -1.34375,5.34375 c -0.09375,0.390625 -0.109375,0.46875 -0.90625,0.46875 -0.15625,0 -0.265625,0 -0.265625,0.1875 C 0.40625,0 0.515625,0 0.546875,0 0.828125,0 1.53125,-0.03125 1.8125,-0.03125 c 0.21875,0 0.4375,0.015625 0.640625,0.015625 0.21875,0 0.4375,0.015625 0.640625,0.015625 0.078125,0 0.203125,0 0.203125,-0.203125 0,-0.109375 -0.09375,-0.109375 -0.28125,-0.109375 -0.359375,0 -0.640625,0 -0.640625,-0.171875 0,-0.0625 0.015625,-0.109375 0.03125,-0.171875 z M 3.734375,-6.125 C 3.828125,-6.46875 3.84375,-6.5 4.28125,-6.5 h 0.953125 c 0.828125,0 1.359375,0.265625 1.359375,0.953125 0,0.390625 -0.203125,1.25 -0.59375,1.609375 -0.5,0.453125 -1.09375,0.53125 -1.53125,0.53125 H 3.0625 Z m 0,0"
             id="id-5365819b-8c6e-42e1-a8fa-94fa9d46bed5" />
        </g>
      </g>
      <g
         fill="#000000"
         fill-opacity="1"
         id="id-8032dfc9-91dc-4817-a837-7c3cd46c61e4"
         transform="matrix(1.33333,0,0,1.33333,-31.704683,-9.8353049)">
        <g
           transform="translate(156.492,134.765)"
           id="g25">
          <path
             d="m 3.296875,2.390625 c 0,-0.03125 0,-0.046875 -0.171875,-0.21875 C 1.890625,0.921875 1.5625,-0.96875 1.5625,-2.5 c 0,-1.734375 0.375,-3.46875 1.609375,-4.703125 0.125,-0.125 0.125,-0.140625 0.125,-0.171875 0,-0.078125 -0.03125,-0.109375 -0.09375,-0.109375 -0.109375,0 -1,0.6875 -1.59375,1.953125 -0.5,1.09375 -0.625,2.203125 -0.625,3.03125 0,0.78125 0.109375,1.984375 0.65625,3.125 C 2.25,1.84375 3.09375,2.5 3.203125,2.5 c 0.0625,0 0.09375,-0.03125 0.09375,-0.109375 z m 0,0"
             id="id-305f5f90-cc4f-49c9-a328-9bfae2aebb3c" />
        </g>
        <g
           transform="translate(160.366,134.765)"
           id="g26">
          <path
             d="m 2.9375,-6.375 c 0,-0.25 0,-0.265625 -0.234375,-0.265625 C 2.078125,-6 1.203125,-6 0.890625,-6 v 0.3125 c 0.203125,0 0.78125,0 1.296875,-0.265625 v 5.171875 c 0,0.359375 -0.03125,0.46875 -0.921875,0.46875 h -0.3125 V 0 c 0.34375,-0.03125 1.203125,-0.03125 1.609375,-0.03125 0.390625,0 1.265625,0 1.609375,0.03125 v -0.3125 h -0.3125 c -0.90625,0 -0.921875,-0.109375 -0.921875,-0.46875 z m 0,0"
             id="id-860abb1f-d7a3-46ac-bee4-6ab04fcd1dfa" />
        </g>
      </g>
      <g
         fill="#000000"
         fill-opacity="1"
         id="id-f67c71cd-05e6-4bcf-ae67-0e1f02fc4bfd"
         transform="matrix(1.33333,0,0,1.33333,-31.704683,-9.8353049)">
        <g
           transform="translate(165.348,134.765)"
           id="g27">
          <path
             d="m 2.03125,-0.015625 c 0,-0.65625 -0.25,-1.046875 -0.640625,-1.046875 -0.328125,0 -0.53125,0.25 -0.53125,0.53125 C 0.859375,-0.265625 1.0625,0 1.390625,0 1.5,0 1.640625,-0.046875 1.734375,-0.125 1.765625,-0.15625 1.78125,-0.15625 1.78125,-0.15625 c 0.015625,0 0.015625,0 0.015625,0.140625 0,0.75 -0.34375,1.34375 -0.671875,1.671875 -0.109375,0.109375 -0.109375,0.125 -0.109375,0.15625 0,0.078125 0.046875,0.109375 0.09375,0.109375 0.109375,0 0.921875,-0.765625 0.921875,-1.9375 z m 0,0"
             id="id-cd02eab6-b4da-4ace-9769-42be78e1fbe6" />
        </g>
      </g>
      <g
         fill="#000000"
         fill-opacity="1"
         id="id-01a5c985-f7e9-456a-a0b6-a663d1e00172"
         transform="matrix(1.33333,0,0,1.33333,-31.704683,-9.8353049)">
        <g
           transform="translate(169.776,134.765)"
           id="g28">
          <path
             d="m 2.9375,-6.375 c 0,-0.25 0,-0.265625 -0.234375,-0.265625 C 2.078125,-6 1.203125,-6 0.890625,-6 v 0.3125 c 0.203125,0 0.78125,0 1.296875,-0.265625 v 5.171875 c 0,0.359375 -0.03125,0.46875 -0.921875,0.46875 h -0.3125 V 0 c 0.34375,-0.03125 1.203125,-0.03125 1.609375,-0.03125 0.390625,0 1.265625,0 1.609375,0.03125 v -0.3125 h -0.3125 c -0.90625,0 -0.921875,-0.109375 -0.921875,-0.46875 z m 0,0"
             id="id-4d788d01-db84-47bf-ae90-5961466ca427" />
        </g>
        <g
           transform="translate(174.757,134.765)"
           id="g29">
          <path
             d="m 2.875,-2.5 c 0,-0.765625 -0.109375,-1.96875 -0.65625,-3.109375 -0.59375,-1.21875 -1.453125,-1.875 -1.546875,-1.875 -0.0625,0 -0.109375,0.046875 -0.109375,0.109375 0,0.03125 0,0.046875 0.1875,0.234375 0.984375,0.984375 1.546875,2.5625 1.546875,4.640625 0,1.71875 -0.359375,3.46875 -1.59375,4.71875 C 0.5625,2.34375 0.5625,2.359375 0.5625,2.390625 0.5625,2.453125 0.609375,2.5 0.671875,2.5 0.765625,2.5 1.671875,1.8125 2.25,0.546875 2.765625,-0.546875 2.875,-1.65625 2.875,-2.5 Z m 0,0"
             id="id-a2fd0113-31e9-4ec5-bd08-ff639994fafa" />
        </g>
      </g>
    </g>
    <g
       id="g38"
       transform="matrix(0.80755898,0,0,0.80755898,-19.033147,-113.1844)">
      <g
         fill="#000000"
         fill-opacity="1"
         id="id-ba367523-00db-45b5-9f1d-f57a7f48b936"
         transform="matrix(1.33333,0,0,1.33333,-31.704683,-9.8353049)">
        <g
           transform="translate(181.952,134.765)"
           id="g30">
          <path
             d="M 4.359375,-0.0625 C 5.90625,-0.640625 7.375,-2.421875 7.375,-4.34375 c 0,-1.609375 -1.0625,-2.6875 -2.546875,-2.6875 -2.140625,0 -4.34375,2.265625 -4.34375,4.59375 0,1.65625 1.125,2.65625 2.5625,2.65625 0.25,0 0.578125,-0.046875 0.96875,-0.15625 -0.03125,0.625 -0.03125,0.640625 -0.03125,0.78125 0,0.3125 0,1.09375 0.828125,1.09375 1.171875,0 1.65625,-1.828125 1.65625,-1.9375 0,-0.0625 -0.0625,-0.09375 -0.109375,-0.09375 -0.078125,0 -0.09375,0.046875 -0.125,0.109375 C 6,0.71875 5.421875,0.96875 5.078125,0.96875 c -0.46875,0 -0.609375,-0.265625 -0.71875,-1.03125 z m -1.875,-0.078125 c -0.78125,-0.3125 -1.125,-1.078125 -1.125,-1.984375 0,-0.6875 0.265625,-2.109375 1.015625,-3.171875 C 3.109375,-6.3125 4.046875,-6.78125 4.78125,-6.78125 5.765625,-6.78125 6.5,-6 6.5,-4.671875 c 0,1 -0.515625,3.34375 -2.1875,4.265625 -0.046875,-0.34375 -0.140625,-1.0625 -0.875,-1.0625 -0.53125,0 -1.015625,0.484375 -1.015625,1.015625 0,0.1875 0.0625,0.296875 0.0625,0.3125 z M 3.09375,-0.03125 c -0.140625,0 -0.453125,0 -0.453125,-0.421875 0,-0.40625 0.375,-0.796875 0.796875,-0.796875 0.421875,0 0.609375,0.234375 0.609375,0.84375 0,0.140625 -0.015625,0.15625 -0.109375,0.203125 C 3.671875,-0.09375 3.375,-0.03125 3.09375,-0.03125 Z m 0,0"
             id="id-bea96834-da42-4064-980a-431d6b6ab174" />
        </g>
      </g>
      <g
         fill="#000000"
         fill-opacity="1"
         id="id-5b8d14fa-18b9-4c81-b77d-f42ff3726b07"
         transform="matrix(1.33333,0,0,1.33333,-31.704683,-9.8353049)">
        <g
           transform="translate(189.828,134.765)"
           id="g31">
          <path
             d="m 3.296875,2.390625 c 0,-0.03125 0,-0.046875 -0.171875,-0.21875 C 1.890625,0.921875 1.5625,-0.96875 1.5625,-2.5 c 0,-1.734375 0.375,-3.46875 1.609375,-4.703125 0.125,-0.125 0.125,-0.140625 0.125,-0.171875 0,-0.078125 -0.03125,-0.109375 -0.09375,-0.109375 -0.109375,0 -1,0.6875 -1.59375,1.953125 -0.5,1.09375 -0.625,2.203125 -0.625,3.03125 0,0.78125 0.109375,1.984375 0.65625,3.125 C 2.25,1.84375 3.09375,2.5 3.203125,2.5 c 0.0625,0 0.09375,-0.03125 0.09375,-0.109375 z m 0,0"
             id="id-002d2697-b0ef-49d2-9a2d-1d74202593bc" />
        </g>
      </g>
      <g
         fill="#000000"
         fill-opacity="1"
         id="id-716cf190-cbae-406e-96ac-fbc2ccf135ac"
         transform="matrix(1.33333,0,0,1.33333,-31.704683,-9.8353049)">
        <g
           transform="translate(193.703,134.765)"
           id="g32">
          <path
             d="M 3.328125,-3.015625 C 3.390625,-3.265625 3.625,-4.1875 4.3125,-4.1875 c 0.046875,0 0.296875,0 0.5,0.125 C 4.53125,-4 4.34375,-3.765625 4.34375,-3.515625 c 0,0.15625 0.109375,0.34375 0.375,0.34375 0.21875,0 0.53125,-0.171875 0.53125,-0.578125 0,-0.515625 -0.578125,-0.65625 -0.921875,-0.65625 -0.578125,0 -0.921875,0.53125 -1.046875,0.75 -0.25,-0.65625 -0.78125,-0.75 -1.078125,-0.75 -1.03125,0 -1.609375,1.28125 -1.609375,1.53125 0,0.109375 0.109375,0.109375 0.125,0.109375 0.078125,0 0.109375,-0.03125 0.125,-0.109375 0.34375,-1.0625 1,-1.3125 1.34375,-1.3125 0.1875,0 0.53125,0.09375 0.53125,0.671875 0,0.3125 -0.171875,0.96875 -0.53125,2.375 -0.15625,0.609375 -0.515625,1.03125 -0.953125,1.03125 -0.0625,0 -0.28125,0 -0.5,-0.125 0.25,-0.0625 0.46875,-0.265625 0.46875,-0.546875 0,-0.265625 -0.21875,-0.34375 -0.359375,-0.34375 -0.3125,0 -0.546875,0.25 -0.546875,0.578125 0,0.453125 0.484375,0.65625 0.921875,0.65625 0.671875,0 1.03125,-0.703125 1.046875,-0.75 0.125,0.359375 0.484375,0.75 1.078125,0.75 1.03125,0 1.59375,-1.28125 1.59375,-1.53125 0,-0.109375 -0.078125,-0.109375 -0.109375,-0.109375 -0.09375,0 -0.109375,0.046875 -0.140625,0.109375 -0.328125,1.078125 -1,1.3125 -1.3125,1.3125 -0.390625,0 -0.546875,-0.3125 -0.546875,-0.65625 0,-0.21875 0.046875,-0.4375 0.15625,-0.875 z m 0,0"
             id="id-61ee8c7e-0637-44da-ad07-a77df971d92d" />
        </g>
        <g
           transform="translate(199.397,134.765)"
           id="g33">
          <path
             d="m 2.03125,-0.015625 c 0,-0.65625 -0.25,-1.046875 -0.640625,-1.046875 -0.328125,0 -0.53125,0.25 -0.53125,0.53125 C 0.859375,-0.265625 1.0625,0 1.390625,0 1.5,0 1.640625,-0.046875 1.734375,-0.125 1.765625,-0.15625 1.78125,-0.15625 1.78125,-0.15625 c 0.015625,0 0.015625,0 0.015625,0.140625 0,0.75 -0.34375,1.34375 -0.671875,1.671875 -0.109375,0.109375 -0.109375,0.125 -0.109375,0.15625 0,0.078125 0.046875,0.109375 0.09375,0.109375 0.109375,0 0.921875,-0.765625 0.921875,-1.9375 z m 0,0"
             id="id-dc1f5642-2316-4846-8cb2-68973b6a26a9" />
        </g>
      </g>
      <g
         fill="#000000"
         fill-opacity="1"
         id="id-7fdf6cc1-7c58-4a2a-ab4b-c8d8321c2583"
         transform="matrix(1.33333,0,0,1.33333,-31.704683,-9.8353049)">
        <g
           transform="translate(203.828,134.765)"
           id="g34">
          <path
             d="M 3.328125,-3.015625 C 3.390625,-3.265625 3.625,-4.1875 4.3125,-4.1875 c 0.046875,0 0.296875,0 0.5,0.125 C 4.53125,-4 4.34375,-3.765625 4.34375,-3.515625 c 0,0.15625 0.109375,0.34375 0.375,0.34375 0.21875,0 0.53125,-0.171875 0.53125,-0.578125 0,-0.515625 -0.578125,-0.65625 -0.921875,-0.65625 -0.578125,0 -0.921875,0.53125 -1.046875,0.75 -0.25,-0.65625 -0.78125,-0.75 -1.078125,-0.75 -1.03125,0 -1.609375,1.28125 -1.609375,1.53125 0,0.109375 0.109375,0.109375 0.125,0.109375 0.078125,0 0.109375,-0.03125 0.125,-0.109375 0.34375,-1.0625 1,-1.3125 1.34375,-1.3125 0.1875,0 0.53125,0.09375 0.53125,0.671875 0,0.3125 -0.171875,0.96875 -0.53125,2.375 -0.15625,0.609375 -0.515625,1.03125 -0.953125,1.03125 -0.0625,0 -0.28125,0 -0.5,-0.125 0.25,-0.0625 0.46875,-0.265625 0.46875,-0.546875 0,-0.265625 -0.21875,-0.34375 -0.359375,-0.34375 -0.3125,0 -0.546875,0.25 -0.546875,0.578125 0,0.453125 0.484375,0.65625 0.921875,0.65625 0.671875,0 1.03125,-0.703125 1.046875,-0.75 0.125,0.359375 0.484375,0.75 1.078125,0.75 1.03125,0 1.59375,-1.28125 1.59375,-1.53125 0,-0.109375 -0.078125,-0.109375 -0.109375,-0.109375 -0.09375,0 -0.109375,0.046875 -0.140625,0.109375 -0.328125,1.078125 -1,1.3125 -1.3125,1.3125 -0.390625,0 -0.546875,-0.3125 -0.546875,-0.65625 0,-0.21875 0.046875,-0.4375 0.15625,-0.875 z m 0,0"
             id="id-fbb050bb-6d74-4b32-b0b8-45ca16898f4b" />
        </g>
      </g>
      <g
         fill="#000000"
         fill-opacity="1"
         id="id-4cc8c0cf-bcdc-40c7-9c80-36d8f7cd1bef"
         transform="matrix(1.33333,0,0,1.33333,-31.704683,-9.8353049)">
        <g
           transform="translate(209.518,131.149)"
           id="g35">
          <path
             d="M 3.515625,-1.265625 H 3.28125 c -0.015625,0.15625 -0.09375,0.5625 -0.1875,0.625 C 3.046875,-0.59375 2.515625,-0.59375 2.40625,-0.59375 H 1.125 c 0.734375,-0.640625 0.984375,-0.84375 1.390625,-1.171875 0.515625,-0.40625 1,-0.84375 1,-1.5 0,-0.84375 -0.734375,-1.359375 -1.625,-1.359375 -0.859375,0 -1.453125,0.609375 -1.453125,1.25 0,0.34375 0.296875,0.390625 0.375,0.390625 0.15625,0 0.359375,-0.125 0.359375,-0.375 0,-0.125 -0.046875,-0.375 -0.40625,-0.375 C 0.984375,-4.21875 1.453125,-4.375 1.78125,-4.375 c 0.703125,0 1.0625,0.546875 1.0625,1.109375 0,0.609375 -0.4375,1.078125 -0.65625,1.328125 L 0.515625,-0.265625 C 0.4375,-0.203125 0.4375,-0.1875 0.4375,0 h 2.875 z m 0,0"
             id="id-6378ecac-8311-4ef5-bc53-243c261cda62" />
        </g>
      </g>
      <g
         fill="#000000"
         fill-opacity="1"
         id="id-f7219add-d6af-4aa6-a23c-40c5b8317e73"
         transform="matrix(1.33333,0,0,1.33333,-31.704683,-9.8353049)">
        <g
           transform="translate(213.988,134.765)"
           id="g36">
          <path
             d="m 2.875,-2.5 c 0,-0.765625 -0.109375,-1.96875 -0.65625,-3.109375 -0.59375,-1.21875 -1.453125,-1.875 -1.546875,-1.875 -0.0625,0 -0.109375,0.046875 -0.109375,0.109375 0,0.03125 0,0.046875 0.1875,0.234375 0.984375,0.984375 1.546875,2.5625 1.546875,4.640625 0,1.71875 -0.359375,3.46875 -1.59375,4.71875 C 0.5625,2.34375 0.5625,2.359375 0.5625,2.390625 0.5625,2.453125 0.609375,2.5 0.671875,2.5 0.765625,2.5 1.671875,1.8125 2.25,0.546875 2.765625,-0.546875 2.875,-1.65625 2.875,-2.5 Z m 0,0"
             id="id-60f2395a-a4ff-49f0-8184-30a92ea632c0" />
        </g>
      </g>
    </g>
    <g
       transform="matrix(1.33333,0,0,1.33333,56.783921,60.466332)"
       ns13:version="1.11.0"
       ns13:texconverter="pdflatex"
       ns13:pdfconverter="inkscape"
       ns13:text="$y = x^2$"
       ns13:preamble="/Users/ketiboldiais/Library/Application Support/org.inkscape.Inkscape/config/inkscape/extensions/textext/default_packages.tex"
       ns13:scale="1.0"
       ns13:alignment="middle center"
       ns13:inkscapeversion="1.4"
       ns13:jacobian_sqrt="1.33333"
       id="g43"
       style="fill:#c74848;fill-opacity:1">
      <defs
         id="id-fb7a84c6-e889-4eb1-9920-378147f204a7">
        <g
           id="id-95c3bf52-d968-4e8a-b04e-8c703e8afc01">
          <g
             id="id-bbe014c1-9444-4eb0-be28-3e84ca9792e5">
            <path
               d="m 4.84375,-3.796875 c 0.046875,-0.140625 0.046875,-0.15625 0.046875,-0.234375 0,-0.171875 -0.140625,-0.265625 -0.296875,-0.265625 -0.09375,0 -0.25,0.0625 -0.34375,0.203125 -0.015625,0.0625 -0.109375,0.359375 -0.140625,0.546875 -0.078125,0.25 -0.140625,0.53125 -0.203125,0.796875 l -0.453125,1.796875 c -0.03125,0.140625 -0.46875,0.84375 -1.125,0.84375 -0.5,0 -0.609375,-0.4375 -0.609375,-0.8125 C 1.71875,-1.375 1.890625,-2 2.21875,-2.875 2.375,-3.28125 2.421875,-3.390625 2.421875,-3.59375 c 0,-0.4375 -0.3125,-0.8125 -0.8125,-0.8125 -0.953125,0 -1.3125,1.453125 -1.3125,1.53125 0,0.109375 0.09375,0.109375 0.109375,0.109375 0.109375,0 0.109375,-0.03125 0.15625,-0.1875 0.28125,-0.9375 0.671875,-1.234375 1.015625,-1.234375 0.078125,0 0.25,0 0.25,0.3125 0,0.25 -0.109375,0.515625 -0.171875,0.703125 -0.40625,1.0625 -0.578125,1.625 -0.578125,2.09375 0,0.890625 0.625,1.1875 1.21875,1.1875 0.390625,0 0.71875,-0.171875 1,-0.453125 -0.125,0.515625 -0.25,1.015625 -0.640625,1.546875 -0.265625,0.328125 -0.640625,0.625 -1.09375,0.625 -0.140625,0 -0.59375,-0.03125 -0.765625,-0.421875 0.15625,0 0.296875,0 0.421875,-0.125 C 1.328125,1.203125 1.421875,1.0625 1.421875,0.875 1.421875,0.5625 1.15625,0.53125 1.0625,0.53125 0.828125,0.53125 0.5,0.6875 0.5,1.171875 c 0,0.5 0.4375,0.875 1.0625,0.875 1.015625,0 2.046875,-0.90625 2.328125,-2.03125 z m 0,0"
               id="id-0e990317-53d5-4089-b6d7-fcd87f21dd9e" />
          </g>
          <g
             id="id-72eeb316-c14b-45f9-ac68-df6e46b351d7">
            <path
               d="M 3.328125,-3.015625 C 3.390625,-3.265625 3.625,-4.1875 4.3125,-4.1875 c 0.046875,0 0.296875,0 0.5,0.125 C 4.53125,-4 4.34375,-3.765625 4.34375,-3.515625 c 0,0.15625 0.109375,0.34375 0.375,0.34375 0.21875,0 0.53125,-0.171875 0.53125,-0.578125 0,-0.515625 -0.578125,-0.65625 -0.921875,-0.65625 -0.578125,0 -0.921875,0.53125 -1.046875,0.75 -0.25,-0.65625 -0.78125,-0.75 -1.078125,-0.75 -1.03125,0 -1.609375,1.28125 -1.609375,1.53125 0,0.109375 0.109375,0.109375 0.125,0.109375 0.078125,0 0.109375,-0.03125 0.125,-0.109375 0.34375,-1.0625 1,-1.3125 1.34375,-1.3125 0.1875,0 0.53125,0.09375 0.53125,0.671875 0,0.3125 -0.171875,0.96875 -0.53125,2.375 -0.15625,0.609375 -0.515625,1.03125 -0.953125,1.03125 -0.0625,0 -0.28125,0 -0.5,-0.125 0.25,-0.0625 0.46875,-0.265625 0.46875,-0.546875 0,-0.265625 -0.21875,-0.34375 -0.359375,-0.34375 -0.3125,0 -0.546875,0.25 -0.546875,0.578125 0,0.453125 0.484375,0.65625 0.921875,0.65625 0.671875,0 1.03125,-0.703125 1.046875,-0.75 0.125,0.359375 0.484375,0.75 1.078125,0.75 1.03125,0 1.59375,-1.28125 1.59375,-1.53125 0,-0.109375 -0.078125,-0.109375 -0.109375,-0.109375 -0.09375,0 -0.109375,0.046875 -0.140625,0.109375 -0.328125,1.078125 -1,1.3125 -1.3125,1.3125 -0.390625,0 -0.546875,-0.3125 -0.546875,-0.65625 0,-0.21875 0.046875,-0.4375 0.15625,-0.875 z m 0,0"
               id="id-300913c7-f065-4dc9-b654-9f4b036ffa21" />
          </g>
          <g
             id="id-af8d8477-020d-452d-8c1a-c5932db4a62f">
            <path
               d="m 6.84375,-3.265625 c 0.15625,0 0.34375,0 0.34375,-0.1875 C 7.1875,-3.65625 7,-3.65625 6.859375,-3.65625 h -5.96875 c -0.140625,0 -0.328125,0 -0.328125,0.203125 0,0.1875 0.1875,0.1875 0.328125,0.1875 z m 0.015625,1.9375 c 0.140625,0 0.328125,0 0.328125,-0.203125 0,-0.1875 -0.1875,-0.1875 -0.34375,-0.1875 H 0.890625 c -0.140625,0 -0.328125,0 -0.328125,0.1875 0,0.203125 0.1875,0.203125 0.328125,0.203125 z m 0,0"
               id="id-a9b01c27-a4c4-4eef-8a55-e1cbf87cb5fe" />
          </g>
          <g
             id="id-f9163918-c1c2-445d-ac90-6ff331c7e8a5">
            <path
               d="M 3.515625,-1.265625 H 3.28125 c -0.015625,0.15625 -0.09375,0.5625 -0.1875,0.625 C 3.046875,-0.59375 2.515625,-0.59375 2.40625,-0.59375 H 1.125 c 0.734375,-0.640625 0.984375,-0.84375 1.390625,-1.171875 0.515625,-0.40625 1,-0.84375 1,-1.5 0,-0.84375 -0.734375,-1.359375 -1.625,-1.359375 -0.859375,0 -1.453125,0.609375 -1.453125,1.25 0,0.34375 0.296875,0.390625 0.375,0.390625 0.15625,0 0.359375,-0.125 0.359375,-0.375 0,-0.125 -0.046875,-0.375 -0.40625,-0.375 C 0.984375,-4.21875 1.453125,-4.375 1.78125,-4.375 c 0.703125,0 1.0625,0.546875 1.0625,1.109375 0,0.609375 -0.4375,1.078125 -0.65625,1.328125 L 0.515625,-0.265625 C 0.4375,-0.203125 0.4375,-0.1875 0.4375,0 h 2.875 z m 0,0"
               id="id-cfaa4dea-1d80-4943-a413-5a8244fc1aed" />
          </g>
        </g>
      </defs>
      <g
         fill="#000000"
         fill-opacity="1"
         id="id-70e9248d-7ef2-4349-a864-4ca28abe6f4d"
         transform="translate(-149.009,-126.524)"
         style="fill:#c74848;fill-opacity:1">
        <g
           transform="translate(148.712,134.765)"
           id="g39"
           style="fill:#c74848;fill-opacity:1">
          <path
             d="m 4.84375,-3.796875 c 0.046875,-0.140625 0.046875,-0.15625 0.046875,-0.234375 0,-0.171875 -0.140625,-0.265625 -0.296875,-0.265625 -0.09375,0 -0.25,0.0625 -0.34375,0.203125 -0.015625,0.0625 -0.109375,0.359375 -0.140625,0.546875 -0.078125,0.25 -0.140625,0.53125 -0.203125,0.796875 l -0.453125,1.796875 c -0.03125,0.140625 -0.46875,0.84375 -1.125,0.84375 -0.5,0 -0.609375,-0.4375 -0.609375,-0.8125 C 1.71875,-1.375 1.890625,-2 2.21875,-2.875 2.375,-3.28125 2.421875,-3.390625 2.421875,-3.59375 c 0,-0.4375 -0.3125,-0.8125 -0.8125,-0.8125 -0.953125,0 -1.3125,1.453125 -1.3125,1.53125 0,0.109375 0.09375,0.109375 0.109375,0.109375 0.109375,0 0.109375,-0.03125 0.15625,-0.1875 0.28125,-0.9375 0.671875,-1.234375 1.015625,-1.234375 0.078125,0 0.25,0 0.25,0.3125 0,0.25 -0.109375,0.515625 -0.171875,0.703125 -0.40625,1.0625 -0.578125,1.625 -0.578125,2.09375 0,0.890625 0.625,1.1875 1.21875,1.1875 0.390625,0 0.71875,-0.171875 1,-0.453125 -0.125,0.515625 -0.25,1.015625 -0.640625,1.546875 -0.265625,0.328125 -0.640625,0.625 -1.09375,0.625 -0.140625,0 -0.59375,-0.03125 -0.765625,-0.421875 0.15625,0 0.296875,0 0.421875,-0.125 C 1.328125,1.203125 1.421875,1.0625 1.421875,0.875 1.421875,0.5625 1.15625,0.53125 1.0625,0.53125 0.828125,0.53125 0.5,0.6875 0.5,1.171875 c 0,0.5 0.4375,0.875 1.0625,0.875 1.015625,0 2.046875,-0.90625 2.328125,-2.03125 z m 0,0"
             id="id-8b7374ea-e92e-4023-9b88-97a8f93aa977"
             style="fill:#c74848;fill-opacity:1" />
        </g>
      </g>
      <g
         fill="#000000"
         fill-opacity="1"
         id="id-731cf822-4b83-4326-ab6a-9a7782c653e7"
         transform="translate(-149.009,-126.524)"
         style="fill:#c74848;fill-opacity:1">
        <g
           transform="translate(156.722,134.765)"
           id="g40"
           style="fill:#c74848;fill-opacity:1">
          <path
             d="m 6.84375,-3.265625 c 0.15625,0 0.34375,0 0.34375,-0.1875 C 7.1875,-3.65625 7,-3.65625 6.859375,-3.65625 h -5.96875 c -0.140625,0 -0.328125,0 -0.328125,0.203125 0,0.1875 0.1875,0.1875 0.328125,0.1875 z m 0.015625,1.9375 c 0.140625,0 0.328125,0 0.328125,-0.203125 0,-0.1875 -0.1875,-0.1875 -0.34375,-0.1875 H 0.890625 c -0.140625,0 -0.328125,0 -0.328125,0.1875 0,0.203125 0.1875,0.203125 0.328125,0.203125 z m 0,0"
             id="id-a69432d6-aee5-433d-984f-9fe38d9763dd"
             style="fill:#c74848;fill-opacity:1" />
        </g>
      </g>
      <g
         fill="#000000"
         fill-opacity="1"
         id="id-5f911bfc-9e52-4043-9c39-0be02b99210d"
         transform="translate(-149.009,-126.524)"
         style="fill:#c74848;fill-opacity:1">
        <g
           transform="translate(167.238,134.765)"
           id="g41"
           style="fill:#c74848;fill-opacity:1">
          <path
             d="M 3.328125,-3.015625 C 3.390625,-3.265625 3.625,-4.1875 4.3125,-4.1875 c 0.046875,0 0.296875,0 0.5,0.125 C 4.53125,-4 4.34375,-3.765625 4.34375,-3.515625 c 0,0.15625 0.109375,0.34375 0.375,0.34375 0.21875,0 0.53125,-0.171875 0.53125,-0.578125 0,-0.515625 -0.578125,-0.65625 -0.921875,-0.65625 -0.578125,0 -0.921875,0.53125 -1.046875,0.75 -0.25,-0.65625 -0.78125,-0.75 -1.078125,-0.75 -1.03125,0 -1.609375,1.28125 -1.609375,1.53125 0,0.109375 0.109375,0.109375 0.125,0.109375 0.078125,0 0.109375,-0.03125 0.125,-0.109375 0.34375,-1.0625 1,-1.3125 1.34375,-1.3125 0.1875,0 0.53125,0.09375 0.53125,0.671875 0,0.3125 -0.171875,0.96875 -0.53125,2.375 -0.15625,0.609375 -0.515625,1.03125 -0.953125,1.03125 -0.0625,0 -0.28125,0 -0.5,-0.125 0.25,-0.0625 0.46875,-0.265625 0.46875,-0.546875 0,-0.265625 -0.21875,-0.34375 -0.359375,-0.34375 -0.3125,0 -0.546875,0.25 -0.546875,0.578125 0,0.453125 0.484375,0.65625 0.921875,0.65625 0.671875,0 1.03125,-0.703125 1.046875,-0.75 0.125,0.359375 0.484375,0.75 1.078125,0.75 1.03125,0 1.59375,-1.28125 1.59375,-1.53125 0,-0.109375 -0.078125,-0.109375 -0.109375,-0.109375 -0.09375,0 -0.109375,0.046875 -0.140625,0.109375 -0.328125,1.078125 -1,1.3125 -1.3125,1.3125 -0.390625,0 -0.546875,-0.3125 -0.546875,-0.65625 0,-0.21875 0.046875,-0.4375 0.15625,-0.875 z m 0,0"
             id="id-2265f421-9884-4c40-b8c8-9e463507bf2a"
             style="fill:#c74848;fill-opacity:1" />
        </g>
      </g>
      <g
         fill="#000000"
         fill-opacity="1"
         id="id-f070993d-bc08-4810-8d8d-f56fd8cacc0d"
         transform="translate(-149.009,-126.524)"
         style="fill:#c74848;fill-opacity:1">
        <g
           transform="translate(172.932,131.149)"
           id="g42"
           style="fill:#c74848;fill-opacity:1">
          <path
             d="M 3.515625,-1.265625 H 3.28125 c -0.015625,0.15625 -0.09375,0.5625 -0.1875,0.625 C 3.046875,-0.59375 2.515625,-0.59375 2.40625,-0.59375 H 1.125 c 0.734375,-0.640625 0.984375,-0.84375 1.390625,-1.171875 0.515625,-0.40625 1,-0.84375 1,-1.5 0,-0.84375 -0.734375,-1.359375 -1.625,-1.359375 -0.859375,0 -1.453125,0.609375 -1.453125,1.25 0,0.34375 0.296875,0.390625 0.375,0.390625 0.15625,0 0.359375,-0.125 0.359375,-0.375 0,-0.125 -0.046875,-0.375 -0.40625,-0.375 C 0.984375,-4.21875 1.453125,-4.375 1.78125,-4.375 c 0.703125,0 1.0625,0.546875 1.0625,1.109375 0,0.609375 -0.4375,1.078125 -0.65625,1.328125 L 0.515625,-0.265625 C 0.4375,-0.203125 0.4375,-0.1875 0.4375,0 h 2.875 z m 0,0"
             id="id-6f0918e9-34b2-4c8f-800f-0b731e51873a"
             style="fill:#c74848;fill-opacity:1" />
        </g>
      </g>
    </g>
  </g>
</svg>
