<?xml version="1.0" encoding="UTF-8" standalone="no"?>
<!-- Created with Inkscape (http://www.inkscape.org/) -->

<svg
   version="1.1"
   id="svg1"
   width="137.07031"
   height="526.01172"
   viewBox="0 0 137.07032 526.01172"
   sodipodi:docname="tetrahedral_tree.svg"
   inkscape:version="1.4 (e7c3feb1, 2024-10-09)"
   xmlns:inkscape="http://www.inkscape.org/namespaces/inkscape"
   xmlns:sodipodi="http://sodipodi.sourceforge.net/DTD/sodipodi-0.dtd"
   xmlns="http://www.w3.org/2000/svg"
   xmlns:svg="http://www.w3.org/2000/svg">
  <defs
     id="defs1" />
  <sodipodi:namedview
     id="namedview1"
     pagecolor="#ffffff"
     bordercolor="#000000"
     borderopacity="0.25"
     inkscape:showpageshadow="2"
     inkscape:pageopacity="0.0"
     inkscape:pagecheckerboard="0"
     inkscape:deskcolor="#d1d1d1"
     inkscape:zoom="1.1808028"
     inkscape:cx="156.24964"
     inkscape:cy="228.23456"
     inkscape:window-width="1512"
     inkscape:window-height="916"
     inkscape:window-x="0"
     inkscape:window-y="38"
     inkscape:window-maximized="0"
     inkscape:current-layer="g1"
     showgrid="false">
    <inkscape:grid
       id="grid42"
       units="px"
       originx="-4.8046878"
       originy="-5.6171874"
       spacingx="1"
       spacingy="1"
       empcolor="#0099e5"
       empopacity="0.30196078"
       color="#0099e5"
       opacity="0.14901961"
       empspacing="5"
       enabled="true"
       visible="false" />
  </sodipodi:namedview>
  <g
     id="g1"
     inkscape:groupmode="layer"
     inkscape:label="1"
     transform="translate(-4.8046875,-5.6171874)">
    <path
       id="path1"
       d="m 6.6484374,270.13281 v -1.46875 l -1.8437499,0.15625 v 0.40625 c 0.921875,0 1.0312499,0.0937 1.0312499,0.75 v 3.54688 c 0,0.60937 -0.1406249,0.60937 -1.0312499,0.60937 v 0.40625 c 0.515625,-0.0156 1.140625,-0.0469 1.515625,-0.0469 0.53125,0 1.15625,0 1.6874999,0.0469 v -0.40625 H 7.7265625 c -0.9843751,0 -1.0156251,-0.15625 -1.0156251,-0.625 v -2.04687 c 0,-1.3125 0.5625,-2.5 1.578125,-2.5 0.078125,0 0.1093747,0 0.140625,0.0156 -0.046875,0.0156 -0.3125,0.17188 -0.3125,0.51563 0,0.375 0.28125,0.57812 0.578125,0.57812 0.234375,0 0.5625,-0.17187 0.5625,-0.59375 0,-0.42187 -0.40625,-0.8125 -0.96875,-0.8125 -0.984375,0 -1.453125,0.89063 -1.640625,1.46875 z m 9.2343746,1.5625 c 0,-1.70312 -1.328125,-3.10937 -2.921875,-3.10937 -1.671875,0 -2.953125,1.45312 -2.953125,3.10937 0,1.71875 1.375,2.98438 2.9375,2.98438 1.609375,0 2.9375,-1.29688 2.9375,-2.98438 z m -2.921875,2.65625 c -0.578125,0 -1.15625,-0.28125 -1.515625,-0.89062 -0.34375,-0.57813 -0.34375,-1.39063 -0.34375,-1.875 0,-0.51563 0,-1.23438 0.328125,-1.8125 0.359375,-0.60938 0.984375,-0.89063 1.515625,-0.89063 0.578125,0 1.15625,0.29688 1.5,0.85938 0.34375,0.57812 0.34375,1.34375 0.34375,1.84375 0,0.48437 0,1.20312 -0.296875,1.78125 -0.296875,0.59375 -0.875,0.98437 -1.53125,0.98437 z m 5.656251,-9.03125 -1.906251,0.14063 v 0.42187 c 0.9375,0 1.03125,0.0937 1.03125,0.73438 v 6.90625 c 0,0.60937 -0.140625,0.60937 -1.03125,0.60937 v 0.40625 c 0.4375,-0.0156 1.140625,-0.0469 1.468751,-0.0469 0.343749,0 0.984374,0.0312 1.484374,0.0469 v -0.40625 c -0.890625,0 -1.046874,0 -1.046874,-0.60937 z m 3.691405,0 -1.906249,0.14063 v 0.42187 c 0.9375,0 1.031249,0.0937 1.031249,0.73438 v 6.90625 c 0,0.60937 -0.140624,0.60937 -1.031249,0.60937 v 0.40625 c 0.4375,-0.0156 1.140625,-0.0469 1.468749,-0.0469 0.343751,0 0.984376,0.0312 1.484376,0.0469 v -0.40625 c -0.890625,0 -1.046876,0 -1.046876,-0.60937 z m 0,0"
       style="fill:#000000;fill-opacity:1;fill-rule:nonzero;stroke:none;stroke-width:1.33333"
       aria-label="roll" />
    <path
       id="path2"
       d="m 2.9296953,-6.3763984 c 0,-0.234375 0,-0.2578125 -0.234375,-0.2578125 -0.609375,0.6328125 -1.4882812,0.6328125 -1.80468749,0.6328125 v 0.3164062 c 0.19921879,0 0.78515629,0 1.30078129,-0.2578125 v 5.15625001 c 0,0.3515625 -0.035156,0.48046875 -0.9257813,0.48046875 H 0.94922656 v 0.3046875 C 1.3007891,-0.03655469 2.1562578,-0.03655469 2.5546953,-0.03655469 c 0.3984375,0 1.265625,0 1.6171875,0.03515625 v -0.3046875 H 3.8554766 c -0.9023438,0 -0.9257813,-0.1171875 -0.9257813,-0.48046875 z m 0,0"
       style="fill:#000000;fill-opacity:1;fill-rule:nonzero;stroke:none"
       aria-label="1"
       transform="matrix(1.3333333,0,0,1.3333333,84.277333,66.857333)" />
    <path
       id="path3"
       d="m 3.2929375,2.3910781 c 0,-0.035156 0,-0.046875 -0.1640625,-0.2226562 -1.2421875,-1.25390627 -1.5703125,-3.12890627 -1.5703125,-4.6640625 0,-1.7226563 0.3867188,-3.4570313 1.6054688,-4.7109375 0.1289062,-0.1171875 0.1289062,-0.1289063 0.1289062,-0.1640625 0,-0.070312 -0.035156,-0.1054688 -0.09375,-0.1054688 -0.1054687,0 -0.9960937,0.6796875 -1.5820312,1.9453125 -0.515625,1.1015625 -0.63281255,2.203125 -0.63281255,3.0351563 0,0.7851562 0.11718755,1.99218748 0.65625005,3.11718748 0.5976562,1.21875002 1.453125,1.87500002 1.5585937,1.87500002 0.058594,0 0.09375,-0.035156 0.09375,-0.1054688 z m 3.5097656,-8.765625 c 0,-0.234375 0,-0.2578125 -0.234375,-0.2578125 -0.609375,0.6328125 -1.4882812,0.6328125 -1.8046875,0.6328125 v 0.3164063 c 0.1992188,0 0.7851563,0 1.3007813,-0.2578125 v 5.15624998 c 0,0.3515625 -0.035156,0.48046875 -0.9257813,0.48046875 H 4.8222344 V 4.53125e-4 C 5.1737969,-0.03470312 6.0292656,-0.03470312 6.4277031,-0.03470312 c 0.3984375,0 1.265625,0 1.6171875,0.035156245 V -0.30423437 H 7.7284844 c -0.9023438,0 -0.9257813,-0.1171875 -0.9257813,-0.48046875 z m 4.0810549,6.36328128 c 0,-0.6328125 -0.246094,-1.04296878 -0.644531,-1.04296878 -0.3515629,0 -0.5273442,0.26953128 -0.5273442,0.52734378 0,0.2578125 0.1757813,0.527343745 0.5273442,0.527343745 0.164062,0 0.28125,-0.058593745 0.375,-0.140624995 l 0.02344,-0.0234375 c 0.01172,0 0.02344,0.0117188 0.02344,0.15234375 0,0.64453125 -0.28125,1.24218752 -0.7148442,1.71093752 -0.058594,0.058594 -0.070312,0.070312 -0.070312,0.1171875 0,0.070312 0.046875,0.1054687 0.09375,0.1054687 0.1171882,0 0.9140632,-0.7851562 0.9140632,-1.93359372 z m 3.667969,-6.36328128 c 0,-0.234375 0,-0.2578125 -0.234375,-0.2578125 -0.609375,0.6328125 -1.488282,0.6328125 -1.804688,0.6328125 v 0.3164063 c 0.199219,0 0.785156,0 1.300781,-0.2578125 v 5.15624998 c 0,0.3515625 -0.03516,0.48046875 -0.925781,0.48046875 H 12.571258 V 4.53125e-4 c 0.351562,-0.035156245 1.207031,-0.035156245 1.605469,-0.035156245 0.398437,0 1.265625,0 1.617187,0.035156245 V -0.30423437 h -0.316406 c -0.902344,0 -0.925781,-0.1171875 -0.925781,-0.48046875 z m 4.936523,3.8789063 c 0,-0.7734375 -0.117187,-1.9804688 -0.65625,-3.1054688 -0.597656,-1.21875 -1.464844,-1.875 -1.558594,-1.875 -0.05859,0 -0.105468,0.046875 -0.105468,0.1054688 0,0.035156 0,0.046875 0.199218,0.234375 0.972657,0.984375 1.535157,2.5664062 1.535157,4.640625 0,1.71093748 -0.363282,3.45703123 -1.59375,4.7226562 -0.140625,0.1171875 -0.140625,0.1289063 -0.140625,0.1640625 0,0.058594 0.04687,0.1054688 0.105468,0.1054688 0.09375,0 0.996094,-0.6796875 1.582032,-1.94531252 0.503906,-1.1015625 0.632812,-2.20312498 0.632812,-3.04687498 z m 0,0"
       style="fill:#000000;fill-opacity:1;fill-rule:nonzero;stroke:none"
       aria-label="(1,1)"
       transform="matrix(1.3333333,0,0,1.3333333,115.89067,15.585333)" />
    <path
       id="path4"
       d="m 3.2929375,2.3898438 c 0,-0.035156 0,-0.046875 -0.1640625,-0.2226563 C 1.8866875,0.91328125 1.5585625,-0.96171875 1.5585625,-2.496875 c 0,-1.7226562 0.3867188,-3.4570312 1.6054688,-4.7109375 C 3.2929375,-7.325 3.2929375,-7.3367187 3.2929375,-7.371875 c 0,-0.070312 -0.035156,-0.1054687 -0.09375,-0.1054687 -0.1054687,0 -0.9960937,0.6796875 -1.5820312,1.9453125 -0.515625,1.1015625 -0.63281255,2.203125 -0.63281255,3.0351562 0,0.7851563 0.11718755,1.9921875 0.65625005,3.1171875 0.5976562,1.21875 1.453125,1.875 1.5585937,1.875 0.058594,0 0.09375,-0.035156 0.09375,-0.1054687 z m 3.5097656,-8.765625 c 0,-0.234375 0,-0.2578125 -0.234375,-0.2578125 -0.609375,0.6328125 -1.4882812,0.6328125 -1.8046875,0.6328125 v 0.3164062 c 0.1992188,0 0.7851563,0 1.3007813,-0.2578125 v 5.15625 c 0,0.3515625 -0.035156,0.48046875 -0.9257813,0.48046875 H 4.8222344 v 0.3046875 C 5.1737969,-0.0359375 6.0292656,-0.0359375 6.4277031,-0.0359375 c 0.3984375,0 1.265625,0 1.6171875,0.03515625 v -0.3046875 H 7.7284844 c -0.9023438,0 -0.9257813,-0.1171875 -0.9257813,-0.48046875 z M 10.883758,-0.0125 c 0,-0.6328125 -0.246094,-1.0429687 -0.644531,-1.0429687 -0.3515629,0 -0.5273442,0.2695312 -0.5273442,0.5273437 0,0.2578125 0.1757813,0.52734375 0.5273442,0.52734375 0.164062,0 0.28125,-0.05859375 0.375,-0.140625 l 0.02344,-0.0234375 c 0.01172,0 0.02344,0.0117188 0.02344,0.15234375 0,0.64453125 -0.28125,1.2421875 -0.7148442,1.7109375 -0.058594,0.058594 -0.070312,0.070312 -0.070312,0.1171875 0,0.070312 0.046875,0.1054688 0.09375,0.1054688 0.1171882,0 0.9140632,-0.7851563 0.9140632,-1.9335938 z m 2.003906,-0.75 1.054688,-1.03125 c 1.558593,-1.3710937 2.15625,-1.9101562 2.15625,-2.90625 0,-1.1367187 -0.902344,-1.9335937 -2.121094,-1.9335937 -1.125,0 -1.851563,0.9140625 -1.851563,1.8046875 0,0.5507812 0.492188,0.5507812 0.527344,0.5507812 0.164063,0 0.515625,-0.1171875 0.515625,-0.5273437 0,-0.2578125 -0.1875,-0.515625 -0.527344,-0.515625 -0.08203,0 -0.105468,0 -0.128906,0.011719 0.222656,-0.6445312 0.761719,-1.0195312 1.335938,-1.0195312 0.914062,0 1.335937,0.8085937 1.335937,1.6289062 0,0.796875 -0.492187,1.5820313 -1.042969,2.203125 l -1.910156,2.1328125 c -0.105469,0.10546875 -0.105469,0.12890625 -0.105469,0.36328125 h 3.691407 l 0.28125,-1.73437495 h -0.257813 c -0.04687,0.3046875 -0.117187,0.7382812 -0.210937,0.89062495 -0.07031,0.082031 -0.726563,0.082031 -0.949219,0.082031 z m 6.600586,-1.734375 c 0,-0.7734375 -0.117187,-1.9804687 -0.65625,-3.1054687 -0.597656,-1.21875 -1.464844,-1.875 -1.558594,-1.875 -0.05859,0 -0.105468,0.046875 -0.105468,0.1054687 0,0.035156 0,0.046875 0.199218,0.234375 0.972657,0.984375 1.535157,2.5664063 1.535157,4.640625 0,1.7109375 -0.363282,3.45703125 -1.59375,4.7226563 -0.140625,0.1171875 -0.140625,0.1289062 -0.140625,0.1640625 0,0.058594 0.04687,0.1054687 0.105468,0.1054687 0.09375,0 0.996094,-0.6796875 1.582032,-1.9453125 0.503906,-1.1015625 0.632812,-2.203125 0.632812,-3.046875 z m 0,0"
       style="fill:#000000;fill-opacity:1;fill-rule:nonzero;stroke:none"
       aria-label="(1,2)"
       transform="matrix(1.3333333,0,0,1.3333333,115.89067,49.766667)" />
    <path
       id="path5"
       d="m 3.2929375,2.3915391 c 0,-0.035156 0,-0.046875 -0.1640625,-0.2226563 -1.2421875,-1.25390624 -1.5703125,-3.12890624 -1.5703125,-4.6640625 0,-1.7226562 0.3867188,-3.4570312 1.6054688,-4.7109375 0.1289062,-0.1171875 0.1289062,-0.1289062 0.1289062,-0.1640625 0,-0.070312 -0.035156,-0.1054687 -0.09375,-0.1054687 -0.1054687,0 -0.9960937,0.6796875 -1.5820312,1.9453125 -0.515625,1.1015625 -0.63281255,2.203125 -0.63281255,3.0351562 0,0.7851563 0.11718755,1.99218751 0.65625005,3.11718751 0.5976562,1.21874999 1.453125,1.87499999 1.5585937,1.87499999 0.058594,0 0.09375,-0.035156 0.09375,-0.1054687 z m 3.5097656,-8.765625 c 0,-0.234375 0,-0.2578125 -0.234375,-0.2578125 -0.609375,0.6328125 -1.4882812,0.6328125 -1.8046875,0.6328125 v 0.3164062 c 0.1992188,0 0.7851563,0 1.3007813,-0.2578125 v 5.15625001 c 0,0.3515625 -0.035156,0.48046875 -0.9257813,0.48046875 H 4.8222344 V 9.140625e-4 C 5.1737969,-0.03424219 6.0292656,-0.03424219 6.4277031,-0.03424219 c 0.3984375,0 1.265625,0 1.6171875,0.0351562525 V -0.30377344 H 7.7284844 c -0.9023438,0 -0.9257813,-0.1171875 -0.9257813,-0.48046875 z m 4.0810549,6.36328121 c 0,-0.6328125 -0.246094,-1.04296871 -0.644531,-1.04296871 -0.3515629,0 -0.5273442,0.26953121 -0.5273442,0.52734371 0,0.2578125 0.1757813,0.5273437525 0.5273442,0.5273437525 0.164062,0 0.28125,-0.0585937525 0.375,-0.1406250025 l 0.02344,-0.0234375 c 0.01172,0 0.02344,0.0117188 0.02344,0.15234375 0,0.64453125 -0.28125,1.24218749 -0.7148442,1.71093749 -0.058594,0.058594 -0.070312,0.070312 -0.070312,0.1171875 0,0.070312 0.046875,0.1054688 0.09375,0.1054688 0.1171882,0 0.9140632,-0.7851563 0.9140632,-1.93359379 z M 14.51657,-3.5029922 c 0.808594,-0.2695312 1.394532,-0.9726562 1.394532,-1.7578125 0,-0.8203125 -0.878907,-1.3710937 -1.839844,-1.3710937 -1.007813,0 -1.757813,0.5976562 -1.757813,1.3476562 0,0.3398438 0.210938,0.5273438 0.503907,0.5273438 0.304687,0 0.503906,-0.2226563 0.503906,-0.515625 0,-0.4921875 -0.46875,-0.4921875 -0.609375,-0.4921875 0.304687,-0.4921875 0.960937,-0.6210938 1.324219,-0.6210938 0.410156,0 0.949218,0.2226563 0.949218,1.1132813 0,0.1289062 -0.01172,0.703125 -0.269531,1.1367187 -0.304687,0.4804688 -0.644531,0.515625 -0.890625,0.515625 -0.08203,0.011719 -0.316406,0.035156 -0.386719,0.035156 -0.08203,0.011719 -0.152343,0.023437 -0.152343,0.1171875 0,0.1171875 0.07031,0.1171875 0.234375,0.1171875 h 0.445312 c 0.808594,0 1.183594,0.6679687 1.183594,1.6523437 0,1.34765626 -0.691406,1.64062501 -1.125,1.64062501 -0.433594,0 -1.171875,-0.17578125 -1.523438,-0.76171875 0.351563,0.0585938 0.65625,-0.1640625 0.65625,-0.53906246 0,-0.3632813 -0.269531,-0.5625 -0.5625,-0.5625 -0.234375,0 -0.550781,0.140625 -0.550781,0.5742187 0,0.91406251 0.925781,1.57031251 2.003906,1.57031251 1.21875,0 2.121094,-0.9140625 2.121094,-1.92187501 0,-0.8203125 -0.621094,-1.59375 -1.652344,-1.8046872 z m 4.97168,1.0078125 c 0,-0.7734375 -0.117187,-1.9804687 -0.65625,-3.1054687 -0.597656,-1.21875 -1.464844,-1.875 -1.558594,-1.875 -0.05859,0 -0.105468,0.046875 -0.105468,0.1054687 0,0.035156 0,0.046875 0.199218,0.234375 0.972657,0.984375 1.535157,2.5664063 1.535157,4.640625 0,1.71093751 -0.363282,3.45703126 -1.59375,4.7226563 -0.140625,0.1171875 -0.140625,0.1289062 -0.140625,0.1640625 0,0.058594 0.04687,0.1054687 0.105468,0.1054687 0.09375,0 0.996094,-0.6796875 1.582032,-1.94531249 0.503906,-1.1015625 0.632812,-2.20312501 0.632812,-3.04687501 z m 0,0"
       style="fill:#000000;fill-opacity:1;fill-rule:nonzero;stroke:none"
       aria-label="(1,3)"
       transform="matrix(1.3333333,0,0,1.3333333,115.89067,83.948)" />
    <path
       id="path6"
       d="m 3.2929375,2.3903047 c 0,-0.035156 0,-0.046875 -0.1640625,-0.2226563 -1.2421875,-1.25390621 -1.5703125,-3.12890621 -1.5703125,-4.6640625 0,-1.7226562 0.3867188,-3.4570312 1.6054688,-4.7109375 0.1289062,-0.1171875 0.1289062,-0.1289062 0.1289062,-0.1640625 0,-0.070312 -0.035156,-0.1054687 -0.09375,-0.1054687 -0.1054687,0 -0.9960937,0.6796875 -1.5820312,1.9453125 -0.515625,1.1015625 -0.63281255,2.203125 -0.63281255,3.0351562 0,0.7851563 0.11718755,1.99218754 0.65625005,3.11718754 0.5976562,1.21874996 1.453125,1.87499996 1.5585937,1.87499996 0.058594,0 0.09375,-0.035156 0.09375,-0.1054687 z m 3.5097656,-8.765625 c 0,-0.234375 0,-0.2578125 -0.234375,-0.2578125 -0.609375,0.6328125 -1.4882812,0.6328125 -1.8046875,0.6328125 v 0.3164062 c 0.1992188,0 0.7851563,0 1.3007813,-0.2578125 v 5.15625004 c 0,0.3515625 -0.035156,0.48046875 -0.9257813,0.48046875 H 4.8222344 V -3.203125e-4 C 5.1737969,-0.03547656 6.0292656,-0.03547656 6.4277031,-0.03547656 c 0.3984375,0 1.265625,0 1.6171875,0.0351562475 V -0.30500781 H 7.7284844 c -0.9023438,0 -0.9257813,-0.1171875 -0.9257813,-0.48046875 z m 4.0810549,6.36328124 c 0,-0.6328125 -0.246094,-1.04296874 -0.644531,-1.04296874 -0.3515629,0 -0.5273442,0.26953124 -0.5273442,0.52734374 0,0.2578125 0.1757813,0.5273437475 0.5273442,0.5273437475 0.164062,0 0.28125,-0.0585937475 0.375,-0.1406249975 l 0.02344,-0.0234375 c 0.01172,0 0.02344,0.0117188 0.02344,0.15234375 0,0.64453125 -0.28125,1.24218746 -0.7148442,1.71093746 -0.058594,0.058594 -0.070312,0.070312 -0.070312,0.1171875 0,0.070312 0.046875,0.1054688 0.09375,0.1054688 0.1171882,0 0.9140632,-0.7851563 0.9140632,-1.93359376 z m 3.667969,-1.62890624 v 0.86718749 c 0,0.3515625 -0.02344,0.46875 -0.761719,0.46875 H 13.57907 v 0.3046874975 c 0.410157,-0.0351562475 0.9375,-0.0351562475 1.347657,-0.0351562475 0.421875,0 0.949218,0 1.359375,0.0351562475 V -0.30500781 h -0.210938 c -0.738281,0 -0.761719,-0.1171875 -0.761719,-0.46875 V -1.6409453 h 0.996094 v -0.3164063 h -0.996094 v -4.5234375 c 0,-0.1992187 0,-0.2578125 -0.152343,-0.2578125 -0.09375,0 -0.117188,0 -0.199219,0.1171875 l -3.058594,4.6640625 v 0.3164063 z m 0.05859,-0.3164063 h -2.425781 l 2.425781,-3.7148437 z m 4.87793,-0.5390625 c 0,-0.7734375 -0.117187,-1.9804687 -0.65625,-3.1054687 -0.597656,-1.21875 -1.464844,-1.875 -1.558594,-1.875 -0.05859,0 -0.105468,0.046875 -0.105468,0.1054687 0,0.035156 0,0.046875 0.199218,0.234375 0.972657,0.984375 1.535157,2.5664063 1.535157,4.640625 0,1.71093754 -0.363282,3.45703129 -1.59375,4.7226563 -0.140625,0.1171875 -0.140625,0.1289062 -0.140625,0.1640625 0,0.058594 0.04687,0.1054687 0.105468,0.1054687 0.09375,0 0.996094,-0.6796875 1.582032,-1.94531246 0.503906,-1.1015625 0.632812,-2.20312504 0.632812,-3.04687504 z m 0,0"
       style="fill:#000000;fill-opacity:1;fill-rule:nonzero;stroke:none"
       aria-label="(1,4)"
       transform="matrix(1.3333333,0,0,1.3333333,115.89067,118.12933)" />
    <path
       id="path7"
       d="M 1.2656328,-0.76119531 2.3203203,-1.7924453 c 1.5585938,-1.3710938 2.15625,-1.9101563 2.15625,-2.90625 0,-1.1367188 -0.9023437,-1.9335938 -2.1210937,-1.9335938 -1.125,0 -1.85156254,0.9140625 -1.85156254,1.8046875 0,0.5507813 0.4921875,0.5507813 0.52734374,0.5507813 0.1640625,0 0.515625,-0.1171875 0.515625,-0.5273438 0,-0.2578125 -0.1875,-0.515625 -0.5273437,-0.515625 -0.0820313,0 -0.10546879,0 -0.12890629,0.011719 0.22265629,-0.6445313 0.76171879,-1.0195313 1.33593749,-1.0195313 0.9140625,0 1.3359375,0.8085938 1.3359375,1.6289063 0,0.796875 -0.4921875,1.5820312 -1.0429687,2.203125 L 0.60938281,-0.36275781 C 0.50391406,-0.25728906 0.50391406,-0.23385156 0.50391406,5.234375e-4 H 4.1953203 L 4.4765703,-1.7338516 H 4.2187578 c -0.046875,0.3046875 -0.1171875,0.73828129 -0.2109375,0.89062504 -0.070312,0.0820313 -0.7265625,0.0820313 -0.9492187,0.0820313 z m 0,0"
       style="fill:#000000;fill-opacity:1;fill-rule:nonzero;stroke:none"
       aria-label="2"
       transform="matrix(1.3333333,0,0,1.3333333,84.277333,203.58133)" />
    <path
       id="path8"
       d="m 3.2929375,2.3900703 c 0,-0.035156 0,-0.046875 -0.1640625,-0.2226562 -1.2421875,-1.25390629 -1.5703125,-3.12890629 -1.5703125,-4.6640625 0,-1.7226563 0.3867188,-3.4570313 1.6054688,-4.7109375 0.1289062,-0.1171875 0.1289062,-0.1289063 0.1289062,-0.1640625 0,-0.070312 -0.035156,-0.1054688 -0.09375,-0.1054688 -0.1054687,0 -0.9960937,0.6796875 -1.5820312,1.9453125 -0.515625,1.1015625 -0.63281255,2.203125 -0.63281255,3.0351563 0,0.7851562 0.11718755,1.99218746 0.65625005,3.11718746 0.5976562,1.21875004 1.453125,1.87500004 1.5585937,1.87500004 0.058594,0 0.09375,-0.035156 0.09375,-0.1054688 z M 5.1386406,-0.76227344 6.1933281,-1.7935234 c 1.5585938,-1.3710938 2.15625,-1.9101563 2.15625,-2.90625 0,-1.1367188 -0.9023437,-1.9335938 -2.1210937,-1.9335938 -1.125,0 -1.8515625,0.9140625 -1.8515625,1.8046875 0,0.5507813 0.4921875,0.5507813 0.5273437,0.5507813 0.1640625,0 0.515625,-0.1171875 0.515625,-0.5273438 0,-0.2578125 -0.1875,-0.515625 -0.5273437,-0.515625 -0.082031,0 -0.1054688,0 -0.1289063,0.011719 0.2226563,-0.6445313 0.7617188,-1.0195313 1.3359375,-1.0195313 0.9140625,0 1.3359375,0.8085938 1.3359375,1.6289063 0,0.796875 -0.4921875,1.5820312 -1.0429687,2.203125 L 4.4823906,-0.36383594 C 4.3769219,-0.25836719 4.3769219,-0.23492969 4.3769219,-5.546875e-4 H 8.0683281 L 8.3495781,-1.7349297 H 8.0917656 c -0.046875,0.3046875 -0.1171875,0.73828126 -0.2109375,0.89062501 -0.070312,0.0820313 -0.7265625,0.0820313 -0.9492187,0.0820313 z m 5.7451174,0.75 c 0,-0.6328125 -0.246094,-1.04296876 -0.644531,-1.04296876 -0.3515629,0 -0.5273442,0.26953126 -0.5273442,0.52734376 0,0.2578125 0.1757813,0.5273437525 0.5273442,0.5273437525 0.164062,0 0.28125,-0.0585937525 0.375,-0.1406250025 l 0.02344,-0.0234375 c 0.01172,0 0.02344,0.0117188 0.02344,0.15234375 0,0.64453125 -0.28125,1.24218754 -0.7148442,1.71093754 -0.058594,0.058594 -0.070312,0.070312 -0.070312,0.1171875 0,0.070312 0.046875,0.1054687 0.09375,0.1054687 0.1171882,0 0.9140632,-0.7851562 0.9140632,-1.93359374 z m 3.667969,-6.36328126 c 0,-0.234375 0,-0.2578125 -0.234375,-0.2578125 -0.609375,0.6328125 -1.488282,0.6328125 -1.804688,0.6328125 v 0.3164063 c 0.199219,0 0.785156,0 1.300781,-0.2578125 v 5.15624996 c 0,0.3515625 -0.03516,0.48046875 -0.925781,0.48046875 H 12.571258 V -5.546875e-4 C 12.92282,-0.03571094 13.778289,-0.03571094 14.176727,-0.03571094 c 0.398437,0 1.265625,0 1.617187,0.0351562525 V -0.30524219 h -0.316406 c -0.902344,0 -0.925781,-0.1171875 -0.925781,-0.48046875 z m 4.936523,3.8789063 c 0,-0.7734375 -0.117187,-1.9804688 -0.65625,-3.1054688 -0.597656,-1.21875 -1.464844,-1.875 -1.558594,-1.875 -0.05859,0 -0.105468,0.046875 -0.105468,0.1054688 0,0.035156 0,0.046875 0.199218,0.234375 0.972657,0.984375 1.535157,2.5664062 1.535157,4.640625 0,1.71093746 -0.363282,3.45703121 -1.59375,4.7226562 -0.140625,0.1171875 -0.140625,0.1289063 -0.140625,0.1640625 0,0.058594 0.04687,0.1054688 0.105468,0.1054688 0.09375,0 0.996094,-0.6796875 1.582032,-1.94531254 0.503906,-1.1015625 0.632812,-2.20312496 0.632812,-3.04687496 z m 0,0"
       style="fill:#000000;fill-opacity:1;fill-rule:nonzero;stroke:none"
       aria-label="(2,1)"
       transform="matrix(1.3333333,0,0,1.3333333,115.89067,152.30933)" />
    <path
       id="path9"
       d="m 3.2929375,2.3917656 c 0,-0.035156 0,-0.046875 -0.1640625,-0.2226562 -1.2421875,-1.25390627 -1.5703125,-3.12890627 -1.5703125,-4.6640625 0,-1.7226563 0.3867188,-3.4570313 1.6054688,-4.7109375 0.1289062,-0.1171875 0.1289062,-0.1289063 0.1289062,-0.1640625 0,-0.070312 -0.035156,-0.1054688 -0.09375,-0.1054688 -0.1054687,0 -0.9960937,0.6796875 -1.5820312,1.9453125 -0.515625,1.1015625 -0.63281255,2.203125 -0.63281255,3.0351563 0,0.7851562 0.11718755,1.99218748 0.65625005,3.11718748 0.5976562,1.21875002 1.453125,1.87500002 1.5585937,1.87500002 0.058594,0 0.09375,-0.035156 0.09375,-0.1054688 z M 5.1386406,-0.76057812 6.1933281,-1.7918281 c 1.5585938,-1.3710938 2.15625,-1.9101563 2.15625,-2.90625 0,-1.1367188 -0.9023437,-1.9335938 -2.1210937,-1.9335938 -1.125,0 -1.8515625,0.9140625 -1.8515625,1.8046875 0,0.5507813 0.4921875,0.5507813 0.5273437,0.5507813 0.1640625,0 0.515625,-0.1171875 0.515625,-0.5273438 0,-0.2578125 -0.1875,-0.515625 -0.5273437,-0.515625 -0.082031,0 -0.1054688,0 -0.1289063,0.011719 0.2226563,-0.6445313 0.7617188,-1.0195313 1.3359375,-1.0195313 0.9140625,0 1.3359375,0.8085938 1.3359375,1.6289063 0,0.796875 -0.4921875,1.5820312 -1.0429687,2.203125 L 4.4823906,-0.36214062 C 4.3769219,-0.25667187 4.3769219,-0.23323437 4.3769219,0.00114063 h 3.6914062 l 0.28125,-1.73437503 H 8.0917656 c -0.046875,0.3046875 -0.1171875,0.73828128 -0.2109375,0.89062503 -0.070312,0.0820313 -0.7265625,0.0820313 -0.9492187,0.0820313 z m 5.7451174,0.75 c 0,-0.6328125 -0.246094,-1.04296878 -0.644531,-1.04296878 -0.3515629,0 -0.5273442,0.26953128 -0.5273442,0.52734378 0,0.2578125 0.1757813,0.52734375 0.5273442,0.52734375 0.164062,0 0.28125,-0.05859375 0.375,-0.140625 l 0.02344,-0.0234375 c 0.01172,0 0.02344,0.0117188 0.02344,0.15234375 0,0.64453125 -0.28125,1.24218752 -0.7148442,1.71093752 -0.058594,0.058594 -0.070312,0.070312 -0.070312,0.1171875 0,0.070312 0.046875,0.1054687 0.09375,0.1054687 0.1171882,0 0.9140632,-0.7851562 0.9140632,-1.93359372 z m 2.003906,-0.75 1.054688,-1.03124998 c 1.558593,-1.3710938 2.15625,-1.9101563 2.15625,-2.90625 0,-1.1367188 -0.902344,-1.9335938 -2.121094,-1.9335938 -1.125,0 -1.851563,0.9140625 -1.851563,1.8046875 0,0.5507813 0.492188,0.5507813 0.527344,0.5507813 0.164063,0 0.515625,-0.1171875 0.515625,-0.5273438 0,-0.2578125 -0.1875,-0.515625 -0.527344,-0.515625 -0.08203,0 -0.105468,0 -0.128906,0.011719 0.222656,-0.6445313 0.761719,-1.0195313 1.335938,-1.0195313 0.914062,0 1.335937,0.8085938 1.335937,1.6289063 0,0.796875 -0.492187,1.5820312 -1.042969,2.203125 l -1.910156,2.13281248 c -0.105469,0.10546875 -0.105469,0.12890625 -0.105469,0.36328125 h 3.691407 l 0.28125,-1.73437503 h -0.257813 c -0.04687,0.3046875 -0.117187,0.73828128 -0.210937,0.89062503 -0.07031,0.0820313 -0.726563,0.0820313 -0.949219,0.0820313 z M 19.48825,-2.4949531 c 0,-0.7734375 -0.117187,-1.9804688 -0.65625,-3.1054688 -0.597656,-1.21875 -1.464844,-1.875 -1.558594,-1.875 -0.05859,0 -0.105468,0.046875 -0.105468,0.1054688 0,0.035156 0,0.046875 0.199218,0.234375 0.972657,0.984375 1.535157,2.5664062 1.535157,4.640625 0,1.71093748 -0.363282,3.45703123 -1.59375,4.7226562 -0.140625,0.1171875 -0.140625,0.1289063 -0.140625,0.1640625 0,0.058594 0.04687,0.1054688 0.105468,0.1054688 0.09375,0 0.996094,-0.6796875 1.582032,-1.94531252 0.503906,-1.1015625 0.632812,-2.20312498 0.632812,-3.04687498 z m 0,0"
       style="fill:#000000;fill-opacity:1;fill-rule:nonzero;stroke:none"
       aria-label="(2,2)"
       transform="matrix(1.3333333,0,0,1.3333333,115.89067,186.49067)" />
    <path
       id="path10"
       d="m 3.2929375,2.3905313 c 0,-0.035156 0,-0.046875 -0.1640625,-0.2226563 -1.2421875,-1.25390625 -1.5703125,-3.12890625 -1.5703125,-4.6640625 0,-1.7226562 0.3867188,-3.4570312 1.6054688,-4.7109375 0.1289062,-0.1171875 0.1289062,-0.1289062 0.1289062,-0.1640625 0,-0.070312 -0.035156,-0.1054687 -0.09375,-0.1054687 -0.1054687,0 -0.9960937,0.6796875 -1.5820312,1.9453125 -0.515625,1.1015625 -0.63281255,2.203125 -0.63281255,3.0351562 0,0.7851563 0.11718755,1.9921875 0.65625005,3.1171875 0.5976562,1.21875 1.453125,1.875 1.5585937,1.875 0.058594,0 0.09375,-0.035156 0.09375,-0.1054687 z m 1.8457031,-3.1523438 1.0546875,-1.03125 c 1.5585938,-1.3710937 2.15625,-1.9101562 2.15625,-2.90625 0,-1.1367187 -0.9023437,-1.9335937 -2.1210937,-1.9335937 -1.125,0 -1.8515625,0.9140625 -1.8515625,1.8046875 0,0.5507812 0.4921875,0.5507812 0.5273437,0.5507812 0.1640625,0 0.515625,-0.1171875 0.515625,-0.5273437 0,-0.2578125 -0.1875,-0.515625 -0.5273437,-0.515625 -0.082031,0 -0.1054688,0 -0.1289063,0.011719 0.2226563,-0.6445312 0.7617188,-1.0195312 1.3359375,-1.0195312 0.9140625,0 1.3359375,0.8085937 1.3359375,1.6289062 0,0.796875 -0.4921875,1.5820313 -1.0429687,2.203125 L 4.4823906,-0.363375 C 4.3769219,-0.25790625 4.3769219,-0.23446875 4.3769219,-9.375e-5 h 3.6914062 l 0.28125,-1.73437495 H 8.0917656 c -0.046875,0.3046875 -0.1171875,0.7382812 -0.2109375,0.89062495 -0.070312,0.0820313 -0.7265625,0.0820313 -0.9492187,0.0820313 z m 5.7451174,0.75 c 0,-0.6328125 -0.246094,-1.0429687 -0.644531,-1.0429687 -0.3515629,0 -0.5273442,0.2695312 -0.5273442,0.5273437 0,0.2578125 0.1757813,0.52734375 0.5273442,0.52734375 0.164062,0 0.28125,-0.05859375 0.375,-0.140625 l 0.02344,-0.0234375 c 0.01172,0 0.02344,0.0117188 0.02344,0.15234375 0,0.64453125 -0.28125,1.2421875 -0.7148442,1.7109375 -0.058594,0.058594 -0.070312,0.070312 -0.070312,0.1171875 0,0.070312 0.046875,0.1054688 0.09375,0.1054688 0.1171882,0 0.9140632,-0.7851563 0.9140632,-1.9335938 z M 14.51657,-3.504 c 0.808594,-0.2695312 1.394532,-0.9726562 1.394532,-1.7578125 0,-0.8203125 -0.878907,-1.3710937 -1.839844,-1.3710937 -1.007813,0 -1.757813,0.5976562 -1.757813,1.3476562 0,0.3398438 0.210938,0.5273438 0.503907,0.5273438 0.304687,0 0.503906,-0.2226563 0.503906,-0.515625 0,-0.4921875 -0.46875,-0.4921875 -0.609375,-0.4921875 0.304687,-0.4921875 0.960937,-0.6210938 1.324219,-0.6210938 0.410156,0 0.949218,0.2226563 0.949218,1.1132813 0,0.1289062 -0.01172,0.703125 -0.269531,1.1367187 -0.304687,0.4804688 -0.644531,0.515625 -0.890625,0.515625 -0.08203,0.011719 -0.316406,0.035156 -0.386719,0.035156 -0.08203,0.011719 -0.152343,0.023437 -0.152343,0.1171875 0,0.1171875 0.07031,0.1171875 0.234375,0.1171875 h 0.445312 c 0.808594,0 1.183594,0.6679687 1.183594,1.6523437 0,1.34765625 -0.691406,1.640625 -1.125,1.640625 -0.433594,0 -1.171875,-0.17578125 -1.523438,-0.76171875 0.351563,0.0585938 0.65625,-0.1640625 0.65625,-0.53906245 0,-0.3632813 -0.269531,-0.5625 -0.5625,-0.5625 -0.234375,0 -0.550781,0.140625 -0.550781,0.5742187 0,0.9140625 0.925781,1.5703125 2.003906,1.5703125 1.21875,0 2.121094,-0.9140625 2.121094,-1.921875 0,-0.8203125 -0.621094,-1.59375 -1.652344,-1.8046872 z m 4.97168,1.0078125 c 0,-0.7734375 -0.117187,-1.9804687 -0.65625,-3.1054687 -0.597656,-1.21875 -1.464844,-1.875 -1.558594,-1.875 -0.05859,0 -0.105468,0.046875 -0.105468,0.1054687 0,0.035156 0,0.046875 0.199218,0.234375 0.972657,0.984375 1.535157,2.5664063 1.535157,4.640625 0,1.7109375 -0.363282,3.45703125 -1.59375,4.7226563 -0.140625,0.1171875 -0.140625,0.1289062 -0.140625,0.1640625 0,0.058594 0.04687,0.1054687 0.105468,0.1054687 0.09375,0 0.996094,-0.6796875 1.582032,-1.9453125 0.503906,-1.1015625 0.632812,-2.203125 0.632812,-3.046875 z m 0,0"
       style="fill:#000000;fill-opacity:1;fill-rule:nonzero;stroke:none"
       aria-label="(2,3)"
       transform="matrix(1.3333333,0,0,1.3333333,115.89067,220.672)" />
    <path
       id="path11"
       d="m 3.2929375,2.3892969 c 0,-0.035156 0,-0.046875 -0.1640625,-0.2226563 -1.2421875,-1.25390622 -1.5703125,-3.12890622 -1.5703125,-4.6640625 0,-1.7226562 0.3867188,-3.4570312 1.6054688,-4.7109375 0.1289062,-0.1171875 0.1289062,-0.1289062 0.1289062,-0.1640625 0,-0.070312 -0.035156,-0.1054687 -0.09375,-0.1054687 -0.1054687,0 -0.9960937,0.6796875 -1.5820312,1.9453125 -0.515625,1.1015625 -0.63281255,2.203125 -0.63281255,3.0351562 0,0.7851563 0.11718755,1.99218753 0.65625005,3.11718753 0.5976562,1.21874997 1.453125,1.87499997 1.5585937,1.87499997 0.058594,0 0.09375,-0.035156 0.09375,-0.1054687 z M 5.1386406,-0.76304687 6.1933281,-1.7942969 c 1.5585938,-1.3710937 2.15625,-1.9101562 2.15625,-2.90625 0,-1.1367187 -0.9023437,-1.9335937 -2.1210937,-1.9335937 -1.125,0 -1.8515625,0.9140625 -1.8515625,1.8046875 0,0.5507812 0.4921875,0.5507812 0.5273437,0.5507812 0.1640625,0 0.515625,-0.1171875 0.515625,-0.5273437 0,-0.2578125 -0.1875,-0.515625 -0.5273437,-0.515625 -0.082031,0 -0.1054688,0 -0.1289063,0.011719 0.2226563,-0.6445312 0.7617188,-1.0195312 1.3359375,-1.0195312 0.9140625,0 1.3359375,0.8085937 1.3359375,1.6289062 0,0.796875 -0.4921875,1.5820313 -1.0429687,2.203125 l -1.9101563,2.13281253 c -0.1054687,0.10546875 -0.1054687,0.12890625 -0.1054687,0.36328125 h 3.6914062 l 0.28125,-1.73437498 H 8.0917656 c -0.046875,0.3046875 -0.1171875,0.73828123 -0.2109375,0.89062498 -0.070312,0.0820313 -0.7265625,0.0820313 -0.9492187,0.0820313 z m 5.7451174,0.75 c 0,-0.6328125 -0.246094,-1.04296873 -0.644531,-1.04296873 -0.3515629,0 -0.5273442,0.26953123 -0.5273442,0.52734373 0,0.2578125 0.1757813,0.52734375 0.5273442,0.52734375 0.164062,0 0.28125,-0.05859375 0.375,-0.140625 l 0.02344,-0.0234375 c 0.01172,0 0.02344,0.0117188 0.02344,0.15234375 0,0.64453125 -0.28125,1.24218747 -0.7148442,1.71093747 -0.058594,0.058594 -0.070312,0.070312 -0.070312,0.1171875 0,0.070312 0.046875,0.1054688 0.09375,0.1054688 0.1171882,0 0.9140632,-0.7851563 0.9140632,-1.93359377 z m 3.667969,-1.62890623 v 0.86718748 c 0,0.3515625 -0.02344,0.46875 -0.761719,0.46875 H 13.57907 v 0.3046875 c 0.410157,-0.03515625 0.9375,-0.03515625 1.347657,-0.03515625 0.421875,0 0.949218,0 1.359375,0.03515625 v -0.3046875 h -0.210938 c -0.738281,0 -0.761719,-0.1171875 -0.761719,-0.46875 V -1.6419531 h 0.996094 v -0.3164063 h -0.996094 v -4.5234375 c 0,-0.1992187 0,-0.2578125 -0.152343,-0.2578125 -0.09375,0 -0.117188,0 -0.199219,0.1171875 l -3.058594,4.6640625 v 0.3164063 z m 0.05859,-0.3164063 h -2.425781 l 2.425781,-3.7148437 z m 4.87793,-0.5390625 c 0,-0.7734375 -0.117187,-1.9804687 -0.65625,-3.1054687 -0.597656,-1.21875 -1.464844,-1.875 -1.558594,-1.875 -0.05859,0 -0.105468,0.046875 -0.105468,0.1054687 0,0.035156 0,0.046875 0.199218,0.234375 0.972657,0.984375 1.535157,2.5664063 1.535157,4.640625 0,1.71093753 -0.363282,3.45703128 -1.59375,4.7226563 -0.140625,0.1171875 -0.140625,0.1289062 -0.140625,0.1640625 0,0.058594 0.04687,0.1054687 0.105468,0.1054687 0.09375,0 0.996094,-0.6796875 1.582032,-1.94531247 0.503906,-1.1015625 0.632812,-2.20312503 0.632812,-3.04687503 z m 0,0"
       style="fill:#000000;fill-opacity:1;fill-rule:nonzero;stroke:none"
       aria-label="(2,4)"
       transform="matrix(1.3333333,0,0,1.3333333,115.89067,254.85333)" />
    <path
       id="path12"
       d="m 2.8945391,-3.5043906 c 0.8085937,-0.2695313 1.3945312,-0.9726563 1.3945312,-1.7578125 0,-0.8203125 -0.8789062,-1.3710938 -1.8398437,-1.3710938 -1.0078125,0 -1.75781254,0.5976563 -1.75781254,1.3476563 0,0.3398437 0.2109375,0.5273437 0.50390624,0.5273437 0.3046875,0 0.5039063,-0.2226562 0.5039063,-0.515625 0,-0.4921875 -0.46875,-0.4921875 -0.609375,-0.4921875 0.3046875,-0.4921875 0.9609375,-0.6210937 1.3242187,-0.6210937 0.4101563,0 0.9492188,0.2226562 0.9492188,1.1132812 0,0.1289063 -0.011719,0.703125 -0.2695313,1.1367188 -0.3046875,0.4804687 -0.6445312,0.515625 -0.890625,0.515625 -0.082031,0.011719 -0.3164062,0.035156 -0.3867187,0.035156 -0.082031,0.011719 -0.1523438,0.023437 -0.1523438,0.1171875 0,0.1171875 0.070312,0.1171875 0.234375,0.1171875 h 0.4453125 c 0.8085938,0 1.1835938,0.6679688 1.1835938,1.6523438 0,1.34765623 -0.6914063,1.64062498 -1.125,1.64062498 -0.4335938,0 -1.171875,-0.17578125 -1.52343754,-0.76171875 0.35156254,0.0585938 0.65625004,-0.1640625 0.65625004,-0.53906253 0,-0.3632812 -0.2695313,-0.5625 -0.56250004,-0.5625 -0.234375,0 -0.55078125,0.140625 -0.55078125,0.5742188 0,0.91406248 0.92578129,1.57031248 2.00390629,1.57031248 1.21875,0 2.1210937,-0.9140625 2.1210937,-1.92187498 0,-0.8203125 -0.6210937,-1.59375 -1.6523437,-1.8046873 z m 0,0"
       style="fill:#000000;fill-opacity:1;fill-rule:nonzero;stroke:none"
       aria-label="3"
       transform="matrix(1.3333333,0,0,1.3333333,84.277333,340.30533)" />
    <path
       id="path13"
       d="m 3.2929375,2.3909922 c 0,-0.035156 0,-0.046875 -0.1640625,-0.2226563 -1.2421875,-1.25390621 -1.5703125,-3.12890621 -1.5703125,-4.6640625 0,-1.7226562 0.3867188,-3.4570312 1.6054688,-4.7109375 0.1289062,-0.1171875 0.1289062,-0.1289062 0.1289062,-0.1640625 0,-0.070312 -0.035156,-0.1054687 -0.09375,-0.1054687 -0.1054687,0 -0.9960937,0.6796875 -1.5820312,1.9453125 -0.515625,1.1015625 -0.63281255,2.203125 -0.63281255,3.0351562 0,0.7851563 0.11718755,1.99218754 0.65625005,3.11718754 0.5976562,1.21874996 1.453125,1.87499996 1.5585937,1.87499996 0.058594,0 0.09375,-0.035156 0.09375,-0.1054687 z m 3.4746094,-5.8945313 c 0.8085937,-0.2695312 1.3945312,-0.9726562 1.3945312,-1.7578125 0,-0.8203125 -0.8789062,-1.3710937 -1.8398437,-1.3710937 -1.0078125,0 -1.7578125,0.5976562 -1.7578125,1.3476562 0,0.3398438 0.2109375,0.5273438 0.5039062,0.5273438 0.3046875,0 0.5039063,-0.2226563 0.5039063,-0.515625 0,-0.4921875 -0.46875,-0.4921875 -0.609375,-0.4921875 0.3046875,-0.4921875 0.9609375,-0.6210938 1.3242187,-0.6210938 0.4101563,0 0.9492188,0.2226563 0.9492188,1.1132813 0,0.1289062 -0.011719,0.703125 -0.2695313,1.1367187 -0.3046875,0.4804688 -0.6445312,0.515625 -0.890625,0.515625 -0.082031,0.011719 -0.3164062,0.035156 -0.3867187,0.035156 -0.082031,0.011719 -0.1523438,0.023437 -0.1523438,0.1171875 0,0.1171875 0.070312,0.1171875 0.234375,0.1171875 h 0.4453125 c 0.8085938,0 1.1835938,0.6679687 1.1835938,1.6523437 0,1.34765629 -0.6914063,1.64062504 -1.125,1.64062504 -0.4335938,0 -1.171875,-0.17578125 -1.5234375,-0.76171875 0.3515625,0.0585938 0.65625,-0.1640625 0.65625,-0.53906249 0,-0.3632813 -0.2695313,-0.5625 -0.5625,-0.5625 -0.234375,0 -0.5507813,0.140625 -0.5507813,0.5742187 0,0.91406254 0.9257813,1.57031254 2.0039063,1.57031254 1.21875,0 2.1210937,-0.9140625 2.1210937,-1.92187504 0,-0.8203125 -0.6210937,-1.59375 -1.6523437,-1.8046872 z m 4.1162111,3.49218754 c 0,-0.6328125 -0.246094,-1.04296874 -0.644531,-1.04296874 -0.3515629,0 -0.5273442,0.26953124 -0.5273442,0.52734374 0,0.2578125 0.1757813,0.5273437475 0.5273442,0.5273437475 0.164062,0 0.28125,-0.0585937475 0.375,-0.1406249975 l 0.02344,-0.0234375 c 0.01172,0 0.02344,0.0117188 0.02344,0.15234375 0,0.64453125 -0.28125,1.24218746 -0.7148442,1.71093746 -0.058594,0.058594 -0.070312,0.070312 -0.070312,0.1171875 0,0.070312 0.046875,0.1054688 0.09375,0.1054688 0.1171882,0 0.9140632,-0.7851563 0.9140632,-1.93359376 z m 3.667969,-6.36328124 c 0,-0.234375 0,-0.2578125 -0.234375,-0.2578125 -0.609375,0.6328125 -1.488282,0.6328125 -1.804688,0.6328125 v 0.3164062 c 0.199219,0 0.785156,0 1.300781,-0.2578125 v 5.15625004 c 0,0.3515625 -0.03516,0.48046875 -0.925781,0.48046875 H 12.571258 V 3.671875e-4 C 12.92282,-0.03478906 13.778289,-0.03478906 14.176727,-0.03478906 c 0.398437,0 1.265625,0 1.617187,0.0351562475 V -0.30432031 h -0.316406 c -0.902344,0 -0.925781,-0.1171875 -0.925781,-0.48046875 z m 4.936523,3.8789062 c 0,-0.7734375 -0.117187,-1.9804687 -0.65625,-3.1054687 -0.597656,-1.21875 -1.464844,-1.875 -1.558594,-1.875 -0.05859,0 -0.105468,0.046875 -0.105468,0.1054687 0,0.035156 0,0.046875 0.199218,0.234375 0.972657,0.984375 1.535157,2.5664063 1.535157,4.640625 0,1.71093754 -0.363282,3.45703129 -1.59375,4.7226563 -0.140625,0.1171875 -0.140625,0.1289062 -0.140625,0.1640625 0,0.058594 0.04687,0.1054687 0.105468,0.1054687 0.09375,0 0.996094,-0.6796875 1.582032,-1.94531246 0.503906,-1.1015625 0.632812,-2.20312504 0.632812,-3.04687504 z m 0,0"
       style="fill:#000000;fill-opacity:1;fill-rule:nonzero;stroke:none"
       aria-label="(3,1)"
       transform="matrix(1.3333333,0,0,1.3333333,115.89067,289.03467)" />
    <path
       id="path14"
       d="m 3.2929375,2.3907578 c 0,-0.035156 0,-0.046875 -0.1640625,-0.2226562 -1.2421875,-1.25390629 -1.5703125,-3.12890629 -1.5703125,-4.6640625 0,-1.7226563 0.3867188,-3.4570313 1.6054688,-4.7109375 0.1289062,-0.1171875 0.1289062,-0.1289063 0.1289062,-0.1640625 0,-0.070312 -0.035156,-0.1054688 -0.09375,-0.1054688 -0.1054687,0 -0.9960937,0.6796875 -1.5820312,1.9453125 -0.515625,1.1015625 -0.63281255,2.203125 -0.63281255,3.0351563 0,0.7851562 0.11718755,1.99218746 0.65625005,3.11718746 0.5976562,1.21875004 1.453125,1.87500004 1.5585937,1.87500004 0.058594,0 0.09375,-0.035156 0.09375,-0.1054688 z m 3.4746094,-5.8945312 c 0.8085937,-0.2695313 1.3945312,-0.9726563 1.3945312,-1.7578125 0,-0.8203125 -0.8789062,-1.3710938 -1.8398437,-1.3710938 -1.0078125,0 -1.7578125,0.5976563 -1.7578125,1.3476563 0,0.3398437 0.2109375,0.5273437 0.5039062,0.5273437 0.3046875,0 0.5039063,-0.2226562 0.5039063,-0.515625 0,-0.4921875 -0.46875,-0.4921875 -0.609375,-0.4921875 0.3046875,-0.4921875 0.9609375,-0.6210937 1.3242187,-0.6210937 0.4101563,0 0.9492188,0.2226562 0.9492188,1.1132812 0,0.1289063 -0.011719,0.703125 -0.2695313,1.1367188 -0.3046875,0.4804687 -0.6445312,0.515625 -0.890625,0.515625 -0.082031,0.011719 -0.3164062,0.035156 -0.3867187,0.035156 -0.082031,0.011719 -0.1523438,0.023437 -0.1523438,0.1171875 0,0.1171875 0.070312,0.1171875 0.234375,0.1171875 h 0.4453125 c 0.8085938,0 1.1835938,0.6679688 1.1835938,1.6523438 0,1.34765621 -0.6914063,1.64062496 -1.125,1.64062496 -0.4335938,0 -1.171875,-0.17578125 -1.5234375,-0.76171875 0.3515625,0.0585938 0.65625,-0.1640625 0.65625,-0.53906251 0,-0.3632812 -0.2695313,-0.5625 -0.5625,-0.5625 -0.234375,0 -0.5507813,0.140625 -0.5507813,0.5742188 0,0.91406246 0.9257813,1.57031246 2.0039063,1.57031246 1.21875,0 2.1210937,-0.9140625 2.1210937,-1.92187496 0,-0.8203125 -0.6210937,-1.59375 -1.6523437,-1.8046873 z m 4.1162111,3.49218746 c 0,-0.6328125 -0.246094,-1.04296876 -0.644531,-1.04296876 -0.3515629,0 -0.5273442,0.26953126 -0.5273442,0.52734376 0,0.2578125 0.1757813,0.5273437525 0.5273442,0.5273437525 0.164062,0 0.28125,-0.0585937525 0.375,-0.1406250025 l 0.02344,-0.0234375 c 0.01172,0 0.02344,0.0117188 0.02344,0.15234375 0,0.64453125 -0.28125,1.24218754 -0.7148442,1.71093754 -0.058594,0.058594 -0.070312,0.070312 -0.070312,0.1171875 0,0.070312 0.046875,0.1054687 0.09375,0.1054687 0.1171882,0 0.9140632,-0.7851562 0.9140632,-1.93359374 z m 2.003906,-0.75 1.054688,-1.03124996 c 1.558593,-1.3710938 2.15625,-1.9101563 2.15625,-2.90625 0,-1.1367188 -0.902344,-1.9335938 -2.121094,-1.9335938 -1.125,0 -1.851563,0.9140625 -1.851563,1.8046875 0,0.5507813 0.492188,0.5507813 0.527344,0.5507813 0.164063,0 0.515625,-0.1171875 0.515625,-0.5273438 0,-0.2578125 -0.1875,-0.515625 -0.527344,-0.515625 -0.08203,0 -0.105468,0 -0.128906,0.011719 0.222656,-0.6445313 0.761719,-1.0195313 1.335938,-1.0195313 0.914062,0 1.335937,0.8085938 1.335937,1.6289063 0,0.796875 -0.492187,1.5820312 -1.042969,2.203125 l -1.910156,2.13281246 c -0.105469,0.10546875 -0.105469,0.12890625 -0.105469,0.3632812525 h 3.691407 L 16.098602,-1.7342422 h -0.257813 c -0.04687,0.3046875 -0.117187,0.73828126 -0.210937,0.89062501 -0.07031,0.0820313 -0.726563,0.0820313 -0.949219,0.0820313 z M 19.48825,-2.4959609 c 0,-0.7734375 -0.117187,-1.9804688 -0.65625,-3.1054688 -0.597656,-1.21875 -1.464844,-1.875 -1.558594,-1.875 -0.05859,0 -0.105468,0.046875 -0.105468,0.1054688 0,0.035156 0,0.046875 0.199218,0.234375 0.972657,0.984375 1.535157,2.5664062 1.535157,4.640625 0,1.71093746 -0.363282,3.45703121 -1.59375,4.7226562 -0.140625,0.1171875 -0.140625,0.1289063 -0.140625,0.1640625 0,0.058594 0.04687,0.1054688 0.105468,0.1054688 0.09375,0 0.996094,-0.6796875 1.582032,-1.94531254 0.503906,-1.1015625 0.632812,-2.20312496 0.632812,-3.04687496 z m 0,0"
       style="fill:#000000;fill-opacity:1;fill-rule:nonzero;stroke:none"
       aria-label="(3,2)"
       transform="matrix(1.3333333,0,0,1.3333333,115.89067,323.21467)" />
    <path
       id="path15"
       d="m 3.2929375,2.3895234 c 0,-0.035156 0,-0.046875 -0.1640625,-0.2226562 -1.2421875,-1.25390626 -1.5703125,-3.12890626 -1.5703125,-4.6640625 0,-1.7226563 0.3867188,-3.4570313 1.6054688,-4.7109375 0.1289062,-0.1171875 0.1289062,-0.1289063 0.1289062,-0.1640625 0,-0.070312 -0.035156,-0.1054688 -0.09375,-0.1054688 -0.1054687,0 -0.9960937,0.6796875 -1.5820312,1.9453125 -0.515625,1.1015625 -0.63281255,2.203125 -0.63281255,3.0351563 0,0.7851562 0.11718755,1.99218749 0.65625005,3.11718749 0.5976562,1.21875001 1.453125,1.87500001 1.5585937,1.87500001 0.058594,0 0.09375,-0.035156 0.09375,-0.1054688 z m 3.4746094,-5.8945312 c 0.8085937,-0.2695313 1.3945312,-0.9726563 1.3945312,-1.7578125 0,-0.8203125 -0.8789062,-1.3710938 -1.8398437,-1.3710938 -1.0078125,0 -1.7578125,0.5976563 -1.7578125,1.3476563 0,0.3398437 0.2109375,0.5273437 0.5039062,0.5273437 0.3046875,0 0.5039063,-0.2226562 0.5039063,-0.515625 0,-0.4921875 -0.46875,-0.4921875 -0.609375,-0.4921875 0.3046875,-0.4921875 0.9609375,-0.6210937 1.3242187,-0.6210937 0.4101563,0 0.9492188,0.2226562 0.9492188,1.1132812 0,0.1289063 -0.011719,0.703125 -0.2695313,1.1367188 -0.3046875,0.4804687 -0.6445312,0.515625 -0.890625,0.515625 -0.082031,0.011719 -0.3164062,0.035156 -0.3867187,0.035156 -0.082031,0.011719 -0.1523438,0.023437 -0.1523438,0.1171875 0,0.1171875 0.070312,0.1171875 0.234375,0.1171875 h 0.4453125 c 0.8085938,0 1.1835938,0.6679688 1.1835938,1.6523438 0,1.34765624 -0.6914063,1.64062499 -1.125,1.64062499 -0.4335938,0 -1.171875,-0.17578125 -1.5234375,-0.76171875 0.3515625,0.0585938 0.65625,-0.1640625 0.65625,-0.53906254 0,-0.3632812 -0.2695313,-0.5625 -0.5625,-0.5625 -0.234375,0 -0.5507813,0.140625 -0.5507813,0.5742188 0,0.91406249 0.9257813,1.57031249 2.0039063,1.57031249 1.21875,0 2.1210937,-0.9140625 2.1210937,-1.92187499 0,-0.8203125 -0.6210937,-1.59375 -1.6523437,-1.8046873 z m 4.1162111,3.49218749 c 0,-0.6328125 -0.246094,-1.04296879 -0.644531,-1.04296879 -0.3515629,0 -0.5273442,0.26953129 -0.5273442,0.52734379 0,0.2578125 0.1757813,0.52734375 0.5273442,0.52734375 0.164062,0 0.28125,-0.05859375 0.375,-0.140625 l 0.02344,-0.0234375 c 0.01172,0 0.02344,0.0117188 0.02344,0.15234375 0,0.64453125 -0.28125,1.24218751 -0.7148442,1.71093751 -0.058594,0.058594 -0.070312,0.070312 -0.070312,0.1171875 0,0.070312 0.046875,0.1054687 0.09375,0.1054687 0.1171882,0 0.9140632,-0.7851562 0.9140632,-1.93359371 z M 14.51657,-3.5050078 c 0.808594,-0.2695313 1.394532,-0.9726563 1.394532,-1.7578125 0,-0.8203125 -0.878907,-1.3710938 -1.839844,-1.3710938 -1.007813,0 -1.757813,0.5976563 -1.757813,1.3476563 0,0.3398437 0.210938,0.5273437 0.503907,0.5273437 0.304687,0 0.503906,-0.2226562 0.503906,-0.515625 0,-0.4921875 -0.46875,-0.4921875 -0.609375,-0.4921875 0.304687,-0.4921875 0.960937,-0.6210937 1.324219,-0.6210937 0.410156,0 0.949218,0.2226562 0.949218,1.1132812 0,0.1289063 -0.01172,0.703125 -0.269531,1.1367188 -0.304687,0.4804687 -0.644531,0.515625 -0.890625,0.515625 -0.08203,0.011719 -0.316406,0.035156 -0.386719,0.035156 -0.08203,0.011719 -0.152343,0.023437 -0.152343,0.1171875 0,0.1171875 0.07031,0.1171875 0.234375,0.1171875 h 0.445312 c 0.808594,0 1.183594,0.6679688 1.183594,1.6523438 0,1.34765624 -0.691406,1.64062499 -1.125,1.64062499 -0.433594,0 -1.171875,-0.17578125 -1.523438,-0.76171875 0.351563,0.0585938 0.65625,-0.1640625 0.65625,-0.53906254 0,-0.3632812 -0.269531,-0.5625 -0.5625,-0.5625 -0.234375,0 -0.550781,0.140625 -0.550781,0.5742188 0,0.91406249 0.925781,1.57031249 2.003906,1.57031249 1.21875,0 2.121094,-0.9140625 2.121094,-1.92187499 0,-0.8203125 -0.621094,-1.59375 -1.652344,-1.8046873 z m 4.97168,1.0078125 c 0,-0.7734375 -0.117187,-1.9804688 -0.65625,-3.1054688 -0.597656,-1.21875 -1.464844,-1.875 -1.558594,-1.875 -0.05859,0 -0.105468,0.046875 -0.105468,0.1054688 0,0.035156 0,0.046875 0.199218,0.234375 0.972657,0.984375 1.535157,2.5664062 1.535157,4.640625 0,1.71093749 -0.363282,3.45703124 -1.59375,4.7226562 -0.140625,0.1171875 -0.140625,0.1289063 -0.140625,0.1640625 0,0.058594 0.04687,0.1054688 0.105468,0.1054688 0.09375,0 0.996094,-0.6796875 1.582032,-1.94531251 0.503906,-1.1015625 0.632812,-2.20312499 0.632812,-3.04687499 z m 0,0"
       style="fill:#000000;fill-opacity:1;fill-rule:nonzero;stroke:none"
       aria-label="(3,3)"
       transform="matrix(1.3333333,0,0,1.3333333,115.89067,357.396)" />
    <path
       id="path16"
       d="m 3.2929375,2.3912188 c 0,-0.035156 0,-0.046875 -0.1640625,-0.2226563 C 1.8866875,0.91465625 1.5585625,-0.96034375 1.5585625,-2.4955 c 0,-1.7226562 0.3867188,-3.4570312 1.6054688,-4.7109375 0.1289062,-0.1171875 0.1289062,-0.1289062 0.1289062,-0.1640625 0,-0.070312 -0.035156,-0.1054687 -0.09375,-0.1054687 -0.1054687,0 -0.9960937,0.6796875 -1.5820312,1.9453125 -0.515625,1.1015625 -0.63281255,2.203125 -0.63281255,3.0351562 0,0.7851563 0.11718755,1.9921875 0.65625005,3.1171875 0.5976562,1.21875 1.453125,1.875 1.5585937,1.875 0.058594,0 0.09375,-0.035156 0.09375,-0.1054687 z m 3.4746094,-5.8945313 c 0.8085937,-0.2695312 1.3945312,-0.9726562 1.3945312,-1.7578125 0,-0.8203125 -0.8789062,-1.3710937 -1.8398437,-1.3710937 -1.0078125,0 -1.7578125,0.5976562 -1.7578125,1.3476562 0,0.3398438 0.2109375,0.5273438 0.5039062,0.5273438 0.3046875,0 0.5039063,-0.2226563 0.5039063,-0.515625 0,-0.4921875 -0.46875,-0.4921875 -0.609375,-0.4921875 0.3046875,-0.4921875 0.9609375,-0.6210938 1.3242187,-0.6210938 0.4101563,0 0.9492188,0.2226563 0.9492188,1.1132813 0,0.1289062 -0.011719,0.703125 -0.2695313,1.1367187 -0.3046875,0.4804688 -0.6445312,0.515625 -0.890625,0.515625 -0.082031,0.011719 -0.3164062,0.035156 -0.3867187,0.035156 -0.082031,0.011719 -0.1523438,0.023437 -0.1523438,0.1171875 0,0.1171875 0.070312,0.1171875 0.234375,0.1171875 h 0.4453125 c 0.8085938,0 1.1835938,0.6679687 1.1835938,1.6523437 0,1.34765625 -0.6914063,1.640625 -1.125,1.640625 -0.4335938,0 -1.171875,-0.17578125 -1.5234375,-0.76171875 0.3515625,0.0585938 0.65625,-0.1640625 0.65625,-0.53906245 0,-0.3632813 -0.2695313,-0.5625 -0.5625,-0.5625 -0.234375,0 -0.5507813,0.140625 -0.5507813,0.5742187 0,0.9140625 0.9257813,1.5703125 2.0039063,1.5703125 1.21875,0 2.1210937,-0.9140625 2.1210937,-1.921875 0,-0.8203125 -0.6210937,-1.59375 -1.6523437,-1.8046872 z m 4.1162111,3.4921875 c 0,-0.6328125 -0.246094,-1.0429687 -0.644531,-1.0429687 -0.3515629,0 -0.5273442,0.2695312 -0.5273442,0.5273437 0,0.2578125 0.1757813,0.52734375 0.5273442,0.52734375 0.164062,0 0.28125,-0.05859375 0.375,-0.140625 l 0.02344,-0.0234375 c 0.01172,0 0.02344,0.0117188 0.02344,0.15234375 0,0.64453125 -0.28125,1.2421875 -0.7148442,1.7109375 -0.058594,0.058594 -0.070312,0.070312 -0.070312,0.1171875 0,0.070312 0.046875,0.1054688 0.09375,0.1054688 0.1171882,0 0.9140632,-0.7851563 0.9140632,-1.9335938 z m 3.667969,-1.6289062 v 0.86718745 c 0,0.3515625 -0.02344,0.46875 -0.761719,0.46875 H 13.57907 v 0.3046875 c 0.410157,-0.03515625 0.9375,-0.03515625 1.347657,-0.03515625 0.421875,0 0.949218,0 1.359375,0.03515625 v -0.3046875 h -0.210938 c -0.738281,0 -0.761719,-0.1171875 -0.761719,-0.46875 V -1.6400312 h 0.996094 V -1.9564375 H 15.313445 V -6.479875 c 0,-0.1992187 0,-0.2578125 -0.152343,-0.2578125 -0.09375,0 -0.117188,0 -0.199219,0.1171875 l -3.058594,4.6640625 v 0.3164063 z m 0.05859,-0.3164063 H 12.184539 L 14.61032,-5.6712812 Z M 19.48825,-2.4955 c 0,-0.7734375 -0.117187,-1.9804687 -0.65625,-3.1054687 -0.597656,-1.21875 -1.464844,-1.875 -1.558594,-1.875 -0.05859,0 -0.105468,0.046875 -0.105468,0.1054687 0,0.035156 0,0.046875 0.199218,0.234375 0.972657,0.984375 1.535157,2.5664063 1.535157,4.640625 0,1.7109375 -0.363282,3.45703125 -1.59375,4.7226563 -0.140625,0.1171875 -0.140625,0.1289062 -0.140625,0.1640625 0,0.058594 0.04687,0.1054687 0.105468,0.1054687 0.09375,0 0.996094,-0.6796875 1.582032,-1.9453125 0.503906,-1.1015625 0.632812,-2.203125 0.632812,-3.046875 z m 0,0"
       style="fill:#000000;fill-opacity:1;fill-rule:nonzero;stroke:none"
       aria-label="(3,4)"
       transform="matrix(1.3333333,0,0,1.3333333,115.89067,391.57733)" />
    <path
       id="path17"
       d="M 2.9296953,-1.6391875 V -0.772 c 0,0.3515625 -0.023437,0.46875 -0.7617187,0.46875 H 1.9570391 v 0.3046875 c 0.4101562,-0.03515625 0.9375,-0.03515625 1.3476562,-0.03515625 0.421875,0 0.9492188,0 1.359375,0.03515625 V -0.30325 H 4.4531328 c -0.7382812,0 -0.7617187,-0.1171875 -0.7617187,-0.46875 V -1.6391875 H 4.6875078 V -1.9555937 H 3.6914141 v -4.5234375 c 0,-0.1992188 0,-0.2578125 -0.1523438,-0.2578125 -0.09375,0 -0.1171875,0 -0.1992187,0.1171875 l -3.05859379,4.6640625 v 0.3164062 z m 0.058594,-0.3164062 H 0.56250781 L 2.9882891,-5.6704375 Z m 0,0"
       style="fill:#000000;fill-opacity:1;fill-rule:nonzero;stroke:none"
       aria-label="4"
       transform="matrix(1.3333333,0,0,1.3333333,84.277333,477.02933)" />
    <path
       id="path18"
       d="m 3.2929375,2.3899844 c 0,-0.035156 0,-0.046875 -0.1640625,-0.2226563 -1.2421875,-1.25390622 -1.5703125,-3.12890622 -1.5703125,-4.6640625 0,-1.7226562 0.3867188,-3.4570312 1.6054688,-4.7109375 0.1289062,-0.1171875 0.1289062,-0.1289062 0.1289062,-0.1640625 0,-0.070312 -0.035156,-0.1054687 -0.09375,-0.1054687 -0.1054687,0 -0.9960937,0.6796875 -1.5820312,1.9453125 -0.515625,1.1015625 -0.63281255,2.203125 -0.63281255,3.0351562 0,0.7851563 0.11718755,1.99218753 0.65625005,3.11718753 0.5976562,1.21874997 1.453125,1.87499997 1.5585937,1.87499997 0.058594,0 0.09375,-0.035156 0.09375,-0.1054687 z m 3.5097656,-4.03125 v 0.86718748 c 0,0.3515625 -0.023437,0.46875 -0.7617187,0.46875 H 5.8300469 v 0.304687495 c 0.4101562,-0.035156245 0.9375,-0.035156245 1.3476562,-0.035156245 0.421875,0 0.9492188,0 1.359375,0.035156245 V -0.30532812 H 8.3261406 c -0.7382812,0 -0.7617187,-0.1171875 -0.7617187,-0.46875 V -1.6412656 H 8.5605156 V -1.9576719 H 7.5644219 v -4.5234375 c 0,-0.1992187 0,-0.2578125 -0.1523438,-0.2578125 -0.09375,0 -0.1171875,0 -0.1992187,0.1171875 l -3.0585938,4.6640625 v 0.3164063 z m 0.058594,-0.3164063 H 4.4355156 l 2.4257813,-3.7148437 z m 4.0224609,1.94531253 c 0,-0.6328125 -0.246094,-1.04296873 -0.644531,-1.04296873 -0.3515627,0 -0.527344,0.26953123 -0.527344,0.52734373 0,0.2578125 0.1757813,0.527343745 0.527344,0.527343745 0.164062,0 0.28125,-0.058593745 0.375,-0.140624995 l 0.02344,-0.0234375 c 0.01172,0 0.02344,0.0117188 0.02344,0.15234375 0,0.64453125 -0.28125,1.24218747 -0.714844,1.71093747 -0.058594,0.058594 -0.070312,0.070312 -0.070312,0.1171875 0,0.070312 0.046875,0.1054688 0.09375,0.1054688 0.117188,0 0.914063,-0.7851563 0.914063,-1.93359377 z m 3.667969,-6.36328123 c 0,-0.234375 0,-0.2578125 -0.234375,-0.2578125 -0.609375,0.6328125 -1.488282,0.6328125 -1.804688,0.6328125 v 0.3164062 c 0.199219,0 0.785156,0 1.300781,-0.2578125 v 5.15625003 c 0,0.3515625 -0.03516,0.48046875 -0.925781,0.48046875 h -0.316406 v 0.304687495 c 0.351562,-0.035156245 1.207031,-0.035156245 1.605469,-0.035156245 0.398437,0 1.265625,0 1.617187,0.035156245 V -0.30532812 h -0.316406 c -0.902344,0 -0.925781,-0.1171875 -0.925781,-0.48046875 z m 4.936523,3.8789062 c 0,-0.7734375 -0.117187,-1.9804687 -0.65625,-3.1054687 -0.597656,-1.21875 -1.464844,-1.875 -1.558594,-1.875 -0.05859,0 -0.105468,0.046875 -0.105468,0.1054687 0,0.035156 0,0.046875 0.199218,0.234375 0.972657,0.984375 1.535157,2.5664063 1.535157,4.640625 0,1.71093753 -0.363282,3.45703128 -1.59375,4.7226563 -0.140625,0.1171875 -0.140625,0.1289062 -0.140625,0.1640625 0,0.058594 0.04687,0.1054687 0.105468,0.1054687 0.09375,0 0.996094,-0.6796875 1.582032,-1.94531247 0.503906,-1.1015625 0.632812,-2.20312503 0.632812,-3.04687503 z m 0,0"
       style="fill:#000000;fill-opacity:1;fill-rule:nonzero;stroke:none"
       aria-label="(4,1)"
       transform="matrix(1.3333333,0,0,1.3333333,115.89067,425.75867)" />
    <path
       id="path19"
       d="m 3.2929375,2.38975 c 0,-0.035156 0,-0.046875 -0.1640625,-0.2226562 -1.2421875,-1.2539063 -1.5703125,-3.1289063 -1.5703125,-4.6640625 0,-1.7226563 0.3867188,-3.4570313 1.6054688,-4.7109375 0.1289062,-0.1171875 0.1289062,-0.1289063 0.1289062,-0.1640625 0,-0.070312 -0.035156,-0.1054688 -0.09375,-0.1054688 -0.1054687,0 -0.9960937,0.6796875 -1.5820312,1.9453125 -0.515625,1.1015625 -0.63281255,2.203125 -0.63281255,3.0351563 0,0.7851562 0.11718755,1.99218745 0.65625005,3.11718745 0.5976562,1.21875005 1.453125,1.87500005 1.5585937,1.87500005 0.058594,0 0.09375,-0.035156 0.09375,-0.1054688 z M 6.8027031,-1.6415 v 0.8671875 c 0,0.3515625 -0.023437,0.46875 -0.7617187,0.46875 H 5.8300469 V -8.75e-4 c 0.4101562,-0.03515625 0.9375,-0.03515625 1.3476562,-0.03515625 0.421875,0 0.9492188,0 1.359375,0.03515625 V -0.3055625 H 8.3261406 c -0.7382812,0 -0.7617187,-0.1171875 -0.7617187,-0.46875 V -1.6415 H 8.5605156 V -1.9579062 H 7.5644219 v -4.5234375 c 0,-0.1992188 0,-0.2578125 -0.1523438,-0.2578125 -0.09375,0 -0.1171875,0 -0.1992187,0.1171875 L 4.1542656,-1.9579062 V -1.6415 Z m 0.058594,-0.3164062 H 4.4355156 L 6.8612969,-5.67275 Z m 4.0224609,1.94531245 c 0,-0.6328125 -0.246094,-1.04296875 -0.644531,-1.04296875 -0.3515627,0 -0.527344,0.26953125 -0.527344,0.52734375 0,0.2578125 0.1757813,0.52734375 0.527344,0.52734375 0.164062,0 0.28125,-0.05859375 0.375,-0.140625 l 0.02344,-0.0234375 c 0.01172,0 0.02344,0.0117188 0.02344,0.15234375 0,0.64453125 -0.28125,1.24218755 -0.714844,1.71093755 -0.058594,0.058594 -0.070312,0.070312 -0.070312,0.1171875 0,0.070312 0.046875,0.1054687 0.09375,0.1054687 0.117188,0 0.914063,-0.7851562 0.914063,-1.93359375 z m 2.003906,-0.75 1.054688,-1.03124995 c 1.558593,-1.3710938 2.15625,-1.9101563 2.15625,-2.90625 0,-1.1367188 -0.902344,-1.9335938 -2.121094,-1.9335938 -1.125,0 -1.851563,0.9140625 -1.851563,1.8046875 0,0.5507813 0.492188,0.5507813 0.527344,0.5507813 0.164063,0 0.515625,-0.1171875 0.515625,-0.5273438 0,-0.2578125 -0.1875,-0.515625 -0.527344,-0.515625 -0.08203,0 -0.105468,0 -0.128906,0.011719 C 12.73532,-5.954 13.274383,-6.329 13.848602,-6.329 c 0.914062,0 1.335937,0.8085938 1.335937,1.6289063 0,0.796875 -0.492187,1.5820312 -1.042969,2.203125 l -1.910156,2.13281245 C 12.125945,-0.2586875 12.125945,-0.23525 12.125945,-8.75e-4 h 3.691407 l 0.28125,-1.734375 h -0.257813 c -0.04687,0.3046875 -0.117187,0.73828125 -0.210937,0.890625 -0.07031,0.0820313 -0.726563,0.0820313 -0.949219,0.0820313 z M 19.48825,-2.4969687 c 0,-0.7734375 -0.117187,-1.9804688 -0.65625,-3.1054688 -0.597656,-1.21875 -1.464844,-1.875 -1.558594,-1.875 -0.05859,0 -0.105468,0.046875 -0.105468,0.1054688 0,0.035156 0,0.046875 0.199218,0.234375 0.972657,0.984375 1.535157,2.5664062 1.535157,4.640625 0,1.71093745 -0.363282,3.4570312 -1.59375,4.7226562 -0.140625,0.1171875 -0.140625,0.1289063 -0.140625,0.1640625 0,0.058594 0.04687,0.1054688 0.105468,0.1054688 0.09375,0 0.996094,-0.6796875 1.582032,-1.94531255 0.503906,-1.1015625 0.632812,-2.20312495 0.632812,-3.04687495 z m 0,0"
       style="fill:#000000;fill-opacity:1;fill-rule:nonzero;stroke:none"
       aria-label="(4,2)"
       transform="matrix(1.3333333,0,0,1.3333333,115.89067,459.93867)" />
    <path
       id="path20"
       d="m 3.2929375,2.3914453 c 0,-0.035156 0,-0.046875 -0.1640625,-0.2226562 -1.2421875,-1.25390629 -1.5703125,-3.12890629 -1.5703125,-4.6640625 0,-1.7226563 0.3867188,-3.4570313 1.6054688,-4.7109375 0.1289062,-0.1171875 0.1289062,-0.1289063 0.1289062,-0.1640625 0,-0.070312 -0.035156,-0.1054688 -0.09375,-0.1054688 -0.1054687,0 -0.9960937,0.6796875 -1.5820312,1.9453125 -0.515625,1.1015625 -0.63281255,2.203125 -0.63281255,3.0351563 0,0.7851562 0.11718755,1.99218746 0.65625005,3.11718746 0.5976562,1.21875004 1.453125,1.87500004 1.5585937,1.87500004 0.058594,0 0.09375,-0.035156 0.09375,-0.1054688 z m 3.5097656,-4.03125 v 0.86718751 c 0,0.3515625 -0.023437,0.46875 -0.7617187,0.46875 H 5.8300469 V 8.203125e-4 C 6.2402031,-0.03433594 6.7675469,-0.03433594 7.1777031,-0.03433594 c 0.421875,0 0.9492188,0 1.359375,0.0351562525 V -0.30386719 H 8.3261406 c -0.7382812,0 -0.7617187,-0.1171875 -0.7617187,-0.46875 V -1.6398047 H 8.5605156 V -1.9562109 H 7.5644219 v -4.5234375 c 0,-0.1992188 0,-0.2578125 -0.1523438,-0.2578125 -0.09375,0 -0.1171875,0 -0.1992187,0.1171875 l -3.0585938,4.6640625 v 0.3164062 z m 0.058594,-0.3164062 H 4.4355156 l 2.4257813,-3.7148438 z m 4.0224609,1.94531246 c 0,-0.6328125 -0.246094,-1.04296876 -0.644531,-1.04296876 -0.3515627,0 -0.527344,0.26953126 -0.527344,0.52734376 0,0.2578125 0.1757813,0.5273437525 0.527344,0.5273437525 0.164062,0 0.28125,-0.0585937525 0.375,-0.1406250025 l 0.02344,-0.0234375 c 0.01172,0 0.02344,0.0117188 0.02344,0.15234375 0,0.64453125 -0.28125,1.24218754 -0.714844,1.71093754 -0.058594,0.058594 -0.070312,0.070312 -0.070312,0.1171875 0,0.070312 0.046875,0.1054687 0.09375,0.1054687 0.117188,0 0.914063,-0.7851562 0.914063,-1.93359374 z M 14.51657,-3.5030859 c 0.808594,-0.2695313 1.394532,-0.9726563 1.394532,-1.7578125 0,-0.8203125 -0.878907,-1.3710938 -1.839844,-1.3710938 -1.007813,0 -1.757813,0.5976563 -1.757813,1.3476563 0,0.3398437 0.210938,0.5273437 0.503907,0.5273437 0.304687,0 0.503906,-0.2226562 0.503906,-0.515625 0,-0.4921875 -0.46875,-0.4921875 -0.609375,-0.4921875 0.304687,-0.4921875 0.960937,-0.6210937 1.324219,-0.6210937 0.410156,0 0.949218,0.2226562 0.949218,1.1132812 0,0.1289063 -0.01172,0.703125 -0.269531,1.1367188 -0.304687,0.4804687 -0.644531,0.515625 -0.890625,0.515625 -0.08203,0.011719 -0.316406,0.035156 -0.386719,0.035156 -0.08203,0.011719 -0.152343,0.023437 -0.152343,0.1171875 0,0.1171875 0.07031,0.1171875 0.234375,0.1171875 h 0.445312 c 0.808594,0 1.183594,0.6679688 1.183594,1.6523438 0,1.34765621 -0.691406,1.64062496 -1.125,1.64062496 -0.433594,0 -1.171875,-0.17578125 -1.523438,-0.76171875 0.351563,0.0585938 0.65625,-0.1640625 0.65625,-0.53906251 0,-0.3632812 -0.269531,-0.5625 -0.5625,-0.5625 -0.234375,0 -0.550781,0.140625 -0.550781,0.5742188 0,0.91406246 0.925781,1.57031246 2.003906,1.57031246 1.21875,0 2.121094,-0.9140625 2.121094,-1.92187496 0,-0.8203125 -0.621094,-1.59375 -1.652344,-1.8046873 z m 4.97168,1.0078125 c 0,-0.7734375 -0.117187,-1.9804688 -0.65625,-3.1054688 -0.597656,-1.21875 -1.464844,-1.875 -1.558594,-1.875 -0.05859,0 -0.105468,0.046875 -0.105468,0.1054688 0,0.035156 0,0.046875 0.199218,0.234375 0.972657,0.984375 1.535157,2.5664062 1.535157,4.640625 0,1.71093746 -0.363282,3.45703121 -1.59375,4.7226562 -0.140625,0.1171875 -0.140625,0.1289063 -0.140625,0.1640625 0,0.058594 0.04687,0.1054688 0.105468,0.1054688 0.09375,0 0.996094,-0.6796875 1.582032,-1.94531254 0.503906,-1.1015625 0.632812,-2.20312496 0.632812,-3.04687496 z m 0,0"
       style="fill:#000000;fill-opacity:1;fill-rule:nonzero;stroke:none"
       aria-label="(4,3)"
       transform="matrix(1.3333333,0,0,1.3333333,115.89067,494.12)" />
    <path
       id="path21"
       d="m 3.2929375,2.3902109 c 0,-0.035156 0,-0.046875 -0.1640625,-0.2226562 -1.2421875,-1.25390626 -1.5703125,-3.12890626 -1.5703125,-4.6640625 0,-1.7226563 0.3867188,-3.4570313 1.6054688,-4.7109375 0.1289062,-0.1171875 0.1289062,-0.1289063 0.1289062,-0.1640625 0,-0.070312 -0.035156,-0.1054688 -0.09375,-0.1054688 -0.1054687,0 -0.9960937,0.6796875 -1.5820312,1.9453125 -0.515625,1.1015625 -0.63281255,2.203125 -0.63281255,3.0351563 0,0.7851562 0.11718755,1.99218749 0.65625005,3.11718749 0.5976562,1.21875001 1.453125,1.87500001 1.5585937,1.87500001 0.058594,0 0.09375,-0.035156 0.09375,-0.1054688 z m 3.5097656,-4.03125 v 0.86718754 c 0,0.3515625 -0.023437,0.46875 -0.7617187,0.46875 H 5.8300469 V -4.140625e-4 C 6.2402031,-0.03557031 6.7675469,-0.03557031 7.1777031,-0.03557031 c 0.421875,0 0.9492188,0 1.359375,0.0351562475 V -0.30510156 H 8.3261406 c -0.7382812,0 -0.7617187,-0.1171875 -0.7617187,-0.46875 V -1.6410391 H 8.5605156 V -1.9574453 H 7.5644219 v -4.5234375 c 0,-0.1992188 0,-0.2578125 -0.1523438,-0.2578125 -0.09375,0 -0.1171875,0 -0.1992187,0.1171875 l -3.0585938,4.6640625 v 0.3164062 z m 0.058594,-0.3164062 H 4.4355156 l 2.4257813,-3.7148438 z m 4.0224609,1.94531249 c 0,-0.6328125 -0.246094,-1.04296879 -0.644531,-1.04296879 -0.3515627,0 -0.527344,0.26953129 -0.527344,0.52734379 0,0.2578125 0.1757813,0.5273437475 0.527344,0.5273437475 0.164062,0 0.28125,-0.0585937475 0.375,-0.1406249975 l 0.02344,-0.0234375 c 0.01172,0 0.02344,0.0117188 0.02344,0.15234375 0,0.64453125 -0.28125,1.24218751 -0.714844,1.71093751 -0.058594,0.058594 -0.070312,0.070312 -0.070312,0.1171875 0,0.070312 0.046875,0.1054687 0.09375,0.1054687 0.117188,0 0.914063,-0.7851562 0.914063,-1.93359371 z m 3.667969,-1.62890629 v 0.86718754 c 0,0.3515625 -0.02344,0.46875 -0.761719,0.46875 H 13.57907 v 0.3046874975 c 0.410157,-0.0351562475 0.9375,-0.0351562475 1.347657,-0.0351562475 0.421875,0 0.949218,0 1.359375,0.0351562475 V -0.30510156 h -0.210938 c -0.738281,0 -0.761719,-0.1171875 -0.761719,-0.46875 V -1.6410391 h 0.996094 v -0.3164062 h -0.996094 v -4.5234375 c 0,-0.1992188 0,-0.2578125 -0.152343,-0.2578125 -0.09375,0 -0.117188,0 -0.199219,0.1171875 l -3.058594,4.6640625 v 0.3164062 z m 0.05859,-0.3164062 h -2.425781 l 2.425781,-3.7148438 z m 4.87793,-0.5390625 c 0,-0.7734375 -0.117187,-1.9804688 -0.65625,-3.1054688 -0.597656,-1.21875 -1.464844,-1.875 -1.558594,-1.875 -0.05859,0 -0.105468,0.046875 -0.105468,0.1054688 0,0.035156 0,0.046875 0.199218,0.234375 0.972657,0.984375 1.535157,2.5664062 1.535157,4.640625 0,1.71093749 -0.363282,3.45703124 -1.59375,4.7226562 -0.140625,0.1171875 -0.140625,0.1289063 -0.140625,0.1640625 0,0.058594 0.04687,0.1054688 0.105468,0.1054688 0.09375,0 0.996094,-0.6796875 1.582032,-1.94531251 0.503906,-1.1015625 0.632812,-2.20312499 0.632812,-3.04687499 z m 0,0"
       style="fill:#000000;fill-opacity:1;fill-rule:nonzero;stroke:none"
       aria-label="(4,4)"
       transform="matrix(1.3333333,0,0,1.3333333,115.89067,528.30133)" />
    <path
       id="path22"
       d="m 11.97,1.4579996 h 15"
       style="fill:none;stroke:#000000;stroke-width:0.3985;stroke-linecap:butt;stroke-linejoin:miter;stroke-miterlimit:10;stroke-dasharray:none;stroke-opacity:1"
       transform="matrix(1.3333333,0,0,-1.3333333,14.04,271.944)"
       sodipodi:nodetypes="cc" />
    <path
       id="path23"
       d="M 31.1045,0 49.15884,156.20761"
       style="fill:none;stroke:#000000;stroke-width:0.3985;stroke-linecap:butt;stroke-linejoin:miter;stroke-miterlimit:10;stroke-dasharray:none;stroke-opacity:1"
       transform="matrix(1.3333333,0,0,-1.3333333,14.04,271.944)" />
    <path
       id="path24"
       d="m 61.1799,156.20761 11.68926,38.45416"
       style="fill:none;stroke:#000000;stroke-width:0.3985;stroke-linecap:butt;stroke-linejoin:miter;stroke-miterlimit:10;stroke-dasharray:none;stroke-opacity:1"
       transform="matrix(1.3333333,0,0,-1.3333333,14.04,271.944)" />
    <path
       id="path25"
       d="m 61.1799,156.20761 11.68926,12.81806"
       style="fill:none;stroke:#000000;stroke-width:0.3985;stroke-linecap:butt;stroke-linejoin:miter;stroke-miterlimit:10;stroke-dasharray:none;stroke-opacity:1"
       transform="matrix(1.3333333,0,0,-1.3333333,14.04,271.944)" />
    <path
       id="path26"
       d="M 61.1799,156.20761 72.86916,143.38957"
       style="fill:none;stroke:#000000;stroke-width:0.3985;stroke-linecap:butt;stroke-linejoin:miter;stroke-miterlimit:10;stroke-dasharray:none;stroke-opacity:1"
       transform="matrix(1.3333333,0,0,-1.3333333,14.04,271.944)" />
    <path
       id="path27"
       d="M 61.1799,156.20761 72.86916,117.75346"
       style="fill:none;stroke:#000000;stroke-width:0.3985;stroke-linecap:butt;stroke-linejoin:miter;stroke-miterlimit:10;stroke-dasharray:none;stroke-opacity:1"
       transform="matrix(1.3333333,0,0,-1.3333333,14.04,271.944)" />
    <path
       id="path28"
       d="M 31.1045,0 49.15884,53.66322"
       style="fill:none;stroke:#000000;stroke-width:0.3985;stroke-linecap:butt;stroke-linejoin:miter;stroke-miterlimit:10;stroke-dasharray:none;stroke-opacity:1"
       transform="matrix(1.3333333,0,0,-1.3333333,14.04,271.944)" />
    <path
       id="path29"
       d="M 61.1799,53.66322 72.86916,92.11737"
       style="fill:none;stroke:#000000;stroke-width:0.3985;stroke-linecap:butt;stroke-linejoin:miter;stroke-miterlimit:10;stroke-dasharray:none;stroke-opacity:1"
       transform="matrix(1.3333333,0,0,-1.3333333,14.04,271.944)" />
    <path
       id="path30"
       d="M 61.1799,53.66322 72.86916,66.48126"
       style="fill:none;stroke:#000000;stroke-width:0.3985;stroke-linecap:butt;stroke-linejoin:miter;stroke-miterlimit:10;stroke-dasharray:none;stroke-opacity:1"
       transform="matrix(1.3333333,0,0,-1.3333333,14.04,271.944)" />
    <path
       id="path31"
       d="M 61.1799,53.66322 72.86916,40.84517"
       style="fill:none;stroke:#000000;stroke-width:0.3985;stroke-linecap:butt;stroke-linejoin:miter;stroke-miterlimit:10;stroke-dasharray:none;stroke-opacity:1"
       transform="matrix(1.3333333,0,0,-1.3333333,14.04,271.944)" />
    <path
       id="path32"
       d="M 61.1799,53.66322 72.86916,15.20908"
       style="fill:none;stroke:#000000;stroke-width:0.3985;stroke-linecap:butt;stroke-linejoin:miter;stroke-miterlimit:10;stroke-dasharray:none;stroke-opacity:1"
       transform="matrix(1.3333333,0,0,-1.3333333,14.04,271.944)" />
    <path
       id="path33"
       d="M 31.1045,0 49.15884,-48.88116"
       style="fill:none;stroke:#000000;stroke-width:0.3985;stroke-linecap:butt;stroke-linejoin:miter;stroke-miterlimit:10;stroke-dasharray:none;stroke-opacity:1"
       transform="matrix(1.3333333,0,0,-1.3333333,14.04,271.944)" />
    <path
       id="path34"
       d="m 61.1799,-48.88116 11.68926,38.45414"
       style="fill:none;stroke:#000000;stroke-width:0.3985;stroke-linecap:butt;stroke-linejoin:miter;stroke-miterlimit:10;stroke-dasharray:none;stroke-opacity:1"
       transform="matrix(1.3333333,0,0,-1.3333333,14.04,271.944)" />
    <path
       id="path35"
       d="m 61.1799,-48.88116 11.68926,12.81805"
       style="fill:none;stroke:#000000;stroke-width:0.3985;stroke-linecap:butt;stroke-linejoin:miter;stroke-miterlimit:10;stroke-dasharray:none;stroke-opacity:1"
       transform="matrix(1.3333333,0,0,-1.3333333,14.04,271.944)" />
    <path
       id="path36"
       d="M 61.1799,-48.88116 72.86916,-61.69922"
       style="fill:none;stroke:#000000;stroke-width:0.3985;stroke-linecap:butt;stroke-linejoin:miter;stroke-miterlimit:10;stroke-dasharray:none;stroke-opacity:1"
       transform="matrix(1.3333333,0,0,-1.3333333,14.04,271.944)" />
    <path
       id="path37"
       d="M 61.1799,-48.88116 72.86916,-87.33531"
       style="fill:none;stroke:#000000;stroke-width:0.3985;stroke-linecap:butt;stroke-linejoin:miter;stroke-miterlimit:10;stroke-dasharray:none;stroke-opacity:1"
       transform="matrix(1.3333333,0,0,-1.3333333,14.04,271.944)" />
    <path
       id="path38"
       d="M 31.1045,0 49.15884,-151.42557"
       style="fill:none;stroke:#000000;stroke-width:0.3985;stroke-linecap:butt;stroke-linejoin:miter;stroke-miterlimit:10;stroke-dasharray:none;stroke-opacity:1"
       transform="matrix(1.3333333,0,0,-1.3333333,14.04,271.944)" />
    <path
       id="path39"
       d="m 61.1799,-151.42557 11.68926,38.45417"
       style="fill:none;stroke:#000000;stroke-width:0.3985;stroke-linecap:butt;stroke-linejoin:miter;stroke-miterlimit:10;stroke-dasharray:none;stroke-opacity:1"
       transform="matrix(1.3333333,0,0,-1.3333333,14.04,271.944)" />
    <path
       id="path40"
       d="m 61.1799,-151.42557 11.68926,12.81806"
       style="fill:none;stroke:#000000;stroke-width:0.3985;stroke-linecap:butt;stroke-linejoin:miter;stroke-miterlimit:10;stroke-dasharray:none;stroke-opacity:1"
       transform="matrix(1.3333333,0,0,-1.3333333,14.04,271.944)" />
    <path
       id="path41"
       d="M 61.1799,-151.42557 72.86916,-164.2436"
       style="fill:none;stroke:#000000;stroke-width:0.3985;stroke-linecap:butt;stroke-linejoin:miter;stroke-miterlimit:10;stroke-dasharray:none;stroke-opacity:1"
       transform="matrix(1.3333333,0,0,-1.3333333,14.04,271.944)" />
    <path
       id="path42"
       d="m 61.1799,-151.42557 11.68926,-38.45414"
       style="fill:none;stroke:#000000;stroke-width:0.3985;stroke-linecap:butt;stroke-linejoin:miter;stroke-miterlimit:10;stroke-dasharray:none;stroke-opacity:1"
       transform="matrix(1.3333333,0,0,-1.3333333,14.04,271.944)" />
  </g>
</svg>
